{
.appVersion = "3133";
.formatVersion = 3;
customParameters = (
{
name = vendorID;
value = ADBE;
},
{
name = panose;
value = (
0,
0,
5,
0,
0,
0,
0,
0,
0,
0
);
},
{
name = unicodeRanges;
value = (
0
);
},
{
name = codePageRanges;
value = (
"1252"
);
},
{
name = blueScale;
value = 0.037;
},
{
name = glyphOrder;
value = (
.notdef,
A,
B,
C,
D,
E,
F,
G,
H,
I,
J,
K,
L,
M,
N,
O,
P,
Q,
R,
S,
T,
U,
V,
W,
X,
Y,
Z,
a,
b,
c,
d,
e,
f,
g,
h,
i,
j,
k,
l,
m,
n,
o,
odieresis,
p,
q,
r,
s,
t,
u,
v,
w,
x,
y,
z,
zero,
one,
two,
three,
four,
five,
six,
seven,
eight,
nine,
asterisk,
backslash,
colon,
comma,
exclam,
numbersign,
period,
question,
quotedbl,
quotesingle,
semicolon,
slash,
underscore,
bracketleft,
bracketright,
parenleft,
parenright,
hyphen,
space,
CR,
.null,
dollar,
equal,
greater,
less,
percent,
plus,
at,
ampersand,
asciicircum,
at.81,
grave
);
}
);
date = "2017-05-14 21:36:36 +0000";
familyName = Beezwax;
fontMaster = (
{
customParameters = (
{
name = typoAscender;
value = 750;
},
{
name = typoDescender;
value = -170;
},
{
name = typoLineGap;
value = 280;
},
{
name = winAscent;
value = 1030;
},
{
name = winDescent;
value = 170;
},
{
name = hheaAscender;
value = 1030;
},
{
name = hheaDescender;
value = -170;
},
{
name = strikeoutPosition;
value = 438;
},
{
name = strikeoutSize;
value = 50;
},
{
name = underlinePosition;
value = -75;
}
);
id = m01;
metricValues = (
{
pos = 750;
},
{
pos = 720;
},
{
pos = 730;
},
{
},
{
pos = -170;
},
{
}
);
name = Regular;
}
);
glyphs = (
{
glyphname = .notdef;
layers = (
{
layerId = m01;
shapes = (
{
closed = 1;
nodes = (
(423,579,o),
(465,548,o),
(497,511,cs),
(528,474,o),
(549,430,o),
(564,394,cs),
(579,357,o),
(586,326,o),
(587,313,c),
(559,302,o),
(520,283,o),
(485,258,cs),
(449,233,o),
(417,202,o),
(404,169,c),
(389,190,o),
(373,217,o),
(357,245,c),
(334,210,o),
(295,186,o),
(246,179,cs),
(206,174,o),
(169,183,o),
(141,202,cs),
(112,221,o),
(92,249,o),
(88,282,cs),
(84,315,o),
(96,348,o),
(119,373,cs),
(142,397,o),
(176,416,o),
(216,421,cs),
(256,425,o),
(294,416,o),
(323,397,c),
(332,402,o),
(342,408,o),
(353,415,cs),
(364,421,o),
(373,425,o),
(380,428,c),
(383,421,o),
(388,410,o),
(394,395,cs),
(406,365,o),
(420,330,o),
(434,302,cs),
(441,287,o),
(447,277,o),
(452,270,c),
(453,307,o),
(446,357,o),
(427,401,cs),
(407,444,o),
(376,480,o),
(331,491,cs),
(259,507,o),
(193,498,o),
(142,470,cs),
(90,442,o),
(54,395,o),
(43,336,cs),
(40,319,o),
(38,289,o),
(46,257,cs),
(54,225,o),
(71,192,o),
(106,169,cs),
(141,146,o),
(195,134,o),
(275,145,c),
(196,116,o),
(133,114,o),
(86,130,cs),
(38,146,o),
(5,179,o),
(-15,219,cs),
(-36,258,o),
(-45,304,o),
(-42,345,cs),
(-37,436,o),
(11,512,o),
(84,560,cs),
(157,607,o),
(258,623,o),
(370,594,cs)
);
},
{
closed = 1;
nodes = (
(290,256,o),
(316,283,o),
(312,314,cs),
(309,345,o),
(276,365,o),
(240,361,cs),
(203,357,o),
(178,328,o),
(181,297,cs),
(186,266,o),
(218,246,o),
(254,251,cs)
);
}
);
width = 500;
}
);
note = ".notdef";
},
{
glyphname = A;
layers = (
{
layerId = m01;
shapes = (
{
closed = 1;
nodes = (
(183,683,l),
(614,681,l),
(629,634,o),
(646,581,o),
(663,530,cs),
(680,479,o),
(698,430,o),
(714,393,cs),
(722,374,o),
(730,359,o),
(737,347,cs),
(751,323,o),
(766,320,o),
(799,310,cs),
(832,300,o),
(865,291,o),
(889,286,cs),
(900,283,o),
(907,282,o),
(910,281,c),
(910,224,l),
(909,223,o),
(903,219,o),
(892,213,cs),
(870,200,o),
(836,178,o),
(796,151,cs),
(756,124,o),
(716,93,o),
(681,62,cs),
(664,46,o),
(649,30,o),
(637,15,c),
(614,27,o),
(596,44,o),
(581,60,cs),
(574,68,o),
(567,76,o),
(562,83,cs),
(557,90,o),
(552,95,o),
(549,98,c),
(547,98,o),
(543,97,o),
(536,95,cs),
(480,73,ls),
(468,68,o),
(456,64,o),
(444,59,cs),
(350,21,l),
(349,23,o),
(342,29,o),
(327,40,cs),
(297,60,o),
(240,89,o),
(160,114,cs),
(119,127,o),
(73,136,o),
(21,142,c),
(26,200,l),
(36,204,o),
(46,207,o),
(55,210,cs),
(71,215,o),
(88,221,o),
(95,224,c),
(100,244,o),
(120,300,o),
(151,366,cs),
(182,432,o),
(223,508,o),
(268,565,c),
(264,568,o),
(258,571,o),
(249,576,cs),
(232,584,o),
(212,594,o),
(188,607,c)
);
},
{
closed = 1;
nodes = (
(429,409,o),
(419,368,o),
(410,327,cs),
(401,286,o),
(392,244,o),
(392,219,c),
(407,218,o),
(430,217,o),
(453,217,cs),
(464,216,o),
(475,216,o),
(485,216,cs),
(495,216,o),
(503,216,o),
(508,217,c),
(493,265,ls),
(480,304,o),
(466,347,o),
(452,387,cs),
(445,406,o),
(438,423,o),
(433,436,c)
);
}
);
width = 888;
}
);
note = A;
unicode = 65;
},
{
glyphname = B;
layers = (
{
layerId = m01;
shapes = (
{
closed = 1;
nodes = (
(10,694,l),
(36,691,o),
(66,690,o),
(99,689,cs),
(165,687,o),
(236,684,o),
(308,681,cs),
(380,677,o),
(444,671,o),
(496,660,cs),
(547,648,o),
(586,628,o),
(630,572,cs),
(651,544,o),
(665,507,o),
(670,462,c),
(670,393,o),
(651,336,o),
(590,269,c),
(617,244,o),
(642,198,o),
(642,155,cs),
(642,108,o),
(618,74,o),
(567,42,cs),
(515,6,o),
(444,-3,o),
(376,-2,cs),
(308,-1,o),
(242,13,o),
(201,21,c),
(198,55,ls),
(194,95,o),
(188,149,o),
(182,200,cs),
(179,225,o),
(176,244,o),
(173,256,c),
(172,257,o),
(167,259,o),
(159,260,cs),
(151,261,o),
(143,263,o),
(134,264,cs),
(124,266,o),
(113,268,o),
(101,269,c),
(100,271,o),
(99,280,o),
(97,296,cs),
(92,328,o),
(82,378,o),
(70,437,cs),
(57,496,o),
(40,553,o),
(20,601,cs),
(9,624,o),
(-2,642,o),
(-15,655,c)
);
},
{
closed = 1;
nodes = (
(382,409,o),
(384,402,o),
(386,393,cs),
(387,384,o),
(389,374,o),
(391,365,cs),
(395,346,o),
(399,328,o),
(400,320,c),
(407,327,o),
(421,345,o),
(421,356,cs),
(420,387,o),
(398,403,o),
(381,415,c)
);
},
{
closed = 1;
nodes = (
(415,230,o),
(422,192,o),
(425,173,c),
(444,180,o),
(448,199,o),
(444,217,cs),
(440,235,o),
(427,251,o),
(408,255,c)
);
}
);
width = 658;
}
);
note = B;
unicode = 66;
},
{
glyphname = C;
layers = (
{
layerId = m01;
shapes = (
{
closed = 1;
nodes = (
(177,681,o),
(269,688,o),
(345,695,cs),
(389,699,o),
(433,704,o),
(476,710,c),
(606,353,l),
(591,336,o),
(558,327,o),
(519,319,cs),
(500,315,o),
(480,311,o),
(460,308,cs),
(420,300,o),
(385,291,o),
(365,279,cs),
(344,266,o),
(348,245,o),
(360,232,cs),
(372,219,o),
(393,213,o),
(422,220,cs),
(437,223,o),
(453,231,o),
(470,244,c),
(590,181,l),
(590,180,o),
(585,174,o),
(575,162,cs),
(555,137,o),
(519,101,o),
(468,66,cs),
(417,31,o),
(354,8,o),
(283,8,cs),
(211,7,o),
(141,42,o),
(109,72,cs),
(76,102,o),
(55,139,o),
(44,183,cs),
(33,226,o),
(23,283,o),
(32,332,cs),
(40,380,o),
(57,424,o),
(76,465,cs),
(95,505,o),
(108,549,o),
(111,599,cs),
(112,624,o),
(109,651,o),
(101,682,c)
);
}
);
width = 612;
}
);
note = C;
unicode = 67;
},
{
glyphname = D;
layers = (
{
layerId = m01;
shapes = (
{
closed = 1;
nodes = (
(28,667,l),
(431,697,l),
(433,694,o),
(439,687,o),
(448,674,cs),
(466,648,o),
(492,607,o),
(523,555,cs),
(554,503,o),
(581,445,o),
(601,383,cs),
(621,321,o),
(628,260,o),
(616,205,cs),
(604,149,o),
(550,75,o),
(464,41,cs),
(378,7,o),
(285,4,o),
(201,19,cs),
(158,26,o),
(121,33,o),
(89,39,c),
(50,345,l),
(66,358,o),
(74,366,o),
(79,371,cs),
(83,376,o),
(86,379,o),
(91,384,c),
(90,386,o),
(89,392,o),
(88,401,cs),
(86,410,o),
(84,422,o),
(82,435,cs),
(76,478,ls),
(71,509,o),
(67,537,o),
(64,558,cs),
(63,568,o),
(62,574,o),
(62,577,c),
(59,577,o),
(55,577,o),
(50,578,cs),
(45,579,o),
(39,579,o),
(34,580,cs),
(28,581,o),
(22,581,o),
(17,582,c)
);
},
{
closed = 1;
nodes = (
(282,396,o),
(284,383,o),
(287,366,cs),
(292,331,o),
(299,292,o),
(304,261,cs),
(307,245,o),
(308,234,o),
(309,229,c),
(324,234,o),
(340,244,o),
(353,256,cs),
(365,268,o),
(373,283,o),
(370,296,cs),
(363,324,o),
(349,346,o),
(332,363,cs),
(315,380,o),
(296,394,o),
(280,403,c)
);
}
);
width = 634;
}
);
note = D;
unicode = 68;
},
{
glyphname = E;
layers = (
{
layerId = m01;
shapes = (
{
closed = 1;
nodes = (
(102,689,l),
(153,662,o),
(210,660,o),
(266,656,cs),
(337,653,o),
(405,645,o),
(455,618,cs),
(505,591,o),
(536,545,o),
(536,465,cs),
(536,426,o),
(518,368,o),
(483,309,c),
(490,308,o),
(496,307,o),
(503,308,cs),
(509,308,o),
(515,307,o),
(520,306,c),
(521,311,o),
(523,315,o),
(526,319,cs),
(528,322,o),
(530,325,o),
(531,328,c),
(606,344,l),
(596,102,l),
(594,99,o),
(585,92,o),
(569,79,cs),
(536,54,o),
(485,24,o),
(422,4,cs),
(390,-6,o),
(357,-9,o),
(323,-6,cs),
(282,-3,o),
(251,6,o),
(227,16,cs),
(214,21,o),
(203,26,o),
(193,32,cs),
(172,43,o),
(143,56,o),
(127,63,cs),
(110,70,o),
(97,73,o),
(82,77,cs),
(51,86,l),
(78,177,o),
(87,270,o),
(80,356,cs),
(72,442,o),
(50,520,o),
(11,583,c)
);
},
{
closed = 1;
nodes = (
(282,451,o),
(291,418,o),
(309,390,cs),
(327,362,o),
(356,339,o),
(401,330,c),
(397,357,o),
(387,387,o),
(368,415,cs),
(349,442,o),
(322,467,o),
(281,480,c)
);
}
);
width = 616;
}
);
note = E;
unicode = 69;
},
{
glyphname = F;
layers = (
{
layerId = m01;
shapes = (
{
closed = 1;
nodes = (
(531,710,l),
(608,687,o),
(672,649,o),
(741,582,c),
(608,370,l),
(577,394,o),
(552,411,o),
(527,419,cs),
(514,423,o),
(501,425,o),
(487,425,cs),
(472,425,o),
(456,423,o),
(438,418,c),
(451,350,l),
(460,350,o),
(484,352,o),
(507,355,cs),
(520,357,o),
(535,359,o),
(550,360,c),
(556,250,l),
(516,223,ls),
(505,216,o),
(496,209,o),
(487,203,cs),
(478,196,o),
(471,192,o),
(468,190,c),
(468,188,o),
(469,184,o),
(470,177,cs),
(472,163,o),
(474,142,o),
(478,117,cs),
(479,104,o),
(481,92,o),
(483,79,cs),
(497,-22,l),
(434,3,o),
(385,14,o),
(345,16,cs),
(304,18,o),
(271,12,o),
(242,7,cs),
(221,4,o),
(198,2,o),
(171,2,cs),
(144,2,o),
(111,7,o),
(74,17,c),
(90,60,o),
(103,113,o),
(111,167,cs),
(118,221,o),
(119,273,o),
(112,313,cs),
(101,377,o),
(80,427,o),
(60,462,cs),
(50,479,o),
(40,493,o),
(31,503,cs),
(22,513,o),
(15,519,o),
(11,521,c),
(93,668,l),
(120,647,o),
(148,642,o),
(178,644,cs),
(193,645,o),
(208,647,o),
(223,650,cs),
(271,659,ls),
(334,670,o),
(399,681,o),
(483,674,c)
);
}
);
width = 736;
}
);
note = F;
unicode = 70;
},
{
glyphname = G;
layers = (
{
layerId = m01;
shapes = (
{
closed = 1;
nodes = (
(93,649,o),
(160,682,o),
(248,694,cs),
(292,700,o),
(341,701,o),
(395,698,cs),
(448,695,o),
(505,691,o),
(566,688,c),
(685,694,l),
(645,494,l),
(608,502,o),
(560,509,o),
(517,506,cs),
(474,503,o),
(438,493,o),
(425,466,cs),
(416,446,o),
(420,417,o),
(436,392,cs),
(451,367,o),
(475,345,o),
(507,340,c),
(509,423,l),
(691,419,l),
(690,356,o),
(709,290,o),
(737,228,cs),
(764,166,o),
(798,108,o),
(828,65,cs),
(843,43,o),
(856,25,o),
(867,10,cs),
(878,-5,o),
(886,-14,o),
(890,-18,c),
(166,4,l),
(179,82,l),
(203,93,o),
(225,101,o),
(246,109,cs),
(256,113,o),
(264,116,o),
(269,117,c),
(254,130,o),
(236,147,o),
(215,166,cs),
(172,204,o),
(129,251,o),
(91,305,cs),
(53,359,o),
(28,416,o),
(28,477,cs),
(27,508,o),
(35,538,o),
(50,568,cs)
);
}
);
width = 875;
}
);
note = G;
unicode = 71;
},
{
glyphname = H;
layers = (
{
layerId = m01;
shapes = (
{
closed = 1;
nodes = (
(323,653,l),
(326,412,l),
(391,421,l),
(390,677,l),
(646,703,l),
(656,649,o),
(666,596,o),
(675,545,cs),
(693,442,o),
(711,355,o),
(730,295,cs),
(739,265,o),
(749,245,o),
(760,234,cs),
(773,221,o),
(795,220,o),
(814,224,cs),
(823,226,o),
(832,229,o),
(840,232,cs),
(847,235,o),
(852,237,o),
(853,238,c),
(904,161,l),
(555,-61,l),
(516,-27,ls),
(493,-8,o),
(459,14,o),
(416,39,c),
(407,274,l),
(334,261,l),
(346,76,l),
(218,143,o),
(107,191,o),
(11,214,c),
(19,316,l),
(46,320,o),
(77,337,o),
(77,358,cs),
(76,391,o),
(65,446,o),
(53,503,cs),
(40,560,o),
(23,620,o),
(11,664,c)
);
}
);
width = 885;
}
);
note = H;
unicode = 72;
},
{
glyphname = I;
layers = (
{
layerId = m01;
shapes = (
{
closed = 1;
nodes = (
(254,716,o),
(325,731,o),
(422,698,cs),
(497,671,o),
(541,635,o),
(560,599,cs),
(579,563,o),
(569,530,o),
(537,511,cs),
(504,492,o),
(447,489,o),
(368,514,cs),
(321,530,o),
(285,553,o),
(262,579,cs),
(239,605,o),
(230,633,o),
(238,661,cs)
);
},
{
closed = 1;
nodes = (
(17,482,l),
(100,592,l),
(551,370,l),
(542,343,o),
(537,302,o),
(536,259,cs),
(535,216,o),
(538,172,o),
(543,140,c),
(547,139,o),
(555,136,o),
(568,133,cs),
(580,129,o),
(593,125,o),
(606,120,cs),
(657,103,l),
(675,-7,l),
(135,-3,l),
(118,17,o),
(102,55,o),
(89,102,cs),
(76,149,o),
(67,204,o),
(64,260,cs),
(61,315,o),
(66,369,o),
(81,413,c),
(80,416,o),
(75,422,o),
(68,429,cs),
(61,436,o),
(53,444,o),
(46,452,cs)
);
}
);
width = 687;
}
);
note = I;
unicode = 73;
},
{
glyphname = J;
layers = (
{
layerId = m01;
shapes = (
{
closed = 1;
nodes = (
(44,658,l),
(596,713,l),
(602,690,ls),
(610,660,o),
(623,609,o),
(633,546,cs),
(643,483,o),
(648,415,o),
(643,350,cs),
(640,317,o),
(634,287,o),
(624,260,c),
(677,235,l),
(668,204,ls),
(656,169,o),
(633,123,o),
(593,77,cs),
(552,31,o),
(500,8,o),
(444,-1,cs),
(388,-10,o),
(324,-12,o),
(257,-5,cs),
(190,2,o),
(126,14,o),
(70,34,cs),
(41,43,o),
(17,54,o),
(-4,66,c),
(16,102,o),
(42,160,o),
(61,219,cs),
(80,278,o),
(94,337,o),
(90,377,c),
(192,390,l),
(185,342,o),
(180,302,o),
(176,266,cs),
(170,224,l),
(185,236,o),
(203,257,o),
(218,288,cs),
(233,319,o),
(244,362,o),
(244,418,cs),
(244,489,o),
(214,530,o),
(175,554,cs),
(135,578,o),
(88,587,o),
(55,592,c)
);
}
);
width = 690;
}
);
note = J;
unicode = 74;
},
{
glyphname = K;
layers = (
{
layerId = m01;
shapes = (
{
closed = 1;
nodes = (
(155,677,l),
(203,641,o),
(257,628,o),
(302,623,cs),
(324,620,o),
(343,620,o),
(359,621,cs),
(375,622,o),
(385,622,o),
(389,622,c),
(387,609,o),
(386,596,o),
(386,581,cs),
(386,552,o),
(388,522,o),
(392,498,cs),
(395,469,l),
(411,493,o),
(431,518,o),
(450,541,cs),
(459,552,o),
(468,562,o),
(475,571,cs),
(490,590,l),
(490,592,o),
(490,596,o),
(491,602,cs),
(492,613,o),
(494,627,o),
(495,644,c),
(565,672,l),
(667,550,l),
(646,531,o),
(625,505,o),
(609,481,cs),
(593,457,o),
(580,435,o),
(575,423,c),
(614,379,o),
(663,369,o),
(707,373,cs),
(750,376,o),
(786,393,o),
(797,401,c),
(798,403,o),
(800,408,o),
(802,416,cs),
(803,424,o),
(805,433,o),
(807,442,cs),
(810,453,o),
(812,464,o),
(815,477,c),
(897,471,l),
(908,404,o),
(909,332,o),
(912,259,cs),
(915,186,o),
(917,110,o),
(929,37,c),
(850,19,o),
(787,7,o),
(740,1,cs),
(693,-5,o),
(656,-8,o),
(631,-7,cs),
(606,-7,o),
(588,-5,o),
(579,0,cs),
(570,5,o),
(563,8,o),
(560,11,cs),
(545,23,o),
(511,67,o),
(476,116,cs),
(458,141,o),
(440,165,o),
(423,190,cs),
(406,215,o),
(391,235,o),
(380,250,c),
(380,-19,l),
(329,-10,o),
(291,5,o),
(257,22,cs),
(223,39,o),
(194,60,o),
(163,81,c),
(119,116,o),
(73,139,o),
(14,155,c),
(62,251,l),
(71,251,o),
(80,251,o),
(88,250,cs),
(95,249,o),
(103,249,o),
(110,249,cs),
(126,249,l),
(126,308,o),
(136,379,o),
(147,442,cs),
(158,505,o),
(170,557,o),
(175,574,c),
(170,578,o),
(158,587,o),
(147,598,cs),
(140,604,o),
(133,610,o),
(126,617,c)
);
}
);
width = 952;
}
);
note = K;
unicode = 75;
},
{
glyphname = L;
layers = (
{
layerId = m01;
shapes = (
{
closed = 1;
nodes = (
(97,475,l),
(56,491,l),
(0,514,l),
(50,640,l),
(71,632,o),
(113,632,o),
(164,637,cs),
(215,642,o),
(272,652,o),
(325,664,cs),
(377,675,o),
(423,688,o),
(451,700,c),
(475,648,o),
(483,594,o),
(485,542,cs),
(486,515,o),
(486,489,o),
(485,463,cs),
(484,411,o),
(487,360,o),
(500,309,cs),
(507,284,o),
(517,259,o),
(532,234,c),
(525,271,o),
(524,322,o),
(525,365,cs),
(525,386,o),
(526,405,o),
(528,421,cs),
(530,436,o),
(532,446,o),
(534,449,c),
(644,452,l),
(657,408,o),
(687,354,o),
(720,302,cs),
(753,249,o),
(790,197,o),
(819,158,cs),
(834,138,o),
(846,122,o),
(856,110,cs),
(865,97,o),
(871,90,o),
(872,88,c),
(818,-20,l),
(767,11,o),
(710,24,o),
(650,29,cs),
(589,33,o),
(524,29,o),
(460,22,cs),
(389,15,o),
(315,8,o),
(243,12,cs),
(170,16,o),
(96,31,o),
(28,70,c),
(76,166,l),
(115,181,o),
(135,213,o),
(146,252,cs),
(157,291,o),
(157,336,o),
(150,376,cs),
(143,415,o),
(131,450,o),
(118,466,c)
);
}
);
width = 862;
}
);
note = L;
unicode = 76;
},
{
glyphname = M;
layers = (
{
layerId = m01;
shapes = (
{
closed = 1;
nodes = (
(984,714,l),
(976,576,l),
(959,583,o),
(926,591,o),
(886,588,c),
(890,555,o),
(913,487,o),
(950,411,cs),
(987,335,o),
(1040,251,o),
(1104,186,c),
(1043,170,o),
(964,138,o),
(886,102,cs),
(808,66,o),
(731,27,o),
(676,-4,c),
(628,114,l),
(638,125,o),
(647,135,o),
(656,144,cs),
(671,159,o),
(686,176,o),
(689,180,c),
(689,183,o),
(688,191,o),
(685,206,cs),
(679,235,o),
(670,275,o),
(662,315,cs),
(657,334,o),
(654,350,o),
(652,362,c),
(649,355,o),
(646,347,o),
(641,336,cs),
(624,299,l),
(605,257,l),
(584,213,ls),
(568,179,o),
(551,143,o),
(534,104,c),
(452,122,l),
(455,198,ls),
(458,241,o),
(459,288,o),
(459,317,c),
(435,276,ls),
(415,245,o),
(396,213,o),
(384,186,cs),
(377,172,o),
(374,161,o),
(374,152,cs),
(374,132,o),
(387,115,o),
(403,102,cs),
(418,89,o),
(436,81,o),
(444,78,c),
(390,-28,l),
(368,-7,ls),
(342,16,o),
(301,51,o),
(251,92,cs),
(201,132,o),
(146,173,o),
(94,207,cs),
(68,224,o),
(44,237,o),
(22,246,c),
(28,249,o),
(42,259,o),
(65,275,cs),
(109,306,o),
(167,357,o),
(220,426,cs),
(246,460,o),
(266,497,o),
(280,538,c),
(277,541,o),
(272,544,o),
(265,548,cs),
(220,576,l),
(215,632,l),
(217,633,o),
(224,634,o),
(237,636,cs),
(250,637,o),
(265,640,o),
(284,643,cs),
(303,646,o),
(324,650,o),
(347,654,cs),
(394,662,o),
(441,672,o),
(483,682,cs),
(504,687,o),
(521,691,o),
(536,696,c),
(540,625,o),
(545,567,o),
(550,510,cs),
(552,481,o),
(554,458,o),
(556,440,c),
(567,471,o),
(582,514,o),
(599,556,cs),
(615,598,o),
(631,638,o),
(642,662,c)
);
}
);
width = 1074;
}
);
note = M;
unicode = 77;
},
{
glyphname = N;
layers = (
{
layerId = m01;
shapes = (
{
closed = 1;
nodes = (
(152,-14,l),
(4,556,l),
(59,571,o),
(113,587,o),
(164,602,cs),
(208,615,o),
(255,629,o),
(299,644,cs),
(342,659,o),
(381,674,o),
(409,686,c),
(482,406,l),
(490,664,l),
(494,665,o),
(503,666,o),
(517,667,cs),
(545,670,o),
(588,673,o),
(639,674,cs),
(690,674,o),
(743,670,o),
(792,661,cs),
(817,656,o),
(839,649,o),
(858,640,c),
(846,556,l),
(839,551,o),
(833,547,o),
(827,544,cs),
(816,537,o),
(805,531,o),
(800,528,c),
(797,507,ls),
(795,495,o),
(793,481,o),
(790,465,cs),
(787,448,o),
(783,431,o),
(780,412,cs),
(773,374,o),
(767,338,o),
(763,314,cs),
(760,302,o),
(759,295,o),
(758,292,c),
(761,291,o),
(765,287,o),
(772,282,cs),
(793,264,ls),
(801,257,o),
(810,249,o),
(820,242,c),
(816,205,o),
(815,171,o),
(820,134,cs),
(824,97,o),
(837,54,o),
(864,-2,c),
(857,-1,o),
(844,1,o),
(825,3,cs),
(786,7,o),
(732,10,o),
(668,13,cs),
(604,16,o),
(537,15,o),
(477,12,cs),
(446,10,o),
(419,7,o),
(396,2,c),
(388,54,o),
(381,98,o),
(372,145,cs),
(367,168,o),
(363,189,o),
(358,206,c),
(357,194,o),
(355,180,o),
(352,165,cs),
(347,134,o),
(340,99,o),
(336,61,cs),
(333,42,o),
(332,23,o),
(332,4,c)
);
}
);
width = 854;
}
);
note = N;
unicode = 78;
},
{
glyphname = O;
layers = (
{
layerId = m01;
shapes = (
{
closed = 1;
nodes = (
(452,685,o),
(553,661,o),
(630,612,cs),
(707,563,o),
(762,488,o),
(775,399,cs),
(787,312,o),
(756,225,o),
(697,154,cs),
(638,82,o),
(551,28,o),
(448,5,cs),
(344,-18,o),
(238,1,o),
(158,57,cs),
(83,108,o),
(35,183,o),
(22,271,cs),
(6,359,o),
(29,449,o),
(85,522,cs),
(145,605,o),
(239,657,o),
(347,672,cs)
);
},
{
closed = 1;
nodes = (
(436,407,o),
(462,417,o),
(482,434,cs),
(501,450,o),
(513,474,o),
(513,502,cs),
(512,529,o),
(498,552,o),
(478,568,cs),
(458,583,o),
(432,592,o),
(404,591,cs),
(375,591,o),
(348,579,o),
(329,562,cs),
(310,545,o),
(299,520,o),
(300,496,cs),
(300,471,o),
(312,447,o),
(331,431,cs),
(350,415,o),
(378,406,o),
(407,407,cs)
);
}
);
width = 770;
}
);
note = O;
unicode = 79;
},
{
glyphname = P;
layers = (
{
layerId = m01;
shapes = (
{
closed = 1;
nodes = (
(110,205,l),
(98,266,o),
(86,323,o),
(74,377,cs),
(63,424,o),
(52,472,o),
(40,516,cs),
(28,560,o),
(17,599,o),
(6,624,c),
(51,649,o),
(128,677,o),
(216,694,cs),
(303,711,o),
(400,719,o),
(485,701,cs),
(569,683,o),
(641,639,o),
(678,556,cs),
(707,492,o),
(707,432,o),
(692,380,cs),
(677,327,o),
(648,279,o),
(617,241,cs),
(602,222,o),
(586,205,o),
(571,190,cs),
(533,152,l),
(533,149,o),
(535,140,o),
(538,124,cs),
(544,92,o),
(551,54,o),
(560,2,c),
(535,4,ls),
(508,7,o),
(467,10,o),
(417,11,cs),
(367,11,o),
(314,8,o),
(266,0,cs),
(241,-4,o),
(219,-10,o),
(200,-18,c),
(199,1,o),
(199,23,o),
(202,48,cs),
(207,99,o),
(214,152,o),
(216,200,cs),
(217,223,o),
(215,243,o),
(210,258,c),
(202,255,o),
(177,242,o),
(154,229,cs)
);
},
{
closed = 1;
nodes = (
(514,332,o),
(518,289,o),
(525,238,c),
(537,270,o),
(542,293,o),
(542,309,cs),
(542,336,o),
(532,347,o),
(511,359,c)
);
}
);
width = 699;
}
);
note = P;
unicode = 80;
},
{
glyphname = Q;
layers = (
{
layerId = m01;
shapes = (
{
closed = 1;
nodes = (
(355,697,o),
(463,698,o),
(549,669,cs),
(635,640,o),
(698,581,o),
(726,502,cs),
(762,403,o),
(736,315,o),
(668,226,c),
(702,190,l),
(746,230,l),
(747,227,o),
(749,224,o),
(751,219,cs),
(755,210,o),
(764,199,o),
(780,187,cs),
(788,180,o),
(799,174,o),
(812,168,c),
(775,148,o),
(745,131,o),
(717,115,cs),
(689,98,o),
(663,80,o),
(634,60,cs),
(617,49,o),
(600,37,o),
(584,25,cs),
(551,0,o),
(518,-24,o),
(486,-44,cs),
(469,-55,o),
(452,-64,o),
(434,-72,c),
(434,-29,o),
(429,23,o),
(418,74,c),
(327,53,o),
(241,54,o),
(171,80,cs),
(101,106,o),
(47,154,o),
(20,226,cs),
(-7,301,o),
(-5,395,o),
(30,470,cs),
(70,559,o),
(137,615,o),
(240,654,cs)
);
},
{
closed = 1;
nodes = (
(265,247,o),
(290,241,o),
(312,241,cs),
(334,240,o),
(356,245,o),
(361,249,c),
(347,286,l),
(516,372,l),
(522,367,o),
(528,363,o),
(533,359,cs),
(542,352,o),
(553,344,o),
(558,339,c),
(570,355,o),
(577,368,o),
(578,385,cs),
(579,401,o),
(572,417,o),
(546,425,cs),
(520,433,o),
(483,434,o),
(440,427,cs),
(396,419,o),
(348,401,o),
(315,376,cs),
(282,351,o),
(262,322,o),
(255,297,cs),
(252,284,o),
(252,274,o),
(256,266,cs)
);
}
);
width = 800;
}
);
note = Q;
unicode = 81;
},
{
glyphname = R;
layers = (
{
layerId = m01;
shapes = (
{
closed = 1;
nodes = (
(697,634,o),
(710,588,o),
(709,533,cs),
(708,478,o),
(692,414,o),
(665,354,c),
(686,353,o),
(716,351,o),
(746,351,cs),
(776,351,o),
(805,353,o),
(829,361,c),
(810,293,o),
(778,230,o),
(748,170,cs),
(718,109,o),
(689,51,o),
(678,-12,c),
(583,63,ls),
(570,73,o),
(558,83,o),
(545,94,cs),
(532,105,o),
(520,115,o),
(509,125,cs),
(485,144,o),
(467,162,o),
(456,174,c),
(459,138,l),
(462,97,ls),
(464,69,o),
(466,40,o),
(469,16,c),
(454,21,o),
(420,27,o),
(377,35,cs),
(355,38,o),
(331,42,o),
(306,45,cs),
(230,55,ls),
(170,62,o),
(105,70,o),
(34,78,c),
(50,167,l),
(59,168,o),
(67,170,o),
(74,171,cs),
(87,174,o),
(101,174,o),
(108,173,c),
(108,179,o),
(108,187,o),
(109,197,cs),
(109,217,o),
(109,240,o),
(107,264,cs),
(106,275,o),
(104,286,o),
(101,296,c),
(98,296,o),
(94,296,o),
(88,297,c),
(67,297,ls),
(52,297,o),
(35,297,o),
(22,294,c),
(25,317,o),
(21,347,o),
(14,381,cs),
(7,415,o),
(-3,452,o),
(-12,485,cs),
(-24,525,o),
(-38,567,o),
(-53,611,c),
(30,618,o),
(101,624,o),
(173,636,cs),
(208,641,o),
(238,647,o),
(263,654,cs),
(330,673,o),
(410,691,o),
(483,697,cs),
(555,703,o),
(622,696,o),
(665,661,cs)
);
},
{
closed = 1;
nodes = (
(440,422,o),
(442,393,o),
(443,365,cs),
(444,336,o),
(446,308,o),
(447,293,c),
(455,301,o),
(467,313,o),
(476,326,cs),
(485,339,o),
(494,355,o),
(495,368,cs),
(495,388,o),
(485,401,o),
(474,411,cs),
(468,416,o),
(462,420,o),
(456,424,cs),
(449,428,o),
(444,432,o),
(439,435,c)
);
}
);
width = 837;
}
);
note = R;
unicode = 82;
},
{
glyphname = S;
layers = (
{
layerId = m01;
shapes = (
{
closed = 1;
nodes = (
(292,341,l),
(303,298,o),
(327,266,o),
(355,246,cs),
(382,225,o),
(413,213,o),
(433,212,cs),
(469,209,o),
(497,222,o),
(497,254,cs),
(497,271,o),
(476,286,o),
(445,299,cs),
(414,311,o),
(374,322,o),
(338,331,cs),
(247,351,l),
(194,359,o),
(138,377,o),
(96,403,cs),
(54,429,o),
(24,464,o),
(24,511,cs),
(24,562,o),
(47,596,o),
(83,617,cs),
(119,638,o),
(166,647,o),
(213,647,c),
(210,671,o),
(209,689,o),
(209,704,c),
(208,711,o),
(208,716,o),
(207,718,c),
(210,718,o),
(220,718,o),
(238,717,cs),
(256,716,o),
(278,714,o),
(305,712,cs),
(357,708,o),
(421,704,o),
(473,701,cs),
(498,699,o),
(520,697,o),
(538,696,cs),
(567,694,l),
(580,480,l),
(393,414,l),
(356,437,o),
(306,462,o),
(262,477,cs),
(217,492,o),
(178,497,o),
(163,477,cs),
(144,452,o),
(164,431,o),
(212,413,cs),
(260,395,o),
(335,381,o),
(427,369,cs),
(482,362,o),
(540,357,o),
(585,341,cs),
(629,324,o),
(662,297,o),
(667,245,cs),
(671,216,o),
(665,181,o),
(649,149,cs),
(633,117,o),
(608,87,o),
(576,64,cs),
(521,25,o),
(461,14,o),
(404,18,cs),
(347,21,o),
(294,39,o),
(251,58,cs),
(230,67,o),
(211,76,o),
(196,85,cs),
(180,93,o),
(169,98,o),
(162,101,c),
(108,86,l),
(108,88,o),
(107,95,o),
(104,106,cs),
(94,145,ls),
(86,175,o),
(77,212,o),
(70,242,cs),
(60,280,ls),
(57,291,o),
(56,297,o),
(56,298,c)
);
}
);
width = 648;
}
);
note = S;
unicode = 83;
},
{
glyphname = T;
layers = (
{
layerId = m01;
shapes = (
{
closed = 1;
nodes = (
(113,166,l),
(10,578,l),
(730,699,l),
(755,410,l),
(734,402,o),
(714,394,o),
(697,387,cs),
(682,381,o),
(667,375,o),
(653,370,cs),
(624,358,l),
(629,350,o),
(636,333,o),
(642,317,cs),
(648,301,o),
(653,285,o),
(657,281,c),
(766,281,l),
(773,208,l),
(771,207,o),
(763,204,o),
(748,197,cs),
(718,183,o),
(669,158,o),
(610,126,cs),
(551,94,o),
(490,56,o),
(434,15,cs),
(405,-6,o),
(380,-27,o),
(359,-48,c),
(342,6,o),
(330,59,o),
(321,112,cs),
(297,257,l),
(278,250,ls),
(262,245,o),
(246,239,o),
(234,235,cs),
(227,232,o),
(223,231,o),
(221,231,c),
(220,230,o),
(218,226,o),
(217,220,c),
(213,208,o),
(208,194,o),
(201,177,c)
);
}
);
width = 769;
}
);
note = T;
unicode = 84;
},
{
glyphname = U;
layers = (
{
layerId = m01;
shapes = (
{
closed = 1;
nodes = (
(12,551,o),
(29,612,o),
(48,653,cs),
(59,677,o),
(70,697,o),
(83,713,c),
(158,681,o),
(223,661,o),
(291,652,cs),
(359,643,o),
(429,643,o),
(510,648,c),
(516,575,l),
(492,562,o),
(472,551,o),
(456,541,cs),
(439,530,l),
(443,506,o),
(452,481,o),
(469,462,cs),
(485,443,o),
(508,432,o),
(539,436,cs),
(571,440,o),
(590,466,o),
(599,498,cs),
(608,530,o),
(608,567,o),
(603,592,c),
(804,639,l),
(829,571,o),
(843,514,o),
(843,454,cs),
(843,322,o),
(797,211,o),
(722,132,cs),
(646,52,o),
(543,6,o),
(427,6,cs),
(311,6,o),
(208,56,o),
(133,138,cs),
(57,220,o),
(12,334,o),
(12,466,cs)
);
}
);
width = 849;
}
);
note = U;
unicode = 85;
},
{
glyphname = V;
layers = (
{
layerId = m01;
shapes = (
{
closed = 1;
nodes = (
(224,259,l),
(9,560,l),
(348,707,l),
(375,649,o),
(399,595,o),
(422,546,cs),
(452,483,ls),
(461,462,o),
(470,442,o),
(479,423,cs),
(496,386,o),
(509,355,o),
(516,339,c),
(520,358,o),
(525,383,o),
(532,412,cs),
(545,470,o),
(558,536,o),
(567,603,cs),
(571,636,o),
(573,667,o),
(572,695,c),
(933,681,l),
(933,675,o),
(932,660,o),
(930,635,cs),
(926,585,o),
(919,517,o),
(911,450,cs),
(906,416,o),
(901,388,o),
(896,365,c),
(886,362,o),
(877,359,o),
(869,356,cs),
(862,353,o),
(855,351,o),
(849,350,cs),
(842,348,o),
(837,346,o),
(834,345,c),
(831,337,o),
(827,324,o),
(822,305,cs),
(777,168,ls),
(760,115,o),
(743,66,o),
(728,29,cs),
(721,10,o),
(715,-3,o),
(710,-12,c),
(684,-12,ls),
(655,-13,o),
(612,-14,o),
(561,-14,cs),
(510,-15,o),
(460,-15,o),
(417,-12,cs),
(396,-11,o),
(378,-9,o),
(365,-6,c),
(366,14,o),
(353,68,o),
(335,124,cs),
(317,179,o),
(293,235,o),
(274,262,c),
(270,261,o),
(257,259,o),
(246,259,cs)
);
}
);
width = 938;
}
);
note = V;
unicode = 86;
},
{
glyphname = W;
layers = (
{
layerId = m01;
shapes = (
{
closed = 1;
nodes = (
(673,711,l),
(1129,592,l),
(1126,567,o),
(1119,522,o),
(1111,479,cs),
(1102,435,o),
(1092,392,o),
(1084,368,c),
(1073,366,o),
(1064,364,o),
(1055,361,cs),
(1040,357,o),
(1024,353,o),
(1017,352,c),
(1014,331,o),
(1006,271,o),
(991,199,cs),
(976,126,o),
(956,42,o),
(928,-29,c),
(619,27,l),
(579,165,ls),
(568,201,o),
(558,237,o),
(550,268,cs),
(545,283,o),
(541,297,o),
(538,309,cs),
(535,320,o),
(532,328,o),
(531,333,c),
(497,273,ls),
(481,244,o),
(462,209,o),
(443,176,cs),
(371,47,l),
(253,62,l),
(253,62,o),
(251,68,o),
(248,80,cs),
(241,104,o),
(231,142,o),
(216,187,cs),
(201,232,o),
(185,278,o),
(169,316,cs),
(160,335,o),
(152,350,o),
(144,361,c),
(142,360,o),
(139,360,o),
(135,360,cs),
(121,358,ls),
(116,357,o),
(110,357,o),
(103,357,c),
(-20,483,l),
(-17,484,o),
(-9,488,o),
(4,494,cs),
(30,506,o),
(68,525,o),
(115,549,cs),
(162,572,o),
(211,599,o),
(256,624,cs),
(278,637,o),
(298,649,o),
(315,660,c),
(334,635,o),
(353,595,o),
(370,551,cs),
(386,507,o),
(401,457,o),
(410,413,c),
(422,442,o),
(435,480,o),
(447,517,cs),
(459,553,o),
(468,588,o),
(471,609,c),
(560,619,l),
(577,574,o),
(593,534,o),
(607,495,cs),
(614,475,o),
(619,458,o),
(624,445,c)
);
}
);
width = 1137;
}
);
note = W;
unicode = 87;
},
{
glyphname = X;
layers = (
{
layerId = m01;
shapes = (
{
closed = 1;
nodes = (
(229,668,l),
(288,632,o),
(349,595,o),
(425,539,c),
(445,559,o),
(483,590,o),
(521,621,cs),
(559,652,o),
(596,684,o),
(616,701,c),
(773,562,l),
(756,545,o),
(722,514,o),
(688,484,cs),
(654,454,o),
(621,422,o),
(606,405,c),
(610,402,o),
(616,398,o),
(624,391,cs),
(640,377,o),
(659,360,o),
(675,347,cs),
(691,333,l),
(731,371,l),
(761,400,l),
(846,224,l),
(567,-23,l),
(522,48,o),
(471,104,o),
(416,168,c),
(369,100,o),
(339,50,o),
(320,-10,c),
(317,-7,o),
(311,1,o),
(301,12,cs),
(280,35,o),
(249,68,o),
(211,108,cs),
(173,148,o),
(131,190,o),
(92,228,cs),
(72,247,o),
(53,263,o),
(36,278,c),
(59,279,o),
(80,279,o),
(99,280,cs),
(115,281,o),
(130,281,o),
(145,281,cs),
(170,281,l),
(200,314,l),
(238,357,l),
(187,402,o),
(145,436,o),
(98,464,c)
);
}
);
width = 868;
}
);
note = X;
unicode = 88;
},
{
glyphname = Y;
layers = (
{
layerId = m01;
shapes = (
{
closed = 1;
nodes = (
(63,610,l),
(86,611,o),
(146,620,o),
(210,631,cs),
(273,642,o),
(337,653,o),
(366,661,c),
(379,606,l),
(372,597,o),
(366,589,o),
(360,582,cs),
(355,575,o),
(350,569,o),
(346,564,cs),
(336,552,l),
(341,536,o),
(356,503,o),
(372,468,cs),
(396,418,l),
(413,380,l),
(428,395,o),
(453,424,o),
(479,456,cs),
(549,539,l),
(544,540,o),
(538,542,o),
(531,544,cs),
(518,548,o),
(504,551,o),
(487,555,c),
(487,623,l),
(551,622,o),
(618,630,o),
(683,638,cs),
(747,646,o),
(811,651,o),
(871,642,c),
(823,594,o),
(774,512,o),
(723,424,cs),
(698,379,o),
(672,334,o),
(647,287,cs),
(595,194,o),
(542,110,o),
(490,50,cs),
(438,-10,o),
(380,-37,o),
(300,-38,cs),
(220,-39,o),
(139,-19,o),
(66,17,cs),
(29,35,o),
(-3,55,o),
(-31,76,c),
(62,91,o),
(130,129,o),
(176,168,cs),
(199,187,o),
(216,205,o),
(229,222,cs),
(254,255,l),
(247,284,o),
(225,324,o),
(198,364,cs),
(170,404,o),
(138,444,o),
(113,474,cs),
(100,489,o),
(90,501,o),
(82,511,cs),
(73,520,o),
(69,525,o),
(68,526,c)
);
}
);
width = 882;
}
);
note = Y;
unicode = 89;
},
{
glyphname = Z;
layers = (
{
layerId = m01;
shapes = (
{
closed = 1;
nodes = (
(493,736,l),
(493,726,o),
(493,716,o),
(492,707,cs),
(491,699,o),
(491,691,o),
(491,684,cs),
(491,665,l),
(540,665,ls),
(583,665,o),
(636,667,o),
(692,671,cs),
(719,673,o),
(745,676,o),
(769,679,c),
(768,673,o),
(765,656,o),
(759,628,cs),
(746,571,o),
(701,475,o),
(610,347,cs),
(564,282,o),
(501,211,o),
(422,134,c),
(428,135,o),
(435,135,o),
(444,136,cs),
(453,136,o),
(461,136,o),
(470,137,cs),
(478,138,o),
(485,138,o),
(492,139,cs),
(503,139,l),
(520,156,ls),
(538,174,o),
(559,195,o),
(587,226,c),
(729,192,l),
(728,-1,l),
(723,-2,o),
(710,-3,o),
(688,-4,cs),
(643,-8,o),
(576,-11,o),
(495,-14,cs),
(454,-15,o),
(413,-16,o),
(372,-16,cs),
(289,-16,o),
(208,-13,o),
(145,-4,c),
(145,108,l),
(148,109,o),
(161,117,o),
(183,130,cs),
(226,156,o),
(285,201,o),
(340,262,cs),
(367,292,o),
(388,325,o),
(403,361,c),
(393,358,o),
(381,356,o),
(366,353,cs),
(337,347,o),
(304,337,o),
(272,322,cs),
(255,315,o),
(241,306,o),
(228,296,c),
(144,314,l),
(141,354,ls),
(136,402,o),
(124,472,o),
(101,546,cs),
(89,583,o),
(74,615,o),
(55,644,c)
);
}
);
width = 825;
}
);
note = Z;
unicode = 90;
},
{
glyphname = a;
layers = (
{
layerId = m01;
shapes = (
{
closed = 1;
nodes = (
(179,692,l),
(619,692,l),
(655,579,ls),
(679,498,o),
(705,426,o),
(727,376,cs),
(749,326,o),
(765,326,o),
(801,317,cs),
(836,308,o),
(870,299,o),
(895,295,cs),
(908,292,o),
(915,291,o),
(918,290,c),
(918,221,l),
(899,209,ls),
(877,195,o),
(842,172,o),
(801,144,cs),
(760,115,o),
(719,83,o),
(684,51,cs),
(666,34,o),
(651,18,o),
(639,3,c),
(616,15,o),
(596,33,o),
(580,50,cs),
(572,58,o),
(565,66,o),
(559,73,cs),
(545,89,l),
(543,89,o),
(539,88,o),
(533,85,cs),
(526,82,o),
(518,79,o),
(509,76,cs),
(489,68,o),
(465,59,o),
(441,48,cs),
(413,36,o),
(382,23,o),
(348,8,c),
(347,10,o),
(339,17,o),
(324,29,cs),
(292,52,o),
(235,82,o),
(153,110,cs),
(112,124,o),
(65,134,o),
(13,140,c),
(27,212,l),
(47,215,o),
(62,218,o),
(78,222,cs),
(85,223,o),
(91,225,o),
(94,226,c),
(99,246,o),
(115,302,o),
(141,367,cs),
(167,432,o),
(204,509,o),
(249,566,c),
(241,571,o),
(226,579,o),
(211,586,cs),
(203,590,o),
(195,595,o),
(186,600,c)
);
},
{
closed = 1;
nodes = (
(205,669,o),
(206,654,o),
(207,642,cs),
(208,629,o),
(211,618,o),
(212,614,c),
(216,611,o),
(240,598,o),
(263,587,cs),
(276,580,o),
(292,573,o),
(309,566,c),
(269,522,o),
(235,469,o),
(206,417,cs),
(177,364,o),
(154,313,o),
(138,274,cs),
(129,254,o),
(123,238,o),
(119,226,cs),
(114,213,o),
(112,206,o),
(111,205,c),
(63,195,l),
(48,191,l),
(48,161,l),
(137,150,o),
(213,128,o),
(270,105,cs),
(298,94,o),
(321,83,o),
(339,74,cs),
(357,65,o),
(369,58,o),
(376,55,c),
(377,55,o),
(381,56,o),
(387,58,cs),
(392,60,o),
(399,63,o),
(408,66,cs),
(425,72,o),
(449,80,o),
(470,88,cs),
(496,97,o),
(525,108,o),
(557,121,c),
(559,119,o),
(562,115,o),
(566,109,cs),
(574,97,o),
(586,82,o),
(602,67,cs),
(609,60,o),
(617,53,o),
(626,48,c),
(647,73,o),
(680,102,o),
(716,128,cs),
(752,154,o),
(791,178,o),
(824,198,cs),
(856,217,o),
(883,232,o),
(894,237,c),
(894,270,l),
(887,272,o),
(878,274,o),
(865,277,cs),
(840,281,o),
(810,288,o),
(782,297,cs),
(753,305,o),
(737,308,o),
(717,339,cs),
(697,370,o),
(675,415,o),
(655,467,cs),
(634,519,o),
(615,570,o),
(602,611,cs),
(586,658,l),
(554,660,l),
(486,663,ls),
(459,664,o),
(430,666,o),
(399,668,cs),
(368,669,o),
(338,671,o),
(311,672,cs),
(284,673,o),
(260,675,o),
(241,676,cs),
(221,677,o),
(209,677,o),
(205,677,c)
);
},
{
closed = 1;
nodes = (
(365,221,o),
(370,251,o),
(376,284,cs),
(382,317,o),
(389,355,o),
(397,388,cs),
(406,428,o),
(416,470,o),
(427,513,c),
(481,364,ls),
(504,300,o),
(527,234,o),
(538,198,c),
(502,198,ls),
(473,197,o),
(441,196,o),
(410,197,cs),
(394,197,o),
(379,198,o),
(365,200,c)
);
},
{
closed = 1;
nodes = (
(428,370,ls),
(425,353,o),
(423,335,o),
(420,318,cs),
(415,282,o),
(411,246,o),
(411,221,c),
(426,220,o),
(443,219,o),
(461,219,cs),
(479,219,o),
(493,220,o),
(504,221,c),
(496,245,o),
(483,281,o),
(471,317,cs),
(458,352,o),
(445,388,o),
(434,415,c)
);
}
);
width = 888;
}
);
note = a;
unicode = 97;
},
{
glyphname = b;
layers = (
{
layerId = m01;
shapes = (
{
closed = 1;
nodes = (
(-10,706,l),
(16,703,o),
(46,701,o),
(81,700,cs),
(149,697,o),
(225,694,o),
(301,690,cs),
(377,685,o),
(446,677,o),
(500,666,cs),
(554,654,o),
(592,634,o),
(635,578,cs),
(656,550,o),
(670,513,o),
(675,468,c),
(675,397,o),
(657,334,o),
(596,266,c),
(623,241,o),
(648,200,o),
(648,157,cs),
(648,112,o),
(623,73,o),
(573,41,cs),
(521,5,o),
(444,-6,o),
(370,-6,cs),
(296,-6,o),
(223,6,o),
(182,14,c),
(182,31,ls),
(181,41,o),
(181,53,o),
(181,68,cs),
(180,97,o),
(179,135,o),
(177,168,cs),
(175,201,o),
(173,232,o),
(169,248,c),
(168,249,o),
(163,251,o),
(155,253,cs),
(146,255,o),
(137,257,o),
(128,260,cs),
(92,270,l),
(91,271,o),
(90,280,o),
(87,297,cs),
(82,330,o),
(72,381,o),
(58,441,cs),
(44,500,o),
(27,558,o),
(5,606,cs),
(-6,629,o),
(-18,647,o),
(-30,660,c)
);
},
{
closed = 1;
nodes = (
(524,635,o),
(479,645,o),
(425,651,cs),
(371,657,o),
(308,660,o),
(248,661,cs),
(178,663,o),
(103,663,o),
(24,660,c),
(45,635,o),
(64,590,o),
(79,541,cs),
(94,492,o),
(105,438,o),
(113,392,cs),
(124,331,ls),
(127,314,o),
(129,301,o),
(131,293,c),
(136,292,o),
(151,285,o),
(164,278,cs),
(171,275,o),
(180,271,o),
(189,266,c),
(191,255,o),
(194,238,o),
(197,216,cs),
(200,194,o),
(204,171,o),
(208,147,cs),
(216,99,o),
(223,51,o),
(224,31,c),
(257,24,o),
(320,16,o),
(385,17,cs),
(450,18,o),
(518,28,o),
(565,60,cs),
(605,88,o),
(629,114,o),
(629,161,cs),
(629,174,o),
(620,198,o),
(607,220,cs),
(594,242,o),
(574,263,o),
(553,275,c),
(588,308,o),
(612,334,o),
(628,362,cs),
(644,390,o),
(651,421,o),
(651,465,c),
(639,548,o),
(596,593,o),
(549,622,c)
);
},
{
closed = 1;
nodes = (
(360,437,l),
(413,416,o),
(438,391,o),
(445,362,c),
(446,346,o),
(445,330,o),
(437,315,cs),
(429,300,o),
(414,286,o),
(389,277,c)
);
},
{
closed = 1;
nodes = (
(387,396,o),
(390,383,o),
(393,368,cs),
(396,353,o),
(398,341,o),
(399,332,c),
(406,339,o),
(413,348,o),
(413,359,cs),
(413,378,o),
(402,396,o),
(385,408,c)
);
},
{
closed = 1;
nodes = (
(396,248,l),
(392,270,l),
(413,262,ls),
(441,251,o),
(462,227,o),
(469,202,cs),
(476,171,o),
(462,143,o),
(417,126,c)
);
},
{
closed = 1;
nodes = (
(417,227,o),
(420,207,o),
(423,188,c),
(442,195,o),
(442,207,o),
(437,219,cs),
(432,231,o),
(420,244,o),
(409,251,c)
);
}
);
width = 658;
}
);
note = b;
unicode = 98;
},
{
glyphname = c;
layers = (
{
layerId = m01;
shapes = (
{
closed = 1;
nodes = (
(122,690,o),
(166,691,o),
(210,694,cs),
(254,697,o),
(299,701,o),
(339,705,cs),
(386,710,o),
(433,715,o),
(480,722,c),
(616,353,l),
(601,336,o),
(568,327,o),
(530,319,cs),
(511,315,o),
(491,311,o),
(471,308,cs),
(430,301,o),
(396,292,o),
(376,280,cs),
(355,267,o),
(360,246,o),
(369,234,cs),
(377,222,o),
(396,217,o),
(422,225,cs),
(435,228,o),
(450,236,o),
(467,249,c),
(600,183,l),
(600,182,o),
(595,176,o),
(585,163,cs),
(564,137,o),
(526,99,o),
(474,63,cs),
(422,26,o),
(357,0,o),
(285,-1,cs),
(213,-2,o),
(144,32,o),
(109,64,cs),
(74,95,o),
(52,133,o),
(40,177,cs),
(27,221,o),
(17,279,o),
(25,328,cs),
(33,377,o),
(48,422,o),
(65,466,cs),
(82,509,o),
(95,554,o),
(96,606,cs),
(97,631,o),
(93,659,o),
(85,690,c)
);
},
{
closed = 1;
nodes = (
(413,677,o),
(363,672,o),
(317,668,cs),
(278,664,o),
(238,662,o),
(203,660,cs),
(168,658,o),
(141,657,o),
(126,658,c),
(133,601,o),
(126,558,o),
(115,520,cs),
(109,501,o),
(102,482,o),
(95,465,cs),
(79,430,o),
(66,394,o),
(56,351,cs),
(46,308,o),
(47,260,o),
(57,217,cs),
(67,173,o),
(90,132,o),
(131,97,cs),
(171,61,o),
(243,30,o),
(299,27,cs),
(355,23,o),
(404,37,o),
(442,62,cs),
(480,86,o),
(509,114,o),
(528,138,cs),
(549,166,l),
(544,169,o),
(526,180,o),
(510,192,cs),
(493,204,o),
(476,216,o),
(471,221,c),
(440,198,o),
(398,192,o),
(371,199,cs),
(351,204,o),
(337,216,o),
(329,228,cs),
(324,234,o),
(321,240,o),
(319,245,cs),
(317,250,o),
(316,253,o),
(316,254,cs),
(309,281,o),
(330,297,o),
(362,309,cs),
(393,320,o),
(436,327,o),
(476,333,cs),
(515,339,o),
(551,344,o),
(568,353,c),
(567,356,o),
(563,365,o),
(558,382,cs),
(547,414,o),
(533,462,o),
(517,515,cs),
(495,591,l),
(476,652,ls),
(471,669,o),
(467,679,o),
(466,682,c)
);
}
);
width = 612;
}
);
note = c;
unicode = 99;
},
{
glyphname = d;
layers = (
{
layerId = m01;
shapes = (
{
closed = 1;
nodes = (
(23,672,l),
(434,702,l),
(451,678,ls),
(470,651,o),
(497,610,o),
(528,558,cs),
(559,505,o),
(587,445,o),
(608,382,cs),
(628,319,o),
(635,258,o),
(624,202,cs),
(612,146,o),
(567,92,o),
(512,59,cs),
(457,26,o),
(397,10,o),
(335,7,cs),
(273,4,o),
(212,10,o),
(159,19,cs),
(87,32,l),
(43,345,l),
(62,361,ls),
(66,364,o),
(69,367,o),
(72,370,cs),
(84,382,l),
(83,384,o),
(82,390,o),
(81,399,cs),
(79,408,o),
(77,419,o),
(75,432,cs),
(73,445,o),
(71,459,o),
(68,474,cs),
(56,552,ls),
(55,562,o),
(54,568,o),
(54,571,c),
(47,571,o),
(36,572,o),
(27,573,cs),
(22,574,o),
(16,574,o),
(10,574,c)
);
},
{
closed = 1;
nodes = (
(344,677,o),
(285,672,o),
(232,667,cs),
(209,665,o),
(187,663,o),
(166,662,cs),
(144,660,o),
(124,658,o),
(107,657,cs),
(89,655,o),
(74,654,o),
(63,653,cs),
(52,652,o),
(45,652,o),
(43,652,c),
(43,647,o),
(43,632,o),
(40,619,c),
(37,594,l),
(84,591,l),
(107,375,l),
(84,348,l),
(98,208,ls),
(100,190,o),
(102,173,o),
(103,156,cs),
(104,139,o),
(106,123,o),
(107,110,cs),
(110,76,ls),
(111,67,o),
(111,61,o),
(111,59,c),
(143,47,o),
(208,37,o),
(280,39,cs),
(352,41,o),
(432,55,o),
(494,91,cs),
(556,126,o),
(599,181,o),
(599,268,cs),
(599,309,o),
(588,357,o),
(570,403,cs),
(552,449,o),
(529,496,o),
(505,537,cs),
(478,586,o),
(446,634,o),
(411,682,c)
);
},
{
closed = 1;
nodes = (
(261,432,l),
(284,423,o),
(317,395,o),
(343,362,cs),
(369,329,o),
(388,290,o),
(380,257,cs),
(373,230,o),
(346,204,o),
(289,197,c)
);
},
{
closed = 1;
nodes = (
(290,382,o),
(295,348,o),
(300,314,cs),
(306,267,ls),
(308,252,o),
(309,242,o),
(310,237,c),
(325,242,o),
(339,250,o),
(350,259,cs),
(361,268,o),
(367,281,o),
(364,294,cs),
(351,350,o),
(317,377,o),
(286,397,c)
);
}
);
width = 634;
}
);
note = d;
unicode = 100;
},
{
glyphname = e;
layers = (
{
layerId = m01;
shapes = (
{
closed = 1;
nodes = (
(107,684,l),
(158,659,o),
(219,655,o),
(274,651,cs),
(345,648,o),
(414,639,o),
(466,611,cs),
(517,582,o),
(550,535,o),
(550,455,cs),
(550,416,o),
(531,363,o),
(496,304,c),
(503,303,o),
(508,301,o),
(512,300,c),
(515,298,o),
(520,296,o),
(525,295,c),
(528,303,l),
(528,306,o),
(528,308,o),
(529,311,cs),
(531,321,l),
(618,340,l),
(611,80,l),
(609,77,o),
(600,70,o),
(583,58,cs),
(549,33,o),
(494,5,o),
(429,-14,cs),
(396,-23,o),
(363,-26,o),
(329,-23,cs),
(288,-20,o),
(256,-11,o),
(232,-1,cs),
(219,4,o),
(208,9,o),
(197,15,cs),
(176,27,o),
(148,41,o),
(130,47,cs),
(112,53,o),
(97,55,o),
(81,59,cs),
(73,60,o),
(62,63,o),
(49,67,c),
(76,158,o),
(83,252,o),
(75,340,cs),
(67,428,o),
(43,508,o),
(4,571,c)
);
},
{
closed = 1;
nodes = (
(112,652,o),
(108,647,o),
(103,640,cs),
(97,632,o),
(91,624,o),
(85,615,cs),
(78,606,o),
(72,597,o),
(67,590,cs),
(61,582,o),
(57,577,o),
(56,574,c),
(97,499,o),
(113,389,o),
(113,282,cs),
(113,214,o),
(97,151,o),
(85,92,c),
(124,80,o),
(149,67,o),
(174,51,cs),
(185,45,o),
(195,39,o),
(205,34,cs),
(224,22,o),
(247,11,o),
(276,4,cs),
(305,-4,o),
(356,-14,o),
(412,4,cs),
(467,22,o),
(513,49,o),
(545,74,cs),
(576,99,l),
(576,100,o),
(576,106,o),
(577,116,cs),
(578,136,o),
(581,166,o),
(585,199,cs),
(593,287,ls),
(594,299,o),
(594,307,o),
(595,311,c),
(579,308,o),
(561,304,o),
(550,301,c),
(549,299,o),
(549,296,o),
(548,292,cs),
(547,287,o),
(545,283,o),
(544,279,cs),
(541,263,l),
(457,279,l),
(509,362,o),
(518,415,o),
(518,452,cs),
(518,471,o),
(514,493,o),
(505,516,cs),
(496,539,o),
(481,562,o),
(460,578,cs),
(433,598,o),
(397,610,o),
(363,618,cs),
(329,625,o),
(295,628,o),
(274,629,cs),
(218,632,o),
(162,635,o),
(113,655,c)
);
},
{
closed = 1;
nodes = (
(367,284,o),
(324,316,o),
(299,358,cs),
(274,400,o),
(266,451,o),
(271,488,c),
(338,464,o),
(374,433,o),
(396,399,cs),
(418,365,o),
(424,325,o),
(428,285,c)
);
},
{
closed = 1;
nodes = (
(291,436,o),
(296,405,o),
(312,380,cs),
(328,355,o),
(354,333,o),
(399,324,c),
(395,351,o),
(387,378,o),
(371,402,cs),
(355,426,o),
(330,448,o),
(290,465,c)
);
}
);
width = 616;
}
);
note = e;
unicode = 101;
},
{
glyphname = f;
layers = (
{
layerId = m01;
shapes = (
{
closed = 1;
nodes = (
(531,715,l),
(607,693,o),
(680,649,o),
(749,583,c),
(611,360,l),
(580,384,o),
(558,403,o),
(534,412,cs),
(510,421,o),
(484,422,o),
(448,413,c),
(455,354,l),
(460,354,o),
(467,355,o),
(478,356,cs),
(489,357,o),
(500,359,o),
(511,360,cs),
(524,362,o),
(539,364,o),
(555,365,c),
(562,246,l),
(521,219,ls),
(500,204,o),
(479,191,o),
(472,187,c),
(474,173,ls),
(476,158,o),
(480,137,o),
(485,110,cs),
(488,97,o),
(490,83,o),
(493,69,cs),
(500,37,o),
(507,1,o),
(514,-38,c),
(389,13,o),
(303,14,o),
(243,3,cs),
(222,0,o),
(197,-2,o),
(167,-2,cs),
(136,-2,o),
(102,3,o),
(65,13,c),
(69,28,l),
(84,63,o),
(97,114,o),
(106,166,cs),
(114,218,o),
(118,272,o),
(111,312,cs),
(100,376,o),
(78,425,o),
(56,460,cs),
(45,477,o),
(34,491,o),
(24,501,cs),
(14,510,o),
(7,516,o),
(3,518,c),
(93,674,l),
(120,653,o),
(148,646,o),
(178,647,cs),
(193,647,o),
(208,648,o),
(223,651,cs),
(238,654,o),
(254,656,o),
(271,659,cs),
(334,670,o),
(399,681,o),
(483,674,c)
);
},
{
closed = 1;
nodes = (
(401,656,o),
(337,646,o),
(277,635,cs),
(212,624,o),
(152,615,o),
(103,638,c),
(98,630,o),
(85,602,o),
(73,575,cs),
(57,539,ls),
(52,528,o),
(50,521,o),
(49,518,c),
(57,507,o),
(74,485,o),
(91,452,cs),
(107,419,o),
(126,373,o),
(135,316,cs),
(139,291,o),
(142,257,o),
(142,225,cs),
(142,156,o),
(131,80,o),
(118,24,c),
(163,13,o),
(202,20,o),
(239,28,cs),
(267,33,o),
(298,38,o),
(335,37,cs),
(372,36,o),
(414,29,o),
(465,10,c),
(465,26,o),
(461,72,o),
(457,115,cs),
(448,197,l),
(537,260,l),
(531,337,l),
(527,336,o),
(520,335,o),
(509,335,cs),
(476,332,l),
(434,329,l),
(409,444,l),
(456,456,o),
(492,454,o),
(524,444,cs),
(555,434,o),
(580,415,o),
(604,396,c),
(606,399,o),
(610,406,o),
(617,416,cs),
(623,425,o),
(630,437,o),
(638,450,cs),
(645,463,o),
(654,476,o),
(663,491,cs),
(681,519,o),
(696,544,o),
(708,563,cs),
(718,580,l),
(662,628,o),
(601,662,o),
(537,677,c),
(536,676,o),
(534,675,o),
(529,672,cs),
(524,669,o),
(518,665,o),
(512,662,cs),
(505,658,o),
(497,654,o),
(489,649,c)
);
}
);
width = 736;
}
);
note = f;
unicode = 102;
},
{
glyphname = g;
layers = (
{
layerId = m01;
shapes = (
{
closed = 1;
nodes = (
(77,662,o),
(150,695,o),
(244,705,cs),
(291,710,o),
(342,710,o),
(398,707,cs),
(453,703,o),
(511,699,o),
(572,696,c),
(700,702,l),
(649,487,l),
(612,495,o),
(564,503,o),
(521,502,cs),
(478,501,o),
(442,491,o),
(429,464,cs),
(420,444,o),
(422,417,o),
(435,393,cs),
(447,369,o),
(470,349,o),
(502,344,c),
(503,430,l),
(703,426,l),
(702,363,o),
(722,295,o),
(750,231,cs),
(778,167,o),
(814,109,o),
(845,63,cs),
(860,40,o),
(874,21,o),
(886,6,cs),
(897,-9,o),
(905,-19,o),
(909,-23,c),
(160,2,l),
(176,86,l),
(209,101,ls),
(218,105,o),
(228,109,o),
(238,114,cs),
(247,118,o),
(255,121,o),
(260,122,c),
(245,135,o),
(227,152,o),
(206,171,cs),
(162,210,o),
(118,258,o),
(78,314,cs),
(38,369,o),
(13,428,o),
(12,490,cs),
(11,521,o),
(19,551,o),
(34,581,cs)
);
},
{
closed = 1;
nodes = (
(223,82,l),
(222,77,o),
(220,71,o),
(218,64,cs),
(212,42,l),
(215,41,o),
(226,41,o),
(245,40,cs),
(264,39,o),
(287,37,o),
(315,36,cs),
(343,34,o),
(375,32,o),
(410,31,cs),
(517,25,ls),
(590,21,o),
(664,18,o),
(724,15,cs),
(799,12,ls),
(819,11,o),
(832,10,o),
(839,9,c),
(815,38,o),
(774,94,o),
(735,162,cs),
(695,230,o),
(660,310,o),
(649,387,c),
(640,390,o),
(614,391,o),
(590,392,cs),
(532,394,l),
(523,314,l),
(479,318,o),
(436,338,o),
(409,369,cs),
(382,400,o),
(371,440,o),
(392,483,cs),
(411,519,o),
(458,530,o),
(506,531,cs),
(554,532,o),
(605,524,o),
(626,520,c),
(629,528,o),
(633,559,o),
(638,591,cs),
(640,607,o),
(642,622,o),
(645,637,cs),
(647,651,o),
(648,661,o),
(649,666,c),
(640,666,o),
(620,667,o),
(601,668,cs),
(590,669,o),
(579,669,o),
(568,670,cs),
(489,675,o),
(406,680,o),
(330,676,cs),
(253,671,o),
(183,658,o),
(132,627,cs),
(81,595,o),
(50,547,o),
(50,471,cs),
(50,403,o),
(94,332,o),
(147,269,cs),
(200,205,o),
(266,149,o),
(307,112,c)
);
}
);
width = 875;
}
);
note = g;
unicode = 103;
},
{
glyphname = h;
layers = (
{
layerId = m01;
shapes = (
{
closed = 1;
nodes = (
(319,662,l),
(329,424,l),
(384,429,l),
(384,680,l),
(647,710,l),
(659,656,o),
(670,603,o),
(680,552,cs),
(700,449,o),
(719,364,o),
(737,305,cs),
(746,275,o),
(755,255,o),
(766,244,cs),
(779,231,o),
(798,229,o),
(815,233,cs),
(823,234,o),
(830,236,o),
(837,239,cs),
(843,242,o),
(847,243,o),
(848,244,c),
(914,159,l),
(553,-67,l),
(550,-64,o),
(537,-53,o),
(512,-33,cs),
(487,-14,o),
(452,8,o),
(409,33,c),
(405,266,l),
(338,252,l),
(351,63,l),
(223,130,o),
(101,181,o),
(5,204,c),
(14,319,l),
(41,323,o),
(72,336,o),
(72,357,cs),
(71,390,o),
(59,447,o),
(44,506,cs),
(20,594,ls),
(11,623,o),
(4,649,o),
(-2,671,c)
);
},
{
closed = 1;
nodes = (
(623,674,o),
(616,673,o),
(605,672,cs),
(582,669,o),
(550,666,o),
(515,663,cs),
(480,659,o),
(448,656,o),
(426,653,cs),
(415,651,o),
(408,650,o),
(405,649,c),
(407,599,ls),
(408,586,o),
(408,573,o),
(409,558,cs),
(409,543,o),
(409,528,o),
(410,513,cs),
(411,478,o),
(413,440,o),
(414,398,c),
(308,381,l),
(307,423,o),
(305,461,o),
(303,496,cs),
(302,525,o),
(300,557,o),
(300,582,cs),
(299,594,o),
(299,605,o),
(299,614,cs),
(298,623,o),
(298,629,o),
(298,632,c),
(41,632,l),
(49,603,o),
(61,553,o),
(72,501,cs),
(83,449,o),
(92,396,o),
(93,357,cs),
(93,336,o),
(84,321,o),
(73,311,cs),
(61,301,o),
(49,294,o),
(41,291,c),
(41,231,l),
(120,207,o),
(212,173,o),
(317,116,c),
(317,174,ls),
(317,193,o),
(317,211,o),
(316,226,cs),
(315,244,o),
(315,262,o),
(314,279,c),
(429,306,l),
(441,50,l),
(532,-12,l),
(556,-30,l),
(557,-29,o),
(563,-26,o),
(572,-19,cs),
(590,-7,o),
(618,11,o),
(654,34,cs),
(671,45,o),
(689,57,o),
(707,68,cs),
(852,159,l),
(836,204,l),
(808,192,o),
(787,187,o),
(764,191,cs),
(741,195,o),
(730,218,o),
(716,257,cs),
(702,296,o),
(688,345,o),
(677,398,cs),
(671,425,o),
(665,451,o),
(660,477,cs),
(648,538,o),
(637,604,o),
(626,675,c)
);
}
);
width = 885;
}
);
note = h;
unicode = 104;
},
{
glyphname = i;
layers = (
{
layerId = m01;
shapes = (
{
closed = 1;
nodes = (
(236,689,o),
(263,707,o),
(300,714,cs),
(336,721,o),
(384,717,o),
(432,701,cs),
(507,676,o),
(551,636,o),
(568,600,cs),
(584,563,o),
(575,528,o),
(541,508,cs),
(507,488,o),
(448,484,o),
(369,509,cs),
(322,525,o),
(282,549,o),
(257,577,cs),
(232,604,o),
(220,634,o),
(228,662,cs)
);
},
{
closed = 1;
nodes = (
(410,519,o),
(444,513,o),
(471,516,cs),
(498,519,o),
(517,529,o),
(522,545,cs),
(526,556,o),
(526,568,o),
(522,579,cs),
(510,615,o),
(475,650,o),
(427,673,cs),
(390,692,o),
(356,697,o),
(329,694,cs),
(302,691,o),
(285,681,o),
(278,666,c),
(267,630,o),
(301,572,o),
(373,536,cs)
);
},
{
closed = 1;
nodes = (
(98,599,l),
(561,380,l),
(552,353,o),
(545,310,o),
(542,266,cs),
(538,221,o),
(540,175,o),
(545,143,c),
(549,142,o),
(557,139,o),
(570,136,cs),
(583,132,o),
(596,128,o),
(610,123,cs),
(627,118,o),
(644,112,o),
(663,106,c),
(687,-15,l),
(129,-15,l),
(113,5,o),
(95,44,o),
(83,93,cs),
(70,141,o),
(60,199,o),
(57,256,cs),
(54,312,o),
(59,368,o),
(74,412,c),
(71,419,o),
(53,435,o),
(36,451,cs),
(26,460,o),
(15,471,o),
(4,482,c)
);
},
{
closed = 1;
nodes = (
(147,547,l),
(110,563,l),
(106,555,o),
(96,539,o),
(85,521,cs),
(73,503,o),
(63,486,o),
(59,478,c),
(63,474,o),
(75,461,o),
(86,446,cs),
(93,438,o),
(99,429,o),
(106,419,c),
(89,379,o),
(86,325,o),
(93,269,cs),
(100,212,o),
(115,155,o),
(131,108,cs),
(146,60,o),
(161,25,o),
(169,13,c),
(636,13,l),
(636,88,l),
(628,91,o),
(596,98,o),
(565,105,cs),
(506,119,l),
(498,167,o),
(496,207,o),
(500,247,cs),
(504,286,o),
(513,324,o),
(529,369,c),
(526,370,o),
(514,376,o),
(493,386,cs),
(472,395,o),
(446,407,o),
(416,421,cs)
);
}
);
width = 687;
}
);
note = i;
unicode = 105;
},
{
glyphname = j;
layers = (
{
layerId = m01;
shapes = (
{
closed = 1;
nodes = (
(38,664,l),
(601,721,l),
(601,720,o),
(603,712,o),
(608,697,cs),
(616,666,o),
(627,615,o),
(638,551,cs),
(649,486,o),
(654,417,o),
(649,350,cs),
(646,317,o),
(640,286,o),
(630,258,c),
(684,233,l),
(675,202,ls),
(663,166,o),
(639,119,o),
(598,72,cs),
(557,25,o),
(503,3,o),
(447,-7,cs),
(390,-17,o),
(324,-19,o),
(256,-12,cs),
(187,-5,o),
(121,7,o),
(64,27,cs),
(35,37,o),
(10,48,o),
(-11,60,c),
(10,97,o),
(36,156,o),
(56,216,cs),
(75,276,o),
(89,338,o),
(85,378,c),
(199,391,l),
(192,340,o),
(187,300,o),
(183,264,cs),
(177,222,l),
(192,234,o),
(210,255,o),
(226,287,cs),
(241,319,o),
(252,363,o),
(252,420,cs),
(252,492,o),
(219,534,o),
(176,559,cs),
(133,583,o),
(84,592,o),
(49,597,c)
);
},
{
closed = 1;
nodes = (
(520,687,l),
(435,680,ls),
(401,677,o),
(365,675,o),
(326,672,cs),
(217,663,ls),
(183,660,o),
(154,658,o),
(130,657,cs),
(89,654,l),
(96,618,l),
(121,615,o),
(166,606,o),
(204,577,cs),
(242,548,o),
(274,500,o),
(274,417,cs),
(274,332,o),
(249,274,o),
(222,236,cs),
(208,217,o),
(195,202,o),
(182,192,cs),
(169,182,o),
(161,176,o),
(156,173,c),
(159,206,o),
(162,237,o),
(165,264,cs),
(166,276,o),
(168,288,o),
(169,300,cs),
(170,311,o),
(172,322,o),
(173,332,cs),
(176,357,ls),
(177,364,o),
(177,368,o),
(177,371,c),
(102,360,l),
(113,280,o),
(84,176,o),
(35,63,c),
(87,38,o),
(176,18,o),
(265,12,cs),
(354,6,o),
(446,13,o),
(503,38,cs),
(554,63,o),
(587,100,o),
(609,133,cs),
(631,166,o),
(641,198,o),
(645,211,c),
(591,238,l),
(619,275,o),
(627,334,o),
(625,396,cs),
(623,458,o),
(610,523,o),
(596,578,cs),
(582,633,o),
(566,674,o),
(558,689,c)
);
}
);
width = 690;
}
);
note = j;
unicode = 106;
},
{
glyphname = k;
layers = (
{
layerId = m01;
shapes = (
{
closed = 1;
nodes = (
(113,613,l),
(154,691,l),
(202,655,o),
(260,642,o),
(308,637,cs),
(332,634,o),
(353,634,o),
(371,635,cs),
(388,636,o),
(399,636,o),
(403,636,c),
(399,611,o),
(396,583,o),
(396,557,cs),
(396,531,o),
(398,508,o),
(399,493,c),
(415,517,o),
(433,540,o),
(450,560,cs),
(458,569,o),
(465,578,o),
(472,585,cs),
(478,592,o),
(482,598,o),
(485,602,c),
(485,656,l),
(567,692,l),
(689,543,l),
(668,524,o),
(643,499,o),
(624,476,cs),
(604,453,o),
(588,432,o),
(583,420,c),
(622,376,o),
(668,369,o),
(708,377,cs),
(748,384,o),
(781,404,o),
(792,412,c),
(793,414,o),
(795,419,o),
(797,427,cs),
(798,435,o),
(800,443,o),
(802,452,cs),
(805,462,o),
(807,473,o),
(809,485,c),
(904,478,l),
(915,411,o),
(919,335,o),
(924,258,cs),
(928,181,o),
(933,101,o),
(945,28,c),
(786,-8,o),
(693,-20,o),
(638,-22,cs),
(610,-23,o),
(591,-22,o),
(580,-19,cs),
(569,-16,o),
(561,-13,o),
(558,-10,cs),
(543,2,o),
(513,40,o),
(481,84,cs),
(465,106,o),
(449,128,o),
(433,151,cs),
(392,207,l),
(392,-33,l),
(289,-14,o),
(218,32,o),
(157,75,cs),
(113,110,o),
(56,133,o),
(-3,149,c),
(55,265,l),
(64,264,o),
(73,264,o),
(81,263,cs),
(96,262,o),
(111,261,o),
(119,261,c),
(119,320,o),
(127,387,o),
(136,446,cs),
(145,505,o),
(155,554,o),
(160,571,c),
(155,575,o),
(144,584,o),
(133,595,cs)
);
},
{
closed = 1;
nodes = (
(160,640,o),
(154,625,o),
(150,617,c),
(184,578,l),
(181,560,ls),
(176,538,o),
(170,501,o),
(163,455,cs),
(156,409,o),
(150,357,o),
(146,305,cs),
(144,279,o),
(143,254,o),
(143,230,c),
(132,231,o),
(121,233,o),
(111,234,cs),
(94,237,o),
(75,238,o),
(68,238,c),
(41,172,l),
(85,160,o),
(126,129,o),
(171,98,cs),
(230,59,o),
(289,17,o),
(369,1,c),
(369,300,l),
(389,269,ls),
(400,254,o),
(414,236,o),
(431,214,cs),
(464,170,o),
(501,125,o),
(531,89,cs),
(546,71,o),
(557,59,o),
(565,52,c),
(568,51,o),
(574,48,o),
(585,42,cs),
(596,36,o),
(614,31,o),
(639,28,cs),
(689,20,o),
(769,21,o),
(901,52,c),
(899,79,o),
(898,109,o),
(898,141,cs),
(897,172,o),
(896,205,o),
(894,238,cs),
(891,278,o),
(890,317,o),
(891,354,cs),
(892,391,o),
(889,423,o),
(884,451,c),
(873,454,o),
(839,458,o),
(826,458,c),
(823,451,o),
(822,431,o),
(821,412,cs),
(820,401,o),
(820,390,o),
(819,377,c),
(818,376,o),
(814,374,o),
(805,370,cs),
(787,361,o),
(756,350,o),
(719,346,cs),
(682,341,o),
(641,346,o),
(602,367,cs),
(582,378,o),
(563,394,o),
(546,416,c),
(558,435,ls),
(569,454,o),
(585,480,o),
(605,507,cs),
(615,520,o),
(625,532,o),
(635,543,c),
(627,551,o),
(607,575,o),
(588,597,cs),
(562,628,ls),
(554,638,o),
(549,644,o),
(546,647,c),
(510,636,l),
(508,590,l),
(493,569,o),
(478,547,o),
(463,525,cs),
(450,506,o),
(436,487,o),
(421,466,cs),
(406,445,o),
(392,425,o),
(379,408,c),
(378,419,o),
(376,433,o),
(374,450,cs),
(370,483,o),
(368,520,o),
(368,556,cs),
(368,574,o),
(369,590,o),
(372,605,c),
(353,605,o),
(320,605,o),
(282,611,cs),
(244,617,o),
(201,628,o),
(164,652,c)
);
}
);
width = 952;
}
);
note = k;
unicode = 107;
},
{
glyphname = l;
layers = (
{
layerId = m01;
shapes = (
{
closed = 1;
nodes = (
(79,472,l),
(39,487,l),
(-17,509,l),
(47,656,l),
(68,648,o),
(112,648,o),
(165,653,cs),
(217,657,o),
(277,667,o),
(332,679,cs),
(387,690,o),
(434,703,o),
(462,715,c),
(498,636,o),
(496,557,o),
(495,481,cs),
(494,404,o),
(491,331,o),
(526,260,c),
(519,297,o),
(518,342,o),
(521,378,cs),
(522,396,o),
(524,412,o),
(527,425,cs),
(530,438,o),
(532,446,o),
(534,449,c),
(655,461,l),
(668,417,o),
(699,361,o),
(735,306,cs),
(770,250,o),
(808,195,o),
(840,153,cs),
(855,132,o),
(868,114,o),
(879,101,cs),
(889,88,o),
(895,80,o),
(896,78,c),
(827,-38,l),
(776,-9,o),
(715,7,o),
(651,14,cs),
(586,21,o),
(517,18,o),
(453,11,cs),
(382,4,o),
(306,-2,o),
(230,3,cs),
(154,7,o),
(78,22,o),
(10,61,c),
(67,173,l),
(104,188,o),
(126,220,o),
(135,257,cs),
(144,294,o),
(142,338,o),
(134,376,cs),
(126,414,o),
(113,447,o),
(100,463,c)
);
},
{
closed = 1;
nodes = (
(384,644,o),
(313,623,o),
(245,610,cs),
(177,597,o),
(109,593,o),
(65,613,c),
(63,607,o),
(61,600,o),
(58,592,cs),
(53,575,o),
(47,556,o),
(41,540,cs),
(38,532,o),
(35,526,o),
(34,522,c),
(43,518,o),
(69,511,o),
(93,504,cs),
(139,491,l),
(152,476,o),
(169,442,o),
(179,401,cs),
(189,360,o),
(192,310,o),
(183,265,cs),
(174,220,o),
(151,178,o),
(106,153,c),
(105,152,o),
(103,149,o),
(100,142,cs),
(97,135,o),
(93,128,o),
(89,120,cs),
(84,111,o),
(80,103,o),
(76,94,cs),
(71,85,o),
(68,78,o),
(65,73,c),
(121,45,o),
(185,34,o),
(250,32,cs),
(315,30,o),
(384,35,o),
(451,42,cs),
(515,47,o),
(578,53,o),
(636,51,cs),
(694,49,o),
(747,38,o),
(794,13,c),
(797,17,o),
(800,23,o),
(804,30,cs),
(812,45,o),
(821,60,o),
(829,73,cs),
(838,88,l),
(827,100,o),
(804,130,o),
(777,167,cs),
(750,203,o),
(719,248,o),
(691,294,cs),
(663,340,o),
(638,384,o),
(625,423,c),
(592,423,ls),
(579,423,o),
(566,422,o),
(558,421,c),
(549,362,o),
(545,273,o),
(582,150,c),
(517,206,o),
(487,264,o),
(475,322,cs),
(462,380,o),
(464,439,o),
(464,496,cs),
(464,552,o),
(460,608,o),
(433,660,c)
);
}
);
width = 862;
}
);
note = l;
unicode = 108;
},
{
glyphname = m;
layers = (
{
layerId = m01;
shapes = (
{
closed = 1;
nodes = (
(995,725,l),
(995,560,l),
(991,561,o),
(985,564,o),
(978,567,cs),
(962,573,o),
(942,577,o),
(922,581,cs),
(911,583,o),
(901,584,o),
(891,583,c),
(895,550,o),
(921,483,o),
(961,408,cs),
(1001,332,o),
(1056,249,o),
(1120,184,c),
(1059,168,o),
(976,134,o),
(894,95,cs),
(812,55,o),
(732,14,o),
(677,-17,c),
(622,113,l),
(650,143,ls),
(665,158,o),
(679,175,o),
(682,179,c),
(682,182,o),
(681,189,o),
(678,202,cs),
(675,214,o),
(672,228,o),
(669,244,cs),
(661,276,o),
(653,314,o),
(649,338,c),
(646,331,o),
(643,323,o),
(638,312,cs),
(633,301,o),
(627,290,o),
(621,277,cs),
(582,193,ls),
(567,160,o),
(550,125,o),
(533,88,c),
(446,112,l),
(447,137,o),
(447,160,o),
(448,183,cs),
(449,222,o),
(451,269,o),
(451,298,c),
(444,286,o),
(437,273,o),
(429,260,cs),
(412,233,o),
(397,206,o),
(388,183,cs),
(383,171,o),
(381,161,o),
(381,152,cs),
(381,132,o),
(396,117,o),
(413,106,cs),
(429,95,o),
(449,89,o),
(457,86,c),
(387,-46,l),
(384,-44,o),
(376,-37,o),
(363,-24,cs),
(335,1,o),
(290,39,o),
(237,84,cs),
(184,128,o),
(127,171,o),
(73,207,cs),
(46,225,o),
(21,239,o),
(-1,248,c),
(5,251,o),
(20,261,o),
(44,277,cs),
(91,308,o),
(152,359,o),
(208,427,cs),
(235,461,o),
(256,498,o),
(270,539,c),
(263,544,o),
(246,551,o),
(230,558,cs),
(221,562,o),
(210,566,o),
(199,571,c),
(211,641,l),
(213,642,o),
(221,643,o),
(234,645,cs),
(261,649,o),
(301,657,o),
(350,666,cs),
(398,675,o),
(447,686,o),
(491,696,cs),
(512,701,o),
(530,705,o),
(545,710,c),
(548,646,o),
(551,593,o),
(556,538,cs),
(558,511,o),
(560,488,o),
(562,470,c),
(580,521,ls),
(592,557,o),
(606,594,o),
(619,629,cs),
(625,646,o),
(631,661,o),
(636,673,c)
);
},
{
closed = 1;
nodes = (
(967,692,l),
(963,691,o),
(953,690,o),
(936,688,cs),
(919,685,o),
(900,682,o),
(878,679,cs),
(855,676,o),
(832,672,o),
(807,669,cs),
(782,666,o),
(758,662,o),
(736,659,cs),
(681,651,ls),
(666,649,o),
(657,648,o),
(654,647,c),
(646,631,o),
(636,604,o),
(625,573,cs),
(613,541,o),
(601,506,o),
(590,473,cs),
(577,434,o),
(564,393,o),
(550,350,c),
(534,494,l),
(523,600,ls),
(521,615,o),
(519,627,o),
(518,638,cs),
(517,649,o),
(516,656,o),
(515,659,c),
(478,648,o),
(420,639,o),
(367,631,cs),
(294,621,l),
(246,615,l),
(245,610,o),
(244,606,o),
(244,602,c),
(241,588,l),
(277,568,ls),
(285,563,o),
(294,559,o),
(303,554,c),
(279,474,o),
(235,408,o),
(191,357,cs),
(146,305,o),
(100,269,o),
(75,249,c),
(126,222,o),
(192,173,o),
(250,125,cs),
(279,101,o),
(305,78,o),
(329,57,cs),
(381,10,l),
(392,27,o),
(408,54,o),
(416,71,c),
(405,76,o),
(390,86,o),
(378,99,cs),
(365,112,o),
(355,129,o),
(355,150,cs),
(355,170,o),
(366,200,o),
(382,235,cs),
(398,270,o),
(418,308,o),
(438,341,cs),
(457,374,o),
(475,403,o),
(484,418,c),
(475,150,l),
(523,130,l),
(657,437,l),
(711,170,l),
(692,150,o),
(679,135,o),
(667,122,cs),
(661,115,o),
(657,111,o),
(654,108,c),
(655,105,o),
(658,100,o),
(661,93,cs),
(670,72,ls),
(673,64,o),
(677,57,o),
(680,50,cs),
(683,43,o),
(686,37,o),
(687,33,c),
(746,64,o),
(812,99,o),
(876,129,cs),
(939,159,o),
(999,185,o),
(1046,198,c),
(990,261,o),
(945,346,o),
(913,423,cs),
(881,500,o),
(864,571,o),
(864,607,c),
(908,615,o),
(947,606,o),
(967,598,c)
);
}
);
width = 1074;
}
);
note = m;
unicode = 109;
},
{
glyphname = n;
layers = (
{
layerId = m01;
shapes = (
{
closed = 1;
nodes = (
(139,-20,l),
(-7,563,l),
(164,616,ls),
(211,631,o),
(261,647,o),
(306,663,cs),
(351,679,o),
(392,695,o),
(420,707,c),
(477,444,l),
(477,675,l),
(506,677,ls),
(537,680,o),
(583,682,o),
(638,682,cs),
(693,681,o),
(750,678,o),
(802,668,cs),
(828,663,o),
(851,655,o),
(870,646,c),
(855,559,l),
(840,548,o),
(829,540,o),
(818,533,cs),
(812,530,o),
(808,527,o),
(805,526,c),
(803,505,l),
(791,407,ls),
(788,388,o),
(786,370,o),
(784,353,cs),
(782,336,o),
(780,321,o),
(779,309,cs),
(777,296,o),
(776,289,o),
(775,286,c),
(778,285,o),
(782,282,o),
(788,278,cs),
(800,270,o),
(814,262,o),
(831,251,c),
(829,232,o),
(828,214,o),
(828,195,cs),
(828,157,o),
(833,117,o),
(848,70,cs),
(855,46,o),
(866,20,o),
(879,-8,c),
(872,-7,o),
(859,-5,o),
(839,-3,cs),
(798,1,o),
(740,4,o),
(672,7,cs),
(604,10,o),
(535,9,o),
(472,6,cs),
(440,4,o),
(412,1,o),
(389,-4,c),
(382,43,o),
(376,82,o),
(368,126,cs),
(364,147,o),
(360,167,o),
(355,184,c),
(350,137,o),
(343,75,o),
(343,-1,c)
);
},
{
closed = 1;
nodes = (
(307,608,o),
(247,587,o),
(188,570,cs),
(128,553,o),
(71,540,o),
(30,536,c),
(31,531,o),
(36,515,o),
(43,488,cs),
(58,434,o),
(79,356,o),
(103,270,cs),
(115,227,o),
(126,186,o),
(137,149,cs),
(148,112,o),
(157,80,o),
(164,55,cs),
(176,11,l),
(181,12,o),
(190,13,o),
(203,14,cs),
(216,15,o),
(230,16,o),
(245,18,cs),
(260,19,o),
(274,21,o),
(287,22,cs),
(300,23,o),
(310,23,o),
(315,24,c),
(316,80,o),
(324,147,o),
(333,202,cs),
(337,229,o),
(341,252,o),
(344,271,cs),
(347,290,o),
(349,299,o),
(350,300,c),
(363,253,o),
(376,210,o),
(387,172,cs),
(396,140,o),
(406,107,o),
(414,80,cs),
(417,67,o),
(420,55,o),
(423,46,cs),
(426,37,o),
(427,30,o),
(428,27,c),
(485,36,o),
(565,37,o),
(641,36,cs),
(716,35,o),
(785,30,o),
(820,27,c),
(803,72,o),
(793,110,o),
(789,144,cs),
(786,161,o),
(785,177,o),
(785,193,cs),
(785,209,o),
(786,225,o),
(787,242,c),
(785,243,o),
(781,247,o),
(775,252,cs),
(727,288,l),
(780,540,l),
(787,545,o),
(793,550,o),
(800,554,cs),
(805,557,o),
(811,561,o),
(816,565,cs),
(821,569,o),
(825,572,o),
(827,573,c),
(827,629,l),
(782,648,o),
(714,655,o),
(651,656,cs),
(587,656,o),
(530,653,o),
(505,649,c),
(505,580,ls),
(504,561,o),
(504,540,o),
(504,517,cs),
(503,494,o),
(503,470,o),
(502,446,cs),
(501,390,o),
(499,328,o),
(498,259,c),
(481,326,o),
(466,388,o),
(453,443,cs),
(441,490,o),
(429,538,o),
(421,575,cs),
(403,647,l),
(398,646,o),
(393,644,o),
(388,642,cs),
(377,637,o),
(366,632,o),
(355,628,cs)
);
}
);
width = 854;
}
);
note = n;
unicode = 110;
},
{
glyphname = o;
layers = (
{
layerId = m01;
shapes = (
{
closed = 1;
nodes = (
(454,695,o),
(558,671,o),
(638,620,cs),
(717,569,o),
(773,493,o),
(786,401,cs),
(798,312,o),
(767,221,o),
(706,148,cs),
(645,75,o),
(554,18,o),
(449,-5,cs),
(342,-28,o),
(234,-8,o),
(150,48,cs),
(74,100,o),
(25,178,o),
(10,269,cs),
(-6,361,o),
(16,452,o),
(75,528,cs),
(136,612,o),
(234,667,o),
(345,682,cs)
);
},
{
closed = 1;
nodes = (
(220,57,o),
(311,26,o),
(411,33,cs),
(507,41,o),
(592,81,o),
(656,139,cs),
(719,197,o),
(759,273,o),
(760,357,cs),
(759,441,o),
(718,517,o),
(654,573,cs),
(589,628,o),
(501,664,o),
(402,665,cs),
(302,665,o),
(208,625,o),
(144,557,cs),
(83,496,o),
(52,416,o),
(55,332,cs),
(56,249,o),
(91,174,o),
(152,118,cs)
);
},
{
closed = 1;
nodes = (
(275,542,o),
(292,567,o),
(318,584,cs),
(344,600,o),
(378,609,o),
(417,606,cs),
(450,603,o),
(483,589,o),
(507,569,cs),
(530,548,o),
(544,519,o),
(543,484,c),
(538,451,o),
(518,426,o),
(491,411,cs),
(463,395,o),
(430,388,o),
(395,392,cs),
(359,396,o),
(326,411,o),
(303,432,cs),
(280,453,o),
(268,482,o),
(272,511,cs)
);
},
{
closed = 1;
nodes = (
(435,410,o),
(460,420,o),
(480,436,cs),
(499,452,o),
(510,475,o),
(510,502,cs),
(509,529,o),
(495,550,o),
(476,566,cs),
(456,581,o),
(431,589,o),
(404,588,cs),
(375,588,o),
(350,577,o),
(331,560,cs),
(312,543,o),
(302,520,o),
(303,496,cs),
(303,471,o),
(314,449,o),
(333,434,cs),
(352,418,o),
(378,409,o),
(407,410,cs)
);
}
);
width = 770;
}
);
note = o;
unicode = 111;
},
{
glyphname = p;
layers = (
{
layerId = m01;
shapes = (
{
closed = 1;
nodes = (
(105,198,l),
(91,260,o),
(77,319,o),
(63,375,cs),
(51,423,o),
(38,473,o),
(26,518,cs),
(13,563,o),
(1,602,o),
(-10,627,c),
(35,651,o),
(115,680,o),
(206,699,cs),
(297,718,o),
(398,726,o),
(486,709,cs),
(574,692,o),
(649,650,o),
(686,567,cs),
(715,503,o),
(716,442,o),
(702,386,cs),
(688,329,o),
(659,280,o),
(629,238,cs),
(599,196,o),
(566,164,o),
(546,144,c),
(546,141,o),
(548,132,o),
(551,116,cs),
(557,84,o),
(564,44,o),
(573,-8,c),
(570,-8,o),
(562,-7,o),
(547,-5,cs),
(518,-2,o),
(473,1,o),
(420,2,cs),
(367,3,o),
(312,1,o),
(261,-7,cs),
(236,-11,o),
(213,-17,o),
(194,-25,c),
(193,-6,o),
(193,16,o),
(196,41,cs),
(201,91,o),
(208,142,o),
(209,190,cs),
(210,213,o),
(208,233,o),
(203,248,c),
(195,245,o),
(171,233,o),
(148,221,cs)
);
},
{
closed = 1;
nodes = (
(620,618,o),
(565,656,o),
(501,674,cs),
(436,692,o),
(363,692,o),
(294,684,cs),
(213,675,o),
(127,654,o),
(36,621,c),
(52,568,o),
(73,487,o),
(90,412,cs),
(98,374,o),
(106,340,o),
(113,309,cs),
(120,278,o),
(124,255,o),
(127,242,c),
(132,243,o),
(140,246,o),
(150,251,cs),
(223,281,l),
(235,244,o),
(236,192,o),
(236,142,cs),
(233,71,ls),
(232,48,o),
(231,29,o),
(231,14,c),
(278,29,o),
(342,34,o),
(400,35,cs),
(458,35,o),
(510,32,o),
(534,31,c),
(534,36,o),
(533,46,o),
(532,59,cs),
(522,152,l),
(542,173,o),
(572,210,o),
(598,255,cs),
(624,299,o),
(648,351,o),
(661,404,cs),
(674,456,o),
(675,509,o),
(655,554,c)
);
},
{
closed = 1;
nodes = (
(490,366,l),
(533,362,o),
(551,350,o),
(560,331,cs),
(563,325,o),
(565,318,o),
(565,310,cs),
(565,294,o),
(559,272,o),
(544,241,cs),
(537,225,o),
(527,206,o),
(515,185,c)
);
},
{
closed = 1;
nodes = (
(514,329,o),
(518,290,o),
(525,243,c),
(536,272,o),
(542,294,o),
(542,309,cs),
(542,332,o),
(532,343,o),
(511,354,c)
);
}
);
width = 699;
}
);
note = p;
unicode = 112;
},
{
glyphname = q;
layers = (
{
layerId = m01;
shapes = (
{
closed = 1;
nodes = (
(299,693,o),
(355,704,o),
(408,704,cs),
(514,704,o),
(602,669,o),
(664,609,cs),
(695,578,o),
(717,543,o),
(731,504,cs),
(742,476,o),
(746,449,o),
(746,418,cs),
(746,354,o),
(721,288,o),
(674,227,c),
(700,199,l),
(749,239,l),
(752,234,o),
(758,222,o),
(770,210,cs),
(782,197,o),
(799,182,o),
(826,170,c),
(750,131,o),
(692,92,o),
(633,52,cs),
(616,41,o),
(599,29,o),
(582,16,cs),
(548,-10,o),
(513,-35,o),
(478,-57,cs),
(461,-68,o),
(443,-78,o),
(425,-86,c),
(425,-43,o),
(421,13,o),
(410,64,c),
(319,43,o),
(233,48,o),
(163,77,cs),
(93,106,o),
(40,159,o),
(13,231,cs),
(-14,306,o),
(-15,402,o),
(20,477,cs),
(60,566,o),
(139,633,o),
(242,672,cs)
);
},
{
closed = 1;
nodes = (
(67,170,o),
(117,122,o),
(184,96,cs),
(251,70,o),
(333,67,o),
(425,92,c),
(440,33,o),
(445,-5,o),
(449,-33,c),
(474,-21,o),
(501,-6,o),
(530,13,cs),
(587,50,o),
(648,90,o),
(701,123,cs),
(727,140,o),
(753,155,o),
(780,170,c),
(760,182,o),
(749,197,o),
(742,206,c),
(730,197,l),
(715,185,l),
(697,170,l),
(645,227,l),
(720,318,o),
(743,411,o),
(712,495,cs),
(685,570,o),
(622,622,o),
(541,647,cs),
(460,672,o),
(361,670,o),
(265,635,cs),
(166,600,o),
(93,536,o),
(54,452,cs),
(22,381,o),
(18,306,o),
(43,238,cs)
);
},
{
closed = 1;
nodes = (
(584,395,o),
(585,376,o),
(581,360,cs),
(576,344,o),
(567,330,o),
(555,322,c),
(518,359,l),
(361,283,l),
(382,239,l),
(369,238,o),
(357,236,o),
(344,235,cs),
(319,231,o),
(294,233,o),
(274,242,cs),
(264,247,o),
(256,254,o),
(249,265,c),
(238,288,o),
(241,316,o),
(259,345,cs),
(277,373,o),
(310,402,o),
(361,422,cs),
(412,443,o),
(460,452,o),
(497,450,cs),
(534,448,o),
(563,435,o),
(575,412,cs)
);
},
{
closed = 1;
nodes = (
(276,249,o),
(294,245,o),
(311,246,cs),
(327,247,o),
(345,254,o),
(350,258,c),
(330,292,l),
(524,387,l),
(528,382,o),
(532,378,o),
(536,374,cs),
(555,355,l),
(563,362,o),
(568,370,o),
(568,383,cs),
(568,389,o),
(566,396,o),
(561,403,cs),
(552,418,o),
(531,424,o),
(499,423,cs),
(466,422,o),
(428,412,o),
(384,395,cs),
(339,378,o),
(307,354,o),
(287,330,cs),
(267,306,o),
(261,283,o),
(268,266,cs)
);
}
);
width = 800;
}
);
note = q;
unicode = 113;
},
{
glyphname = r;
layers = (
{
layerId = m01;
shapes = (
{
closed = 1;
nodes = (
(706,642,o),
(719,596,o),
(718,541,cs),
(717,485,o),
(701,421,o),
(674,361,c),
(685,360,o),
(697,360,o),
(711,360,cs),
(739,360,o),
(770,361,o),
(799,365,cs),
(814,367,o),
(827,370,o),
(839,374,c),
(820,306,o),
(787,236,o),
(756,169,cs),
(725,101,o),
(696,36,o),
(685,-27,c),
(652,0,o),
(620,25,o),
(591,49,cs),
(566,69,o),
(540,91,o),
(518,111,cs),
(496,131,o),
(477,149,o),
(466,161,c),
(469,118,o),
(473,54,o),
(480,6,c),
(465,11,o),
(430,18,o),
(385,26,cs),
(232,49,ls),
(170,58,o),
(102,67,o),
(27,76,c),
(45,179,l),
(68,179,ls),
(81,179,o),
(95,178,o),
(102,177,c),
(102,202,o),
(102,251,o),
(91,291,c),
(57,289,ls),
(41,288,o),
(24,286,o),
(11,283,c),
(19,299,o),
(18,328,o),
(12,364,cs),
(6,399,o),
(-4,438,o),
(-16,477,cs),
(-29,522,o),
(-46,571,o),
(-66,623,c),
(21,628,o),
(94,635,o),
(168,645,cs),
(205,650,o),
(235,655,o),
(260,662,cs),
(327,681,o),
(409,699,o),
(485,705,cs),
(561,711,o),
(631,704,o),
(674,669,cs)
);
},
{
closed = 1;
nodes = (
(167,621,o),
(69,601,o),
(-14,596,c),
(-13,573,o),
(-1,539,o),
(11,502,cs),
(31,450,o),
(50,382,o),
(53,314,c),
(61,314,o),
(78,315,o),
(93,316,cs),
(100,316,o),
(107,316,o),
(113,317,cs),
(119,317,o),
(122,317,o),
(122,318,c),
(130,298,o),
(132,259,o),
(132,223,cs),
(132,174,ls),
(131,159,o),
(131,149,o),
(131,145,c),
(110,148,l),
(93,151,l),
(87,151,o),
(82,151,o),
(78,152,c),
(77,147,o),
(77,141,o),
(77,136,cs),
(77,130,o),
(76,124,o),
(75,118,c),
(99,117,o),
(141,109,o),
(189,100,cs),
(237,91,o),
(291,79,o),
(339,68,cs),
(387,57,o),
(429,47,o),
(453,40,c),
(452,53,o),
(450,70,o),
(449,90,cs),
(446,130,o),
(444,170,o),
(442,198,cs),
(440,221,l),
(455,208,l),
(489,178,ls),
(502,166,o),
(517,153,o),
(534,138,cs),
(567,109,o),
(601,81,o),
(631,59,cs),
(646,48,o),
(658,39,o),
(667,34,c),
(677,56,o),
(688,80,o),
(700,105,cs),
(723,155,o),
(747,207,o),
(768,259,cs),
(778,284,o),
(786,309,o),
(793,332,c),
(766,329,o),
(728,330,o),
(697,333,cs),
(679,335,o),
(660,337,o),
(641,340,c),
(656,372,o),
(671,412,o),
(680,453,cs),
(689,493,o),
(694,536,o),
(686,573,cs),
(677,624,o),
(643,651,o),
(598,664,cs),
(575,671,o),
(550,674,o),
(522,674,cs),
(465,674,o),
(404,667,o),
(345,656,cs),
(316,651,o),
(288,645,o),
(263,640,cs)
);
},
{
closed = 1;
nodes = (
(418,485,l),
(433,477,o),
(459,464,o),
(480,445,cs),
(501,426,o),
(517,404,o),
(513,379,cs),
(510,355,o),
(503,338,o),
(491,322,cs),
(478,305,o),
(461,288,o),
(437,267,c)
);
},
{
closed = 1;
nodes = (
(448,402,o),
(450,382,o),
(451,363,cs),
(452,343,o),
(454,324,o),
(455,309,c),
(471,324,o),
(481,337,o),
(484,364,c),
(484,384,o),
(466,400,o),
(447,415,c)
);
}
);
width = 837;
}
);
note = r;
unicode = 114;
},
{
glyphname = s;
layers = (
{
layerId = m01;
shapes = (
{
closed = 1;
nodes = (
(191,739,l),
(583,712,l),
(597,468,l),
(388,396,l),
(347,421,o),
(300,444,o),
(261,457,cs),
(222,470,o),
(191,475,o),
(179,466,cs),
(172,461,o),
(172,455,o),
(177,449,cs),
(188,437,o),
(215,426,o),
(254,415,cs),
(293,403,o),
(334,394,o),
(374,387,cs),
(394,384,o),
(411,381,o),
(426,380,cs),
(505,372,o),
(564,365,o),
(608,346,cs),
(652,327,o),
(678,297,o),
(689,238,c),
(697,173,o),
(673,95,o),
(601,43,cs),
(549,6,o),
(489,-7,o),
(429,-6,cs),
(369,-5,o),
(309,10,o),
(260,27,cs),
(211,44,o),
(171,65,o),
(151,77,c),
(150,77,ls),
(139,74,o),
(109,65,o),
(92,58,c),
(85,57,l),
(34,304,l),
(54,308,o),
(75,312,o),
(96,317,cs),
(154,330,ls),
(175,334,o),
(195,338,o),
(214,343,c),
(157,358,o),
(105,376,o),
(66,403,cs),
(27,430,o),
(3,466,o),
(3,517,cs),
(3,572,o),
(28,609,o),
(66,633,cs),
(104,657,o),
(152,667,o),
(200,667,c)
);
},
{
closed = 1;
nodes = (
(67,299,l),
(70,282,ls),
(72,271,o),
(75,259,o),
(78,245,cs),
(87,198,ls),
(94,165,o),
(100,135,o),
(105,114,cs),
(107,103,o),
(108,97,o),
(108,95,c),
(133,104,o),
(149,110,o),
(154,111,cs),
(162,113,l),
(164,113,l),
(164,112,o),
(165,111,o),
(168,109,cs),
(187,98,o),
(223,79,o),
(267,63,cs),
(311,46,o),
(365,32,o),
(418,30,cs),
(471,28,o),
(525,38,o),
(572,73,cs),
(636,117,o),
(666,185,o),
(657,245,cs),
(652,297,o),
(621,323,o),
(578,339,cs),
(535,355,o),
(479,359,o),
(424,366,cs),
(332,378,o),
(256,392,o),
(208,412,cs),
(159,431,o),
(139,454,o),
(160,482,cs),
(175,502,o),
(214,498,o),
(259,485,cs),
(303,472,o),
(354,448,o),
(391,425,c),
(569,480,l),
(560,681,l),
(532,683,ls),
(515,684,o),
(494,686,o),
(469,688,cs),
(444,689,o),
(417,691,o),
(388,693,cs),
(330,697,o),
(277,701,o),
(242,703,cs),
(225,704,o),
(215,704,o),
(212,704,c),
(213,702,o),
(213,698,o),
(214,691,cs),
(215,678,o),
(218,662,o),
(222,641,c),
(175,641,o),
(128,633,o),
(92,613,cs),
(56,592,o),
(33,559,o),
(33,508,cs),
(33,461,o),
(60,426,o),
(100,401,cs),
(140,376,o),
(194,359,o),
(247,351,c),
(256,352,o),
(272,355,o),
(285,358,cs),
(309,364,l),
(312,351,o),
(315,342,o),
(319,333,c),
(342,328,o),
(364,324,o),
(386,320,cs),
(430,311,o),
(466,301,o),
(487,285,cs),
(498,277,o),
(503,266,o),
(503,253,cs),
(503,221,o),
(479,203,o),
(443,206,cs),
(423,207,o),
(390,219,o),
(360,240,cs),
(330,261,o),
(303,293,o),
(292,336,c)
);
},
{
closed = 1;
nodes = (
(448,226,o),
(460,226,o),
(471,231,cs),
(482,235,o),
(489,243,o),
(488,258,cs),
(487,271,o),
(467,283,o),
(437,293,cs),
(407,303,o),
(365,311,o),
(321,319,c),
(337,290,o),
(359,266,o),
(383,251,cs),
(406,235,o),
(428,227,o),
(441,226,cs)
);
}
);
width = 648;
}
);
note = s;
unicode = 115;
},
{
glyphname = t;
layers = (
{
layerId = m01;
shapes = (
{
closed = 1;
nodes = (
(109,157,l),
(-3,582,l),
(739,711,l),
(769,405,l),
(747,397,o),
(727,389,o),
(709,382,cs),
(634,353,l),
(637,349,o),
(640,344,o),
(643,337,cs),
(646,330,o),
(650,323,o),
(654,316,cs),
(657,309,o),
(661,302,o),
(664,296,cs),
(667,290,o),
(669,286,o),
(671,284,c),
(674,284,o),
(682,284,o),
(693,285,cs),
(715,286,o),
(739,288,o),
(774,289,c),
(785,204,l),
(759,192,ls),
(727,176,o),
(676,151,o),
(616,118,cs),
(555,85,o),
(492,45,o),
(434,3,cs),
(405,-18,o),
(379,-40,o),
(358,-61,c),
(325,47,o),
(305,160,o),
(290,248,c),
(285,246,o),
(280,244,o),
(273,242,cs),
(235,228,ls),
(230,226,o),
(226,225,o),
(224,225,c),
(223,224,o),
(221,220,o),
(220,214,cs),
(214,194,ls),
(211,187,o),
(209,178,o),
(206,169,c)
);
},
{
closed = 1;
nodes = (
(690,675,o),
(679,673,o),
(660,670,cs),
(585,658,ls),
(524,648,o),
(445,634,o),
(366,620,cs),
(249,599,ls),
(172,586,o),
(110,575,o),
(70,568,cs),
(50,564,o),
(39,562,o),
(36,561,c),
(42,539,ls),
(45,527,o),
(48,512,o),
(53,495,cs),
(58,477,o),
(63,457,o),
(68,436,cs),
(73,414,o),
(79,392,o),
(85,370,cs),
(98,318,o),
(113,260,o),
(130,196,c),
(141,197,o),
(150,197,o),
(159,198,cs),
(166,199,o),
(174,199,o),
(181,200,cs),
(188,200,o),
(193,200,o),
(195,201,c),
(196,204,o),
(198,207,o),
(199,212,cs),
(200,217,o),
(202,221,o),
(204,226,cs),
(207,231,o),
(209,237,o),
(211,243,c),
(326,289,l),
(333,213,o),
(339,149,o),
(350,83,cs),
(355,50,o),
(361,21,o),
(367,-2,c),
(403,33,o),
(453,66,o),
(505,97,cs),
(557,128,o),
(611,155,o),
(656,176,cs),
(750,219,l),
(750,230,o),
(747,251,o),
(744,263,c),
(676,265,ls),
(659,266,o),
(640,266,o),
(619,267,c),
(576,358,l),
(629,379,o),
(669,394,o),
(703,407,cs),
(733,418,l),
(733,421,o),
(732,429,o),
(730,442,cs),
(723,488,ls),
(718,524,o),
(711,568,o),
(705,604,cs),
(697,651,ls),
(695,664,o),
(694,673,o),
(693,676,c)
);
}
);
width = 769;
}
);
note = t;
unicode = 116;
},
{
glyphname = u;
layers = (
{
layerId = m01;
shapes = (
{
closed = 1;
nodes = (
(7,553,o),
(25,619,o),
(44,664,cs),
(55,691,o),
(67,714,o),
(80,733,c),
(155,701,o),
(224,680,o),
(296,669,cs),
(368,657,o),
(443,656,o),
(524,661,c),
(524,577,l),
(512,570,o),
(501,563,o),
(490,556,cs),
(481,551,o),
(472,545,o),
(464,540,cs),
(455,535,o),
(449,531,o),
(446,529,c),
(450,505,o),
(458,482,o),
(472,467,cs),
(486,451,o),
(507,443,o),
(538,447,cs),
(570,451,o),
(588,477,o),
(596,509,cs),
(604,541,o),
(602,579,o),
(597,604,c),
(812,654,l),
(837,586,o),
(846,528,o),
(846,468,cs),
(846,336,o),
(799,218,o),
(723,131,cs),
(647,44,o),
(543,-9,o),
(427,-9,cs),
(311,-9,o),
(206,44,o),
(130,131,cs),
(54,218,o),
(7,336,o),
(7,468,cs)
);
},
{
closed = 1;
nodes = (
(28,346,o),
(73,242,o),
(145,167,cs),
(217,91,o),
(318,45,o),
(427,45,cs),
(536,45,o),
(636,91,o),
(708,167,cs),
(780,242,o),
(825,346,o),
(825,461,cs),
(825,508,o),
(818,556,o),
(801,604,c),
(784,600,ls),
(775,598,o),
(764,596,o),
(752,593,cs),
(728,587,o),
(700,580,o),
(676,575,cs),
(664,572,o),
(653,570,o),
(644,569,cs),
(635,567,o),
(628,566,o),
(625,565,c),
(629,534,o),
(627,498,o),
(614,469,cs),
(601,440,o),
(577,417,o),
(541,413,cs),
(506,408,o),
(477,419,o),
(455,441,cs),
(433,463,o),
(420,496,o),
(420,533,c),
(445,548,o),
(466,559,o),
(483,570,cs),
(492,575,o),
(497,579,o),
(500,580,c),
(500,610,l),
(361,601,o),
(217,623,o),
(85,674,c),
(49,609,o),
(28,533,o),
(28,461,cs)
);
}
);
width = 849;
}
);
note = u;
unicode = 117;
},
{
glyphname = v;
layers = (
{
layerId = m01;
shapes = (
{
closed = 1;
nodes = (
(239,252,l),
(223,249,l),
(-2,565,l),
(357,722,l),
(426,561,ls),
(435,540,o),
(445,519,o),
(454,498,cs),
(472,455,o),
(488,417,o),
(501,389,cs),
(515,355,l),
(523,394,o),
(536,455,o),
(546,520,cs),
(556,585,o),
(563,654,o),
(562,710,c),
(942,690,l),
(942,684,o),
(941,668,o),
(939,641,cs),
(934,588,o),
(926,516,o),
(918,445,cs),
(913,410,o),
(908,381,o),
(903,358,c),
(894,356,o),
(885,354,o),
(877,351,cs),
(862,347,o),
(850,344,o),
(843,341,c),
(840,333,o),
(836,320,o),
(831,301,cs),
(786,161,ls),
(769,108,o),
(752,58,o),
(737,21,cs),
(730,2,o),
(724,-11,o),
(719,-20,c),
(692,-20,ls),
(662,-21,o),
(615,-22,o),
(562,-22,cs),
(509,-22,o),
(456,-22,o),
(412,-19,cs),
(389,-18,o),
(371,-16,o),
(358,-13,c),
(359,7,o),
(344,61,o),
(325,117,cs),
(305,173,o),
(280,230,o),
(261,257,c),
(259,256,o),
(256,256,o),
(252,255,cs)
);
},
{
closed = 1;
nodes = (
(340,666,o),
(331,662,o),
(317,655,cs),
(288,642,o),
(247,623,o),
(202,603,cs),
(179,592,o),
(158,583,o),
(138,574,cs),
(86,550,l),
(57,537,l),
(60,533,o),
(66,524,o),
(76,511,cs),
(109,464,ls),
(122,446,o),
(135,427,o),
(150,407,cs),
(164,386,o),
(177,367,o),
(189,350,cs),
(201,332,o),
(211,317,o),
(220,305,cs),
(229,292,o),
(234,285,o),
(235,283,c),
(248,286,o),
(265,289,o),
(277,292,c),
(300,260,o),
(323,209,o),
(343,161,cs),
(363,112,o),
(379,63,o),
(387,32,c),
(410,28,o),
(449,26,o),
(491,25,cs),
(512,24,o),
(533,24,o),
(555,24,cs),
(618,24,ls),
(637,24,o),
(655,24,o),
(670,25,cs),
(704,25,l),
(715,49,o),
(735,107,o),
(758,172,cs),
(769,205,o),
(781,238,o),
(792,272,cs),
(803,306,o),
(814,336,o),
(823,362,c),
(832,364,o),
(840,366,o),
(847,369,cs),
(866,375,l),
(880,379,l),
(888,412,o),
(896,469,o),
(902,522,cs),
(905,548,o),
(907,573,o),
(910,596,cs),
(915,647,l),
(911,648,o),
(901,648,o),
(884,649,cs),
(851,650,o),
(804,652,o),
(753,655,cs),
(727,656,o),
(703,658,o),
(680,659,cs),
(621,662,ls),
(604,663,o),
(594,663,o),
(589,663,c),
(589,660,ls),
(589,621,o),
(583,571,o),
(575,519,cs),
(566,467,o),
(555,414,o),
(545,370,cs),
(540,348,o),
(535,329,o),
(532,312,cs),
(523,275,l),
(492,344,o),
(463,407,o),
(437,463,cs),
(426,487,o),
(416,511,o),
(405,534,cs),
(394,557,o),
(385,578,o),
(376,597,cs),
(354,644,ls),
(348,657,o),
(344,664,o),
(343,667,c)
);
}
);
width = 938;
}
);
note = v;
unicode = 118;
},
{
glyphname = w;
layers = (
{
layerId = m01;
shapes = (
{
closed = 1;
nodes = (
(566,636,l),
(623,465,l),
(662,730,l),
(1132,605,l),
(1129,580,o),
(1123,529,o),
(1115,481,cs),
(1107,432,o),
(1097,382,o),
(1089,358,c),
(1039,348,l),
(1023,344,l),
(1020,323,o),
(1013,261,o),
(999,186,cs),
(985,111,o),
(964,26,o),
(936,-45,c),
(613,14,l),
(599,65,o),
(586,111,o),
(574,152,cs),
(559,206,l),
(545,255,ls),
(540,270,o),
(536,284,o),
(533,296,cs),
(530,307,o),
(527,315,o),
(526,320,c),
(523,315,o),
(519,308,o),
(514,297,cs),
(493,260,l),
(440,162,ls),
(418,122,o),
(394,78,o),
(369,31,c),
(245,54,l),
(245,54,o),
(244,60,o),
(241,72,cs),
(235,96,o),
(223,135,o),
(209,181,cs),
(195,227,o),
(178,272,o),
(162,311,cs),
(153,330,o),
(145,346,o),
(137,357,c),
(135,356,o),
(132,356,o),
(129,356,c),
(117,353,l),
(103,350,l),
(-20,483,l),
(-17,484,o),
(-9,488,o),
(4,495,cs),
(30,508,o),
(69,530,o),
(116,556,cs),
(163,582,o),
(212,609,o),
(257,637,cs),
(280,650,o),
(300,663,o),
(317,674,c),
(336,649,o),
(355,608,o),
(372,564,cs),
(388,519,o),
(403,469,o),
(412,425,c),
(424,454,o),
(436,494,o),
(447,531,cs),
(458,568,o),
(466,605,o),
(469,626,c)
);
},
{
closed = 1;
nodes = (
(677,672,l),
(628,372,l),
(592,475,ls),
(587,488,o),
(583,502,o),
(578,515,cs),
(569,541,o),
(561,563,o),
(557,577,cs),
(552,590,l),
(549,590,o),
(545,590,o),
(539,589,cs),
(520,586,ls),
(513,585,o),
(507,585,o),
(502,584,cs),
(496,583,o),
(491,583,o),
(488,583,c),
(484,562,o),
(474,521,o),
(459,478,cs),
(443,435,o),
(425,390,o),
(405,361,c),
(397,412,o),
(383,466,o),
(367,512,cs),
(351,558,o),
(333,596,o),
(317,619,c),
(274,595,o),
(213,561,o),
(157,532,cs),
(129,517,o),
(103,504,o),
(80,492,cs),
(56,480,o),
(38,471,o),
(27,465,c),
(76,416,ls),
(86,405,o),
(95,396,o),
(104,387,cs),
(112,378,o),
(117,373,o),
(119,372,c),
(121,373,o),
(124,373,o),
(128,374,c),
(136,374,o),
(145,375,o),
(154,378,c),
(179,349,o),
(206,286,o),
(227,226,cs),
(248,166,o),
(265,109,o),
(270,89,c),
(277,89,o),
(296,87,o),
(316,84,cs),
(345,81,ls),
(354,80,o),
(359,79,o),
(362,78,c),
(363,79,o),
(367,85,o),
(372,94,cs),
(392,129,l),
(449,230,ls),
(473,272,o),
(500,320,o),
(531,373,c),
(548,316,o),
(564,265,o),
(578,220,cs),
(596,163,ls),
(601,144,o),
(606,128,o),
(611,113,cs),
(623,76,ls),
(626,66,o),
(627,60,o),
(628,59,c),
(653,56,ls),
(667,53,o),
(684,50,o),
(705,47,cs),
(725,43,o),
(747,39,o),
(771,35,cs),
(890,14,ls),
(905,11,o),
(913,10,o),
(915,9,c),
(942,76,o),
(962,162,o),
(975,232,cs),
(982,267,o),
(987,296,o),
(991,321,cs),
(996,361,l),
(1025,367,l),
(1047,371,ls),
(1054,372,o),
(1059,373,o),
(1061,374,c),
(1066,394,o),
(1074,434,o),
(1082,473,cs),
(1089,512,o),
(1095,550,o),
(1098,567,c),
(1095,568,o),
(1084,571,o),
(1063,576,cs),
(1042,581,o),
(1016,588,o),
(986,595,cs),
(955,602,o),
(923,611,o),
(888,620,cs),
(853,629,o),
(821,637,o),
(791,644,cs),
(760,651,o),
(735,658,o),
(714,663,cs)
);
}
);
width = 1137;
}
);
note = w;
unicode = 119;
},
{
glyphname = x;
layers = (
{
layerId = m01;
shapes = (
{
closed = 1;
nodes = (
(226,684,l),
(285,648,o),
(348,605,o),
(424,549,c),
(444,569,o),
(481,600,o),
(519,631,cs),
(557,662,o),
(594,694,o),
(614,711,c),
(781,561,l),
(772,552,o),
(760,541,o),
(744,528,cs),
(646,442,ls),
(631,428,o),
(619,417,o),
(612,408,c),
(629,396,ls),
(636,390,o),
(644,384,o),
(653,378,cs),
(669,365,o),
(686,352,o),
(691,347,c),
(730,384,l),
(759,412,l),
(868,217,l),
(565,-42,l),
(520,29,o),
(471,91,o),
(416,155,c),
(369,87,o),
(340,34,o),
(321,-26,c),
(300,-2,ls),
(276,23,o),
(240,62,o),
(197,107,cs),
(153,151,o),
(108,198,o),
(65,239,cs),
(44,259,o),
(24,276,o),
(7,291,c),
(82,288,ls),
(101,287,o),
(119,286,o),
(136,286,cs),
(152,285,o),
(161,285,o),
(164,285,c),
(171,293,o),
(180,303,o),
(191,314,cs),
(201,325,o),
(213,337,o),
(226,352,c),
(175,397,o),
(131,433,o),
(84,461,c)
);
},
{
closed = 1;
nodes = (
(226,621,l),
(205,589,ls),
(197,576,o),
(189,563,o),
(180,550,cs),
(162,523,o),
(145,498,o),
(134,480,cs),
(122,462,l),
(161,439,o),
(204,403,o),
(264,352,c),
(244,332,o),
(227,315,o),
(214,301,cs),
(201,287,o),
(189,275,o),
(179,265,c),
(93,261,l),
(129,229,o),
(173,189,o),
(211,152,cs),
(249,115,o),
(282,80,o),
(302,59,c),
(306,71,o),
(323,93,o),
(344,120,cs),
(364,147,o),
(391,176,o),
(416,203,c),
(449,166,o),
(479,132,o),
(508,103,cs),
(537,74,o),
(561,45,o),
(582,17,c),
(606,38,ls),
(633,60,o),
(670,90,o),
(711,125,cs),
(768,173,l),
(814,211,ls),
(827,222,o),
(834,228,o),
(836,229,c),
(832,236,o),
(816,263,o),
(800,292,cs),
(783,320,o),
(766,349,o),
(761,360,c),
(753,353,o),
(735,338,o),
(716,325,cs),
(705,318,o),
(694,309,o),
(683,300,c),
(580,403,l),
(597,423,o),
(633,455,o),
(668,484,cs),
(685,498,o),
(702,511,o),
(717,524,cs),
(732,537,o),
(743,546,o),
(749,552,c),
(746,555,o),
(738,563,o),
(725,574,cs),
(712,585,o),
(699,596,o),
(685,609,cs),
(657,634,o),
(628,659,o),
(621,664,c),
(584,636,ls),
(550,611,o),
(510,580,o),
(474,550,cs),
(455,535,o),
(440,521,o),
(428,510,c),
(345,569,o),
(286,607,o),
(238,638,c)
);
}
);
width = 868;
}
);
note = x;
unicode = 120;
},
{
glyphname = y;
layers = (
{
layerId = m01;
shapes = (
{
closed = 1;
nodes = (
(55,613,l),
(70,614,o),
(104,618,o),
(144,625,cs),
(164,628,o),
(185,632,o),
(208,637,cs),
(274,649,ls),
(316,657,o),
(352,665,o),
(371,670,c),
(382,610,l),
(371,593,o),
(363,579,o),
(355,567,cs),
(351,561,o),
(348,557,o),
(346,555,c),
(351,539,o),
(364,508,o),
(377,476,cs),
(384,460,o),
(390,445,o),
(397,430,cs),
(404,415,o),
(409,402,o),
(413,393,c),
(420,400,o),
(429,410,o),
(440,423,cs),
(450,435,o),
(461,448,o),
(473,461,cs),
(484,474,o),
(496,488,o),
(507,502,cs),
(518,515,o),
(528,527,o),
(537,537,c),
(532,538,o),
(526,540,o),
(520,542,cs),
(480,551,l),
(483,629,l),
(530,632,o),
(578,637,o),
(626,644,cs),
(719,655,o),
(817,665,o),
(898,652,c),
(850,604,o),
(798,521,o),
(743,429,cs),
(715,383,o),
(687,336,o),
(659,288,cs),
(602,191,o),
(545,105,o),
(490,43,cs),
(434,-19,o),
(378,-46,o),
(295,-45,cs),
(212,-45,o),
(129,-22,o),
(53,17,cs),
(15,36,o),
(-18,57,o),
(-46,78,c),
(47,93,o),
(115,132,o),
(162,170,cs),
(185,189,o),
(204,206,o),
(217,223,cs),
(242,256,l),
(235,285,o),
(213,325,o),
(186,365,cs),
(159,404,o),
(128,444,o),
(104,474,cs),
(73,510,ls),
(64,519,o),
(60,524,o),
(59,525,c)
);
},
{
closed = 1;
nodes = (
(358,633,l),
(239,610,ls),
(187,600,o),
(131,591,o),
(92,587,c),
(88,530,l),
(138,477,ls),
(180,433,o),
(224,380,o),
(257,327,cs),
(274,300,o),
(284,276,o),
(289,254,c),
(288,251,o),
(282,242,o),
(272,227,cs),
(251,195,o),
(213,153,o),
(156,114,cs),
(127,95,o),
(94,80,o),
(56,70,c),
(99,46,o),
(164,19,o),
(230,7,cs),
(296,-6,o),
(365,-5,o),
(418,27,cs),
(463,54,o),
(509,115,o),
(554,190,cs),
(577,227,o),
(599,267,o),
(622,309,cs),
(667,393,o),
(716,476,o),
(765,545,cs),
(790,580,o),
(815,608,o),
(842,631,c),
(814,632,o),
(777,630,o),
(737,626,cs),
(675,620,ls),
(654,617,o),
(635,615,o),
(616,613,cs),
(573,606,o),
(534,602,o),
(499,599,c),
(498,588,o),
(497,568,o),
(497,561,c),
(547,554,ls),
(559,553,o),
(572,551,o),
(587,550,c),
(584,547,o),
(579,540,o),
(571,531,cs),
(563,521,o),
(553,510,o),
(542,497,cs),
(531,484,o),
(519,471,o),
(506,456,cs),
(480,427,o),
(453,399,o),
(432,378,cs),
(421,367,o),
(413,360,o),
(407,355,c),
(406,358,o),
(403,365,o),
(398,374,cs),
(380,407,ls),
(373,420,o),
(366,433,o),
(359,448,cs),
(343,476,o),
(329,505,o),
(318,527,cs),
(313,538,o),
(309,546,o),
(308,552,c),
(328,569,o),
(343,583,o),
(354,595,cs),
(364,605,l),
(363,608,o),
(363,612,o),
(362,617,cs)
);
}
);
width = 882;
}
);
note = y;
unicode = 121;
},
{
glyphname = z;
layers = (
{
layerId = m01;
shapes = (
{
closed = 1;
nodes = (
(499,741,l),
(499,670,l),
(522,670,o),
(567,671,o),
(619,674,cs),
(671,677,o),
(729,681,o),
(777,688,c),
(768,636,ls),
(756,579,o),
(714,482,o),
(624,353,cs),
(579,288,o),
(516,217,o),
(437,140,c),
(450,141,o),
(462,142,o),
(475,142,cs),
(488,142,o),
(496,142,o),
(499,143,c),
(501,145,o),
(507,151,o),
(517,160,cs),
(548,190,ls),
(561,202,o),
(575,216,o),
(590,231,c),
(737,194,l),
(738,-9,l),
(733,-10,o),
(720,-11,o),
(697,-12,cs),
(651,-16,o),
(582,-19,o),
(499,-22,cs),
(416,-25,o),
(330,-26,o),
(250,-22,cs),
(210,-21,o),
(174,-18,o),
(143,-13,c),
(135,110,l),
(138,111,o),
(151,118,o),
(173,130,cs),
(216,154,o),
(275,196,o),
(330,255,cs),
(357,284,o),
(378,317,o),
(393,353,c),
(383,350,o),
(371,348,o),
(358,345,cs),
(331,339,o),
(301,329,o),
(271,314,cs),
(256,307,o),
(242,298,o),
(229,288,c),
(137,309,l),
(137,312,o),
(135,326,o),
(132,351,cs),
(125,401,o),
(111,473,o),
(86,549,cs),
(73,587,o),
(58,620,o),
(39,649,c)
);
},
{
closed = 1;
nodes = (
(464,713,l),
(430,706,ls),
(412,701,o),
(391,696,o),
(366,691,cs),
(341,686,o),
(314,680,o),
(286,673,cs),
(257,666,o),
(231,660,o),
(206,655,cs),
(181,650,o),
(159,645,o),
(141,641,cs),
(107,633,l),
(130,589,o),
(148,522,o),
(161,462,cs),
(173,401,o),
(181,347,o),
(184,328,c),
(186,327,o),
(190,326,o),
(195,325,cs),
(200,323,o),
(205,321,o),
(211,320,cs),
(236,313,l),
(267,334,o),
(308,351,o),
(347,363,cs),
(366,369,o),
(384,374,o),
(399,378,cs),
(414,381,o),
(425,384,o),
(431,386,c),
(408,302,o),
(355,235,o),
(303,187,cs),
(251,138,o),
(201,108,o),
(184,97,c),
(184,95,o),
(184,90,o),
(185,82,cs),
(186,73,o),
(186,64,o),
(187,55,cs),
(187,45,o),
(187,36,o),
(188,27,cs),
(189,18,o),
(189,11,o),
(189,7,c),
(237,0,o),
(302,-2,o),
(369,-2,cs),
(436,-2,o),
(505,1,o),
(563,4,cs),
(592,5,o),
(617,7,o),
(639,9,cs),
(661,10,o),
(677,11,o),
(687,12,c),
(687,44,ls),
(686,60,o),
(686,78,o),
(686,97,cs),
(686,149,ls),
(685,165,o),
(685,175,o),
(685,178,c),
(666,184,ls),
(656,186,o),
(646,189,o),
(635,192,cs),
(614,198,o),
(592,204,o),
(585,205,c),
(568,188,ls),
(559,179,o),
(549,169,o),
(540,159,cs),
(529,147,o),
(517,134,o),
(504,121,c),
(376,116,l),
(516,260,o),
(599,383,o),
(649,476,cs),
(674,523,o),
(691,562,o),
(701,593,cs),
(711,624,o),
(718,647,o),
(721,661,c),
(676,656,o),
(616,653,o),
(566,651,cs),
(541,650,o),
(519,649,o),
(500,649,cs),
(463,649,l),
(464,658,o),
(464,666,o),
(464,674,cs)
);
}
);
width = 825;
}
);
note = z;
unicode = 122;
},
{
glyphname = zero;
layers = (
{
layerId = m01;
shapes = (
{
closed = 1;
nodes = (
(336,733,l),
(609,639,l),
(601,617,l),
(595,602,ls),
(593,597,o),
(592,595,o),
(591,594,c),
(752,506,o),
(842,376,o),
(842,248,cs),
(842,205,o),
(834,165,o),
(815,126,cs),
(782,59,o),
(731,23,o),
(673,5,cs),
(615,-13,o),
(552,-13,o),
(494,-4,cs),
(436,4,o),
(383,20,o),
(348,33,c),
(347,32,o),
(346,28,o),
(344,22,cs),
(323,-27,l),
(201,33,l),
(206,49,o),
(213,72,o),
(221,101,c),
(190,117,o),
(150,147,o),
(112,186,cs),
(74,225,o),
(38,272,o),
(18,324,cs),
(-3,375,o),
(-11,431,o),
(9,487,cs),
(38,575,o),
(91,623,o),
(150,648,cs),
(209,673,o),
(274,676,o),
(326,673,c)
);
},
{
closed = 1;
nodes = (
(320,630,o),
(247,635,o),
(183,617,cs),
(118,599,o),
(61,559,o),
(32,475,cs),
(16,430,o),
(24,381,o),
(46,336,cs),
(68,291,o),
(102,246,o),
(138,210,cs),
(174,174,o),
(211,145,o),
(238,129,c),
(229,88,ls),
(226,73,o),
(224,61,o),
(221,52,c),
(313,10,l),
(336,72,l),
(376,57,o),
(440,43,o),
(506,42,cs),
(572,41,o),
(641,52,o),
(694,85,cs),
(747,117,o),
(783,172,o),
(783,259,cs),
(783,316,o),
(756,375,o),
(712,430,cs),
(668,485,o),
(607,534,o),
(539,573,c),
(541,580,o),
(543,587,o),
(546,593,cs),
(555,616,l),
(539,621,o),
(492,638,o),
(450,654,cs),
(429,661,o),
(411,668,o),
(397,673,cs),
(382,678,o),
(377,679,o),
(382,677,c),
(382,668,ls),
(381,658,o),
(380,644,o),
(377,625,c)
);
},
{
closed = 1;
nodes = (
(247,175,l),
(230,195,o),
(213,218,o),
(204,242,cs),
(195,266,o),
(192,292,o),
(203,319,c),
(222,352,o),
(246,375,o),
(283,382,c)
);
},
{
closed = 1;
nodes = (
(209,253,o),
(223,235,o),
(238,220,c),
(245,251,o),
(253,290,o),
(260,337,c),
(233,330,o),
(209,302,o),
(209,273,cs)
);
},
{
closed = 1;
nodes = (
(456,299,l),
(459,296,ls),
(516,245,o),
(530,187,o),
(495,140,cs),
(472,109,o),
(432,97,o),
(377,112,c)
);
},
{
closed = 1;
nodes = (
(447,239,ls),
(436,213,o),
(423,180,o),
(412,156,cs),
(406,143,o),
(403,136,o),
(402,135,c),
(436,129,o),
(462,135,o),
(479,154,c),
(502,193,o),
(491,226,o),
(456,261,c)
);
}
);
width = 845;
}
);
note = zero;
unicode = 48;
},
{
glyphname = one;
layers = (
{
layerId = m01;
shapes = (
{
closed = 1;
nodes = (
(476,733,l),
(491,605,o),
(491,485,o),
(488,393,cs),
(487,346,o),
(485,308,o),
(482,277,cs),
(476,218,l),
(507,215,o),
(555,211,o),
(588,202,c),
(572,167,o),
(553,122,o),
(534,75,cs),
(515,28,o),
(498,-18,o),
(486,-57,c),
(439,-32,o),
(372,-4,o),
(301,21,cs),
(229,45,o),
(156,67,o),
(97,83,cs),
(68,91,o),
(43,97,o),
(24,102,cs),
(4,107,o),
(-8,109,o),
(-12,109,c),
(37,229,l),
(49,229,o),
(60,229,o),
(70,228,cs),
(79,227,o),
(87,227,o),
(95,227,cs),
(109,227,l),
(116,246,o),
(124,273,o),
(132,300,cs),
(139,327,o),
(146,351,o),
(151,366,c),
(141,365,o),
(129,365,o),
(114,365,cs),
(84,365,o),
(50,365,o),
(19,368,cs),
(3,369,o),
(-10,371,o),
(-21,373,c),
(106,492,o),
(183,616,o),
(202,719,c)
);
},
{
closed = 1;
nodes = (
(440,701,o),
(423,701,o),
(402,700,cs),
(381,699,o),
(359,699,o),
(337,698,cs),
(292,697,o),
(251,694,o),
(235,693,c),
(216,601,o),
(150,494,o),
(42,390,c),
(53,389,o),
(93,390,o),
(130,393,cs),
(152,394,o),
(176,396,o),
(202,398,c),
(133,192,l),
(60,200,l),
(24,133,l),
(43,129,o),
(89,119,o),
(145,104,cs),
(201,89,o),
(266,71,o),
(326,51,cs),
(385,31,o),
(438,10,o),
(467,-10,c),
(531,185,l),
(431,194,l),
(439,227,o),
(450,307,o),
(456,402,cs),
(462,497,o),
(464,608,o),
(453,701,c)
);
}
);
width = 586;
}
);
note = one;
unicode = 49;
},
{
glyphname = two;
layers = (
{
layerId = m01;
shapes = (
{
closed = 1;
nodes = (
(385,741,o),
(489,746,o),
(577,687,cs),
(620,659,o),
(648,618,o),
(652,562,c),
(653,478,o),
(627,392,o),
(593,317,cs),
(559,242,o),
(515,179,o),
(482,142,c),
(512,154,ls),
(536,163,o),
(561,173,o),
(581,181,cs),
(590,185,o),
(596,187,o),
(597,188,c),
(597,189,o),
(597,193,o),
(598,198,c),
(598,236,l),
(696,287,l),
(697,286,o),
(699,279,o),
(702,268,cs),
(708,245,o),
(719,209,o),
(733,168,cs),
(747,127,o),
(763,84,o),
(780,49,cs),
(789,31,o),
(797,16,o),
(806,5,c),
(766,7,o),
(724,7,o),
(679,6,cs),
(415,-3,ls),
(333,-7,o),
(260,-4,o),
(204,5,cs),
(176,9,o),
(154,16,o),
(139,26,c),
(172,124,l),
(195,126,ls),
(221,128,o),
(258,135,o),
(298,152,cs),
(337,169,o),
(382,212,o),
(393,251,cs),
(404,290,o),
(405,317,o),
(381,341,cs),
(369,353,o),
(352,355,o),
(330,347,c),
(317,340,o),
(300,327,o),
(288,307,cs),
(275,287,o),
(264,259,o),
(263,223,c),
(2,443,l),
(37,491,o),
(80,538,o),
(126,579,cs),
(172,619,o),
(221,656,o),
(266,681,cs)
);
},
{
closed = 1;
nodes = (
(200,603,o),
(116,524,o),
(51,435,c),
(67,422,l),
(149,352,l),
(195,312,ls),
(209,299,o),
(221,289,o),
(232,280,cs),
(242,271,o),
(248,265,o),
(250,263,c),
(255,290,o),
(275,322,o),
(302,345,cs),
(329,368,o),
(360,380,o),
(387,368,cs),
(414,357,o),
(426,328,o),
(423,292,cs),
(419,256,o),
(400,215,o),
(362,180,cs),
(324,145,o),
(267,118,o),
(188,109,c),
(188,105,o),
(184,94,o),
(180,83,cs),
(176,72,o),
(172,61,o),
(172,57,c),
(199,41,o),
(250,35,o),
(314,34,cs),
(377,33,o),
(454,36,o),
(527,39,cs),
(612,43,o),
(694,48,o),
(754,43,c),
(737,72,o),
(721,115,o),
(710,155,cs),
(704,174,o),
(699,192,o),
(696,209,cs),
(687,245,l),
(683,241,o),
(667,234,o),
(652,227,cs),
(644,224,o),
(637,221,o),
(631,218,cs),
(625,215,o),
(621,214,o),
(620,214,c),
(620,205,ls),
(620,200,o),
(620,195,o),
(619,190,cs),
(618,183,o),
(618,176,o),
(618,169,c),
(448,121,l),
(488,158,o),
(533,230,o),
(569,310,cs),
(604,389,o),
(627,477,o),
(620,545,cs),
(615,593,o),
(597,629,o),
(561,654,cs),
(512,686,o),
(460,693,o),
(412,688,cs),
(364,683,o),
(319,667,o),
(284,648,cs)
);
}
);
width = 789;
}
);
note = two;
unicode = 50;
},
{
glyphname = three;
layers = (
{
layerId = m01;
shapes = (
{
closed = 1;
nodes = (
(273,766,l),
(276,746,o),
(278,729,o),
(281,714,cs),
(284,695,l),
(300,703,o),
(332,715,o),
(369,721,cs),
(406,727,o),
(450,728,o),
(490,719,cs),
(542,708,o),
(579,679,o),
(598,635,cs),
(609,611,o),
(613,592,o),
(613,569,cs),
(613,517,o),
(589,470,o),
(561,434,cs),
(533,397,o),
(502,370,o),
(487,358,c),
(506,346,o),
(536,321,o),
(563,287,cs),
(590,253,o),
(611,211,o),
(611,168,cs),
(611,113,o),
(590,76,o),
(560,51,cs),
(530,26,o),
(490,12,o),
(455,5,cs),
(419,-2,o),
(386,-2,o),
(369,1,cs),
(301,9,o),
(245,30,o),
(193,54,cs),
(166,65,o),
(140,77,o),
(115,90,cs),
(90,102,o),
(63,113,o),
(36,123,c),
(229,294,l),
(244,265,o),
(264,244,o),
(288,231,cs),
(311,218,o),
(335,214,o),
(355,215,cs),
(371,216,o),
(385,227,o),
(393,240,cs),
(400,253,o),
(400,271,o),
(384,284,cs),
(369,299,o),
(344,304,o),
(321,305,cs),
(309,306,o),
(298,306,o),
(289,305,cs),
(280,304,o),
(274,304,o),
(271,305,c),
(279,355,l),
(281,355,ls),
(302,359,o),
(330,369,o),
(354,382,cs),
(377,395,o),
(395,413,o),
(399,429,cs),
(406,453,o),
(392,455,o),
(377,455,cs),
(357,455,o),
(328,441,o),
(301,422,cs),
(274,403,o),
(249,382,o),
(237,366,c),
(155,361,l),
(151,396,o),
(125,451,o),
(93,506,cs),
(61,561,o),
(21,614,o),
(-12,643,c)
);
},
{
closed = 1;
nodes = (
(266,731,o),
(259,729,o),
(247,724,cs),
(204,706,ls),
(187,699,o),
(169,691,o),
(150,684,cs),
(52,644,l),
(28,635,l),
(57,607,o),
(91,559,o),
(120,511,cs),
(148,462,o),
(171,413,o),
(178,381,c),
(210,383,ls),
(217,384,o),
(223,384,o),
(228,385,c),
(237,385,l),
(250,401,o),
(284,436,o),
(321,461,cs),
(357,485,o),
(396,498,o),
(420,467,cs),
(439,442,o),
(423,413,o),
(394,390,cs),
(365,367,o),
(323,350,o),
(291,347,c),
(289,323,l),
(353,322,o),
(386,307,o),
(403,289,cs),
(420,271,o),
(422,251,o),
(421,242,cs),
(418,218,o),
(400,190,o),
(373,187,cs),
(354,183,o),
(326,183,o),
(298,194,cs),
(270,205,o),
(242,227,o),
(223,267,c),
(91,144,l),
(113,134,o),
(135,123,o),
(157,112,cs),
(200,88,o),
(245,66,o),
(296,51,cs),
(321,43,o),
(348,37,o),
(377,34,cs),
(397,33,o),
(440,29,o),
(484,42,cs),
(527,55,o),
(570,84,o),
(590,144,cs),
(602,183,o),
(593,218,o),
(576,250,cs),
(559,281,o),
(534,308,o),
(510,328,cs),
(486,348,o),
(465,360,o),
(456,363,c),
(465,368,o),
(488,385,o),
(513,409,cs),
(537,433,o),
(563,464,o),
(579,501,cs),
(594,537,o),
(599,578,o),
(579,621,c),
(564,662,o),
(532,688,o),
(485,697,c),
(445,708,o),
(400,704,o),
(362,696,cs),
(324,688,o),
(292,676,o),
(279,665,c),
(278,676,o),
(276,685,o),
(275,694,cs),
(272,716,ls),
(271,723,o),
(269,729,o),
(268,732,c)
);
}
);
width = 627;
}
);
note = three;
unicode = 51;
},
{
glyphname = four;
layers = (
{
layerId = m01;
shapes = (
{
closed = 1;
nodes = (
(525,718,l),
(528,721,l),
(542,663,o),
(555,611,o),
(566,564,cs),
(571,544,o),
(575,525,o),
(580,506,cs),
(585,487,o),
(589,471,o),
(592,456,cs),
(595,441,o),
(598,428,o),
(601,419,cs),
(604,404,l),
(633,408,o),
(645,420,o),
(650,436,cs),
(654,451,o),
(651,470,o),
(648,491,c),
(718,498,l),
(721,485,o),
(726,466,o),
(733,441,cs),
(740,415,o),
(747,387,o),
(755,358,cs),
(779,271,l),
(798,203,l),
(668,181,l),
(676,141,o),
(687,99,o),
(698,64,cs),
(709,29,o),
(718,1,o),
(723,-12,c),
(684,-16,o),
(621,-16,o),
(554,-9,cs),
(487,-2,o),
(419,8,o),
(368,24,c),
(364,104,l),
(378,105,o),
(391,107,o),
(402,109,cs),
(417,112,l),
(422,112,o),
(426,112,o),
(429,113,cs),
(433,114,o),
(437,114,o),
(441,114,c),
(428,184,l),
(364,183,o),
(280,187,o),
(202,199,cs),
(124,211,o),
(51,229,o),
(11,257,c),
(78,309,o),
(146,391,o),
(205,475,cs),
(264,559,o),
(311,643,o),
(331,699,c)
);
},
{
closed = 1;
nodes = (
(518,685,o),
(514,685,o),
(505,684,cs),
(496,683,o),
(486,681,o),
(473,680,cs),
(460,678,o),
(447,676,o),
(433,675,cs),
(418,673,o),
(405,671,o),
(392,670,cs),
(379,668,o),
(369,667,o),
(361,666,cs),
(347,664,l),
(330,615,o),
(288,539,o),
(236,464,cs),
(184,388,o),
(121,314,o),
(61,267,c),
(106,244,o),
(170,228,o),
(238,217,cs),
(305,206,o),
(377,202,o),
(434,203,c),
(458,100,l),
(424,97,l),
(401,94,ls),
(387,93,o),
(388,92,o),
(389,84,cs),
(389,75,o),
(391,63,o),
(392,55,cs),
(393,50,o),
(393,48,o),
(394,47,c),
(438,34,o),
(494,26,o),
(549,23,cs),
(604,19,o),
(655,20,o),
(688,24,c),
(687,28,o),
(684,36,o),
(681,49,cs),
(674,73,o),
(667,107,o),
(659,144,cs),
(655,163,o),
(651,180,o),
(648,197,c),
(662,200,ls),
(670,201,o),
(680,203,o),
(692,206,cs),
(716,210,o),
(744,216,o),
(768,221,c),
(763,237,o),
(756,260,o),
(749,287,cs),
(745,300,o),
(741,314,o),
(738,329,cs),
(726,371,l),
(698,475,l),
(668,467,l),
(671,414,o),
(645,379,o),
(592,374,c),
(579,431,o),
(568,483,o),
(557,528,cs),
(532,635,ls),
(529,650,o),
(526,662,o),
(524,671,cs),
(521,680,o),
(520,684,o),
(519,685,c)
);
},
{
closed = 1;
nodes = (
(315,416,o),
(349,467,o),
(385,527,c),
(392,499,o),
(398,470,o),
(405,440,cs),
(412,409,o),
(419,382,o),
(426,358,c),
(411,357,o),
(385,355,o),
(355,356,cs),
(325,356,o),
(292,359,o),
(264,363,c)
);
},
{
closed = 1;
nodes = (
(374,472,o),
(361,454,o),
(349,435,cs),
(342,426,o),
(336,417,o),
(329,409,cs),
(322,401,o),
(317,394,o),
(312,388,c),
(355,384,o),
(382,385,o),
(401,388,c),
(400,395,o),
(395,415,o),
(391,436,cs),
(386,456,o),
(381,477,o),
(381,488,c)
);
}
);
width = 785;
}
);
note = four;
unicode = 52;
},
{
glyphname = five;
layers = (
{
layerId = m01;
shapes = (
{
closed = 1;
nodes = (
(430,717,l),
(631,693,l),
(630,658,o),
(629,626,o),
(627,596,cs),
(626,571,o),
(624,545,o),
(623,523,cs),
(622,501,o),
(620,483,o),
(619,475,c),
(648,466,o),
(672,454,o),
(691,435,cs),
(726,402,o),
(744,358,o),
(744,304,cs),
(744,219,o),
(697,147,o),
(630,96,cs),
(562,45,o),
(474,15,o),
(393,12,cs),
(320,8,o),
(246,27,o),
(182,63,cs),
(117,98,o),
(59,151,o),
(19,216,c),
(110,269,ls),
(127,278,o),
(143,288,o),
(160,297,c),
(148,326,o),
(132,362,o),
(113,399,cs),
(94,436,o),
(75,475,o),
(56,510,cs),
(-12,636,l),
(67,643,o),
(137,649,o),
(200,654,cs),
(227,656,o),
(253,658,o),
(279,661,cs),
(304,663,o),
(327,665,o),
(348,666,cs),
(369,667,o),
(386,669,o),
(399,670,cs),
(412,671,o),
(419,671,o),
(420,671,c)
);
},
{
closed = 1;
nodes = (
(629,453,o),
(571,457,o),
(523,453,cs),
(495,450,o),
(466,445,o),
(437,438,c),
(401,426,o),
(369,409,o),
(346,394,cs),
(333,386,o),
(320,378,o),
(309,369,c),
(255,463,l),
(433,454,l),
(481,473,o),
(549,485,o),
(601,478,c),
(602,487,o),
(603,500,o),
(604,518,cs),
(604,536,o),
(604,554,o),
(605,573,cs),
(606,595,o),
(606,618,o),
(606,643,c),
(437,665,l),
(430,640,l),
(164,617,ls),
(140,614,o),
(118,612,o),
(99,611,cs),
(50,608,l),
(25,606,l),
(46,567,ls),
(66,527,o),
(93,470,o),
(122,410,cs),
(136,379,o),
(149,351,o),
(161,326,cs),
(173,300,o),
(183,278,o),
(192,261,cs),
(200,243,o),
(205,233,o),
(206,232,c),
(239,271,o),
(289,310,o),
(339,339,cs),
(389,368,o),
(442,390,o),
(485,395,cs),
(528,399,o),
(561,387,o),
(572,351,cs),
(583,312,o),
(565,285,o),
(537,267,cs),
(509,249,o),
(472,239,o),
(445,238,cs),
(385,238,o),
(342,273,o),
(309,304,c),
(293,292,o),
(266,264,o),
(242,239,cs),
(228,224,o),
(214,209,o),
(199,192,c),
(195,203,o),
(191,215,o),
(186,226,cs),
(182,235,o),
(178,246,o),
(174,257,cs),
(169,268,o),
(165,279,o),
(160,288,c),
(60,219,l),
(132,111,o),
(249,42,o),
(386,45,c),
(426,48,o),
(485,63,o),
(541,91,cs),
(597,118,o),
(650,156,o),
(682,201,cs),
(709,240,o),
(717,284,o),
(713,324,cs),
(709,363,o),
(693,399,o),
(666,420,cs)
);
},
{
closed = 1;
nodes = (
(375,443,o),
(352,442,o),
(334,442,cs),
(299,442,l),
(306,427,o),
(314,407,o),
(321,398,c),
(334,407,o),
(357,425,o),
(396,444,c)
);
},
{
closed = 1;
nodes = (
(464,373,o),
(399,357,o),
(327,310,c),
(358,279,o),
(397,257,o),
(452,257,cs),
(476,257,o),
(508,265,o),
(531,280,cs),
(554,295,o),
(568,316,o),
(555,341,c),
(544,354,o),
(531,363,o),
(504,366,cs)
);
}
);
width = 740;
}
);
note = five;
unicode = 53;
},
{
glyphname = six;
layers = (
{
layerId = m01;
shapes = (
{
closed = 1;
nodes = (
(263,690,l),
(413,759,l),
(572,454,l),
(535,454,o),
(490,446,o),
(450,432,cs),
(410,418,o),
(373,398,o),
(350,374,c),
(389,398,o),
(442,413,o),
(492,412,cs),
(542,411,o),
(589,392,o),
(616,345,cs),
(649,288,o),
(640,222,o),
(607,165,cs),
(574,108,o),
(518,57,o),
(455,29,cs),
(403,5,o),
(334,-6,o),
(267,2,cs),
(199,10,o),
(133,35,o),
(83,80,cs),
(33,124,o),
(0,189,o),
(0,277,cs),
(0,354,o),
(27,418,o),
(74,474,cs),
(121,529,o),
(187,575,o),
(267,615,c)
);
},
{
closed = 1;
nodes = (
(284,661,l),
(289,592,l),
(217,548,o),
(155,507,o),
(109,459,cs),
(63,410,o),
(35,353,o),
(35,280,cs),
(35,203,o),
(66,146,o),
(111,106,cs),
(156,65,o),
(218,43,o),
(279,36,cs),
(339,28,o),
(401,36,o),
(446,57,cs),
(503,81,o),
(555,127,o),
(585,179,cs),
(615,231,o),
(623,292,o),
(594,345,c),
(565,390,o),
(507,401,o),
(450,394,cs),
(393,386,o),
(336,361,o),
(308,337,c),
(320,374,o),
(352,404,o),
(392,426,cs),
(432,448,o),
(480,461,o),
(527,465,c),
(503,510,o),
(470,570,o),
(442,621,cs),
(425,650,o),
(409,680,o),
(392,709,c)
);
},
{
closed = 1;
nodes = (
(309,297,o),
(315,304,o),
(327,309,cs),
(332,311,o),
(339,313,o),
(346,314,cs),
(379,319,o),
(402,310,o),
(413,301,cs),
(432,286,o),
(443,259,o),
(434,235,cs),
(427,210,o),
(380,203,o),
(345,220,cs),
(310,236,o),
(285,262,o),
(302,289,c)
);
},
{
closed = 1;
nodes = (
(342,239,o),
(369,226,o),
(396,226,cs),
(412,226,o),
(418,243,o),
(413,262,cs),
(408,281,o),
(391,294,o),
(377,298,cs),
(363,301,o),
(348,299,o),
(337,294,cs),
(325,289,o),
(317,278,o),
(321,270,c),
(322,266,o),
(324,262,o),
(327,259,cs)
);
}
);
width = 632;
}
);
note = six;
unicode = 54;
},
{
glyphname = seven;
layers = (
{
layerId = m01;
shapes = (
{
closed = 1;
nodes = (
(118,324,l),
(-6,684,l),
(764,713,l),
(764,458,l),
(704,414,o),
(653,345,o),
(618,263,cs),
(583,181,o),
(564,86,o),
(565,-11,c),
(135,-15,l),
(135,-11,ls),
(139,56,o),
(163,113,o),
(196,164,cs),
(228,215,o),
(270,259,o),
(307,302,cs),
(334,331,o),
(358,358,o),
(378,383,c),
(359,383,ls),
(349,382,o),
(338,382,o),
(327,382,cs),
(296,382,l),
(287,381,o),
(281,381,o),
(279,381,c),
(279,380,o),
(279,376,o),
(278,371,cs),
(277,359,o),
(274,344,o),
(270,324,c)
);
},
{
closed = 1;
nodes = (
(734,681,l),
(733,681,o),
(723,681,o),
(702,680,cs),
(622,677,ls),
(589,676,o),
(551,674,o),
(509,673,cs),
(467,672,o),
(424,670,o),
(381,669,cs),
(337,667,o),
(294,665,o),
(252,664,cs),
(210,663,o),
(173,661,o),
(140,660,cs),
(60,657,ls),
(39,656,o),
(28,656,o),
(27,656,c),
(28,655,o),
(30,650,o),
(33,641,cs),
(36,632,o),
(41,620,o),
(46,605,cs),
(51,590,o),
(56,574,o),
(63,556,cs),
(70,538,o),
(76,520,o),
(83,501,cs),
(99,457,o),
(116,407,o),
(135,352,c),
(253,348,l),
(263,397,l),
(428,402,l),
(379,351,o),
(335,302,o),
(296,255,cs),
(263,215,o),
(230,171,o),
(204,129,cs),
(178,87,o),
(160,48,o),
(159,17,c),
(160,17,o),
(166,17,o),
(177,18,cs),
(188,18,o),
(202,18,o),
(220,19,cs),
(238,19,o),
(258,19,o),
(281,20,cs),
(304,21,o),
(327,21,o),
(351,22,cs),
(407,24,o),
(470,26,o),
(541,27,c),
(542,112,o),
(562,203,o),
(595,283,cs),
(628,363,o),
(675,434,o),
(731,475,c),
(732,512,o),
(732,545,o),
(733,575,cs),
(733,588,o),
(733,600,o),
(734,613,cs)
);
}
);
width = 776;
}
);
note = seven;
unicode = 55;
},
{
glyphname = eight;
layers = (
{
layerId = m01;
shapes = (
{
closed = 1;
nodes = (
(42,593,o),
(71,647,o),
(119,685,cs),
(167,723,o),
(234,747,o),
(307,747,cs),
(382,747,o),
(448,723,o),
(496,685,cs),
(544,647,o),
(574,593,o),
(574,536,cs),
(574,499,o),
(564,463,o),
(543,430,c),
(586,398,o),
(614,357,o),
(625,308,cs),
(628,296,o),
(628,283,o),
(628,268,cs),
(628,229,o),
(614,187,o),
(590,150,cs),
(541,74,o),
(458,23,o),
(357,4,cs),
(256,-17,o),
(158,-1,o),
(86,46,cs),
(35,79,o),
(2,126,o),
(-9,179,cs),
(-12,192,o),
(-12,204,o),
(-12,217,cs),
(-12,286,o),
(25,356,o),
(92,407,c),
(57,446,o),
(42,489,o),
(42,536,cs)
);
},
{
closed = 1;
nodes = (
(172,30,o),
(262,17,o),
(351,36,cs),
(443,55,o),
(517,101,o),
(564,168,c),
(593,217,o),
(603,265,o),
(593,312,cs),
(585,357,o),
(558,397,o),
(518,426,c),
(516,426,l),
(518,428,l),
(538,456,o),
(548,489,o),
(548,521,cs),
(548,573,o),
(522,620,o),
(479,656,cs),
(435,691,o),
(375,712,o),
(307,712,cs),
(240,712,o),
(180,691,o),
(136,656,cs),
(92,620,o),
(65,573,o),
(65,521,cs),
(65,478,o),
(81,440,o),
(113,407,cs),
(115,405,l),
(113,405,l),
(41,345,o),
(4,268,o),
(20,195,cs),
(31,147,o),
(60,106,o),
(105,75,cs)
);
},
{
closed = 1;
nodes = (
(205,502,o),
(224,529,o),
(248,543,cs),
(272,557,o),
(300,558,o),
(307,558,cs),
(335,558,o),
(361,550,o),
(379,535,cs),
(397,519,o),
(408,496,o),
(405,468,c),
(342,479,o),
(275,470,o),
(214,453,c)
);
},
{
closed = 1;
nodes = (
(284,543,o),
(269,533,o),
(260,521,cs),
(251,508,o),
(246,492,o),
(249,481,c),
(288,492,o),
(333,497,o),
(372,488,c),
(367,525,o),
(340,543,o),
(303,543,cs)
);
},
{
closed = 1;
nodes = (
(233,285,o),
(245,299,o),
(261,307,cs),
(277,315,o),
(299,317,o),
(320,312,cs),
(357,304,o),
(388,283,o),
(387,248,cs),
(387,227,o),
(374,211,o),
(356,202,cs),
(338,193,o),
(315,191,o),
(296,195,cs),
(279,199,o),
(259,208,o),
(246,220,cs),
(233,232,o),
(225,248,o),
(229,268,cs)
);
},
{
closed = 1;
nodes = (
(322,217,o),
(353,221,o),
(357,248,c),
(362,268,o),
(345,289,o),
(314,296,cs),
(289,301,o),
(259,295,o),
(256,268,cs),
(253,245,o),
(272,227,o),
(299,222,cs)
);
}
);
width = 625;
}
);
note = eight;
unicode = 56;
},
{
glyphname = nine;
layers = (
{
layerId = m01;
shapes = (
{
closed = 1;
nodes = (
(-33,511,o),
(-6,591,o),
(55,647,cs),
(116,702,o),
(213,733,o),
(346,733,cs),
(481,733,o),
(578,682,o),
(635,600,cs),
(692,518,o),
(709,404,o),
(682,279,cs),
(662,190,o),
(615,127,o),
(556,84,cs),
(496,40,o),
(426,15,o),
(361,3,cs),
(296,-10,o),
(235,-12,o),
(195,-11,c),
(202,29,o),
(205,63,o),
(206,98,cs),
(206,133,o),
(204,168,o),
(200,208,c),
(175,209,o),
(151,213,o),
(127,218,cs),
(114,221,o),
(103,224,o),
(92,228,cs),
(16,259,o),
(-24,323,o),
(-28,415,cs)
);
},
{
closed = 1;
nodes = (
(162,221,o),
(219,219,o),
(274,228,cs),
(329,237,o),
(381,260,o),
(424,289,c),
(419,240,o),
(393,208,o),
(365,188,cs),
(336,167,o),
(303,158,o),
(283,154,c),
(275,167,o),
(268,177,o),
(263,185,c),
(260,188,o),
(258,191,o),
(257,192,c),
(249,189,o),
(230,188,o),
(222,188,c),
(223,177,o),
(225,162,o),
(226,145,cs),
(227,127,o),
(229,110,o),
(230,94,cs),
(231,75,o),
(233,56,o),
(234,35,c),
(261,38,o),
(310,42,o),
(365,55,cs),
(420,67,o),
(481,88,o),
(533,127,cs),
(585,166,o),
(629,221,o),
(646,301,cs),
(667,409,o),
(657,511,o),
(609,585,cs),
(561,659,o),
(475,705,o),
(346,705,cs),
(229,705,o),
(129,673,o),
(66,610,cs),
(17,557,o),
(-6,491,o),
(-4,412,c),
(3,328,o),
(39,275,o),
(107,244,cs)
);
},
{
closed = 1;
nodes = (
(399,420,o),
(429,397,o),
(429,366,cs),
(429,335,o),
(399,312,o),
(363,312,cs),
(327,312,o),
(299,335,o),
(299,366,cs),
(299,397,o),
(327,420,o),
(363,420,cs)
);
},
{
closed = 1;
nodes = (
(381,335,o),
(401,350,o),
(401,370,cs),
(401,390,o),
(381,407,o),
(354,407,cs),
(327,407,o),
(308,390,o),
(308,370,cs),
(308,350,o),
(327,335,o),
(354,335,cs)
);
},
{
closed = 1;
nodes = (
(363,228,o),
(319,213,o),
(264,208,c),
(278,189,l),
(281,181,l),
(341,192,o),
(376,208,o),
(396,244,c)
);
}
);
width = 684;
}
);
note = nine;
unicode = 57;
},
{
glyphname = asterisk;
layers = (
{
layerId = m01;
shapes = (
{
closed = 1;
nodes = (
(241,556,o),
(285,560,o),
(313,560,c),
(327,547,o),
(337,531,o),
(344,514,cs),
(350,496,o),
(357,476,o),
(366,454,c),
(399,467,o),
(439,471,o),
(462,467,c),
(481,460,o),
(501,442,o),
(517,417,c),
(510,405,o),
(494,389,o),
(474,372,cs),
(454,355,o),
(431,337,o),
(411,322,c),
(436,299,o),
(457,261,o),
(466,236,c),
(451,189,o),
(412,149,o),
(349,121,c),
(334,129,o),
(313,147,o),
(293,167,cs),
(272,186,o),
(254,207,o),
(243,222,c),
(236,216,o),
(228,209,o),
(219,200,cs),
(201,182,o),
(180,162,o),
(159,146,cs),
(148,137,o),
(138,130,o),
(128,125,c),
(99,132,o),
(55,150,o),
(30,191,c),
(34,207,o),
(47,230,o),
(62,251,cs),
(69,262,o),
(77,272,o),
(85,282,cs),
(104,308,l),
(75,327,o),
(31,357,o),
(0,381,c),
(23,410,o),
(43,427,o),
(60,439,c),
(68,442,o),
(87,440,o),
(109,437,cs),
(131,434,o),
(158,431,o),
(183,427,c),
(186,474,o),
(199,516,o),
(214,540,c)
);
},
{
closed = 1;
nodes = (
(201,410,l),
(181,411,o),
(162,413,o),
(143,416,cs),
(124,418,o),
(111,418,o),
(106,417,c),
(91,408,o),
(71,391,o),
(54,372,c),
(70,347,o),
(107,326,o),
(130,311,c),
(122,300,o),
(108,282,o),
(96,263,cs),
(83,243,o),
(71,223,o),
(67,210,c),
(90,178,o),
(119,163,o),
(144,159,c),
(159,167,o),
(178,183,o),
(197,199,cs),
(224,223,l),
(245,241,l),
(252,229,o),
(269,213,o),
(286,198,cs),
(303,183,o),
(322,171,o),
(334,166,c),
(429,249,l),
(385,320,l),
(401,331,o),
(420,348,o),
(439,365,cs),
(458,381,o),
(473,397,o),
(481,406,c),
(466,425,o),
(433,441,o),
(418,446,c),
(402,449,o),
(374,444,o),
(350,432,c),
(335,469,o),
(327,496,o),
(308,517,c),
(303,517,o),
(294,517,o),
(282,518,cs),
(270,519,o),
(255,518,o),
(238,517,c)
);
}
);
width = 500;
}
);
note = asterisk;
unicode = 42;
},
{
glyphname = backslash;
layers = (
{
layerId = m01;
shapes = (
{
closed = 1;
nodes = (
(322,16,o),
(275,69,o),
(230,127,cs),
(185,185,o),
(144,248,o),
(108,305,cs),
(67,373,o),
(27,444,o),
(-10,519,c),
(14,546,o),
(38,567,o),
(66,592,cs),
(80,604,o),
(94,615,o),
(107,624,c),
(135,563,o),
(175,498,o),
(223,436,cs),
(270,374,o),
(324,313,o),
(376,261,cs),
(428,209,o),
(480,165,o),
(523,134,c),
(514,118,o),
(488,88,o),
(458,58,cs),
(428,28,o),
(394,-4,o),
(370,-21,c)
);
},
{
closed = 1;
nodes = (
(25,483,o),
(53,431,o),
(90,369,cs),
(126,307,o),
(171,236,o),
(219,173,cs),
(266,109,o),
(316,55,o),
(360,27,c),
(393,56,o),
(416,80,o),
(435,102,cs),
(444,113,o),
(449,121,o),
(450,126,c),
(423,150,o),
(381,197,o),
(334,250,cs),
(287,303,o),
(235,365,o),
(191,422,cs),
(147,478,o),
(109,529,o),
(89,562,c),
(56,543,o),
(32,523,o),
(13,508,c)
);
}
);
width = 500;
}
);
note = backslash;
unicode = 92;
},
{
glyphname = colon;
layers = (
{
layerId = m01;
shapes = (
{
closed = 1;
nodes = (
(211,677,o),
(252,669,o),
(279,650,cs),
(310,627,o),
(328,595,o),
(333,555,cs),
(333,553,o),
(334,550,o),
(335,547,cs),
(336,543,o),
(337,540,o),
(337,537,cs),
(337,497,o),
(319,456,o),
(292,425,cs),
(261,384,o),
(211,357,o),
(166,353,cs),
(126,348,o),
(85,357,o),
(58,380,cs),
(27,403,o),
(9,434,o),
(4,470,cs),
(-5,515,o),
(13,564,o),
(45,605,cs),
(76,641,o),
(126,668,o),
(171,672,cs)
);
},
{
closed = 1;
nodes = (
(196,376,o),
(234,404,o),
(256,437,cs),
(278,469,o),
(288,508,o),
(281,547,cs),
(277,566,o),
(270,583,o),
(261,596,c),
(246,623,o),
(225,636,o),
(198,645,c),
(171,650,o),
(144,646,o),
(121,627,c),
(90,608,o),
(67,578,o),
(58,537,cs),
(49,501,o),
(57,461,o),
(76,429,cs),
(91,406,o),
(112,389,o),
(139,384,cs)
);
},
{
closed = 1;
nodes = (
(211,327,o),
(252,319,o),
(279,300,cs),
(310,277,o),
(328,245,o),
(333,205,cs),
(333,203,o),
(334,200,o),
(335,197,cs),
(336,193,o),
(337,190,o),
(337,187,cs),
(337,147,o),
(319,106,o),
(292,75,cs),
(261,34,o),
(211,7,o),
(166,3,cs),
(126,-2,o),
(85,7,o),
(58,30,cs),
(27,53,o),
(9,84,o),
(4,120,cs),
(-5,165,o),
(13,214,o),
(45,255,cs),
(76,291,o),
(126,318,o),
(171,322,cs)
);
},
{
closed = 1;
nodes = (
(196,26,o),
(234,54,o),
(256,87,cs),
(278,119,o),
(288,158,o),
(281,197,cs),
(277,216,o),
(270,233,o),
(261,246,c),
(246,273,o),
(225,286,o),
(198,295,c),
(171,300,o),
(144,296,o),
(121,277,c),
(90,258,o),
(67,228,o),
(58,187,cs),
(49,151,o),
(57,111,o),
(76,79,cs),
(91,56,o),
(112,39,o),
(139,34,cs)
);
}
);
width = 500;
}
);
note = colon;
unicode = 58;
},
{
glyphname = comma;
layers = (
{
layerId = m01;
shapes = (
{
closed = 1;
nodes = (
(212,314,o),
(266,308,o),
(307,276,c),
(354,245,o),
(381,186,o),
(390,94,cs),
(399,11,o),
(376,-52,o),
(331,-97,cs),
(296,-129,o),
(254,-145,o),
(215,-152,cs),
(175,-159,o),
(140,-156,o),
(117,-152,c),
(142,-131,o),
(163,-111,o),
(177,-90,cs),
(191,-70,o),
(191,-50,o),
(191,-38,cs),
(190,-27,o),
(188,-21,o),
(185,-16,c),
(183,-14,o),
(181,-12,o),
(180,-10,c),
(164,-14,o),
(135,-19,o),
(106,-12,cs),
(77,-5,o),
(45,13,o),
(25,53,cs),
(16,69,o),
(5,92,o),
(1,118,cs),
(-3,144,o),
(-1,171,o),
(12,199,cs),
(35,250,o),
(80,282,o),
(148,295,c)
);
},
{
closed = 1;
nodes = (
(88,33,o),
(108,18,o),
(129,14,cs),
(150,9,o),
(173,12,o),
(194,16,c),
(198,16,l),
(203,12,l),
(215,-1,o),
(221,-17,o),
(221,-38,cs),
(221,-41,o),
(220,-44,o),
(219,-48,cs),
(217,-52,o),
(216,-56,o),
(216,-61,c),
(212,-84,o),
(199,-105,o),
(176,-124,c),
(216,-124,o),
(266,-111,o),
(307,-70,cs),
(340,-38,o),
(353,2,o),
(353,62,cs),
(353,94,l),
(336,245,o),
(266,298,o),
(167,267,cs),
(110,249,o),
(75,222,o),
(61,186,cs),
(52,163,o),
(52,140,o),
(56,118,cs),
(60,96,o),
(68,77,o),
(75,62,cs)
);
}
);
width = 396;
}
);
note = comma;
unicode = 44;
},
{
glyphname = exclam;
layers = (
{
layerId = m01;
shapes = (
{
closed = 1;
nodes = (
(116,661,l),
(147,692,ls),
(155,700,o),
(164,709,o),
(175,719,c),
(311,712,l),
(307,704,l),
(304,683,ls),
(302,670,o),
(299,652,o),
(296,630,cs),
(293,607,o),
(289,582,o),
(284,553,cs),
(279,524,o),
(275,493,o),
(270,462,cs),
(260,398,o),
(248,333,o),
(237,274,c),
(233,266,l),
(144,250,l),
(-8,619,l),
(15,626,o),
(35,633,o),
(53,640,cs),
(68,645,o),
(82,650,o),
(95,655,cs)
);
},
{
closed = 1;
nodes = (
(131,626,l),
(98,614,o),
(73,606,o),
(50,599,cs),
(39,596,o),
(31,593,o),
(27,592,c),
(28,589,o),
(32,581,o),
(39,566,cs),
(46,551,o),
(54,533,o),
(63,512,cs),
(72,491,o),
(82,468,o),
(93,445,cs),
(104,421,o),
(114,399,o),
(123,378,cs),
(132,357,o),
(139,340,o),
(146,326,cs),
(156,301,l),
(161,301,o),
(173,302,o),
(185,303,cs),
(196,304,o),
(209,307,o),
(214,308,c),
(220,342,o),
(226,378,o),
(233,416,cs),
(246,491,o),
(259,561,o),
(268,614,cs),
(272,640,o),
(274,658,o),
(275,669,c),
(267,669,o),
(246,670,o),
(226,671,cs),
(215,672,o),
(206,672,o),
(198,673,cs),
(181,673,o),
(182,674,o),
(171,664,cs),
(166,659,o),
(160,653,o),
(154,648,cs)
);
},
{
closed = 1;
nodes = (
(307,2,o),
(277,-11,o),
(245,-11,cs),
(212,-12,o),
(177,-2,o),
(146,22,cs),
(87,73,o),
(69,145,o),
(108,196,cs),
(127,221,o),
(155,234,o),
(188,234,cs),
(220,234,o),
(255,223,o),
(286,200,cs),
(315,176,o),
(335,146,o),
(342,114,cs),
(349,82,o),
(344,50,o),
(324,25,cs)
);
},
{
closed = 1;
nodes = (
(247,185,o),
(220,192,o),
(195,192,cs),
(170,192,o),
(147,185,o),
(131,169,cs),
(100,134,o),
(114,84,o),
(161,53,cs),
(185,37,o),
(213,30,o),
(239,30,cs),
(265,30,o),
(288,37,o),
(301,53,cs),
(317,70,o),
(320,91,o),
(315,112,cs),
(310,133,o),
(294,153,o),
(271,169,cs)
);
}
);
width = 349;
}
);
note = exclam;
unicode = 33;
},
{
glyphname = numbersign;
layers = (
{
layerId = m01;
shapes = (
{
closed = 1;
nodes = (
(772,170,o),
(737,165,o),
(690,162,cs),
(643,158,o),
(587,155,o),
(527,152,c),
(530,131,o),
(535,110,o),
(541,91,cs),
(559,31,l),
(554,29,o),
(548,26,o),
(539,23,cs),
(522,15,o),
(502,7,o),
(486,-1,cs),
(465,-10,l),
(438,29,o),
(414,84,o),
(391,149,c),
(323,149,l),
(336,108,o),
(353,67,o),
(374,28,c),
(365,23,o),
(352,18,o),
(337,12,cs),
(322,5,o),
(307,-3,o),
(294,-13,c),
(267,28,o),
(236,84,o),
(203,152,c),
(132,155,o),
(74,161,o),
(42,172,c),
(35,181,o),
(27,197,o),
(20,216,cs),
(12,235,o),
(6,255,o),
(3,275,c),
(35,272,o),
(91,269,o),
(159,269,c),
(148,293,o),
(140,323,o),
(133,352,c),
(77,355,o),
(29,362,o),
(-6,369,c),
(-17,449,l),
(-8,449,o),
(7,449,o),
(30,450,cs),
(53,450,o),
(80,451,o),
(112,452,c),
(109,495,o),
(109,537,o),
(112,578,c),
(268,637,l),
(267,616,o),
(266,590,o),
(266,561,cs),
(266,532,o),
(267,500,o),
(268,466,c),
(279,466,o),
(290,467,o),
(301,468,cs),
(311,469,o),
(322,471,o),
(333,472,c),
(333,511,o),
(333,552,o),
(336,595,c),
(507,657,l),
(504,614,o),
(501,558,o),
(501,487,c),
(592,502,o),
(675,517,o),
(730,537,c),
(733,530,o),
(736,504,o),
(740,476,cs),
(743,447,o),
(747,415,o),
(750,398,c),
(687,381,o),
(601,366,o),
(504,358,c),
(504,333,o),
(504,307,o),
(507,284,c),
(595,291,o),
(675,304,o),
(735,316,c),
(739,299,o),
(749,272,o),
(760,246,cs),
(771,220,o),
(783,192,o),
(792,175,c)
);
},
{
closed = 1;
nodes = (
(504,155,o),
(504,159,o),
(503,162,cs),
(502,165,o),
(501,168,o),
(501,172,c),
(524,172,ls),
(575,173,o),
(621,175,o),
(660,178,cs),
(699,181,o),
(730,184,o),
(747,187,c),
(730,227,o),
(721,260,o),
(721,287,c),
(665,278,o),
(591,269,o),
(511,261,cs),
(506,261,o),
(501,261,o),
(498,260,cs),
(494,259,o),
(490,258,o),
(485,258,c),
(482,266,o),
(482,274,o),
(482,281,cs),
(481,294,o),
(479,307,o),
(477,319,cs),
(474,330,o),
(472,342,o),
(471,355,cs),
(471,366,l),
(482,366,o),
(490,366,o),
(501,369,c),
(585,376,o),
(659,387,o),
(712,404,c),
(708,420,o),
(705,443,o),
(702,463,cs),
(695,507,l),
(650,492,o),
(580,478,o),
(497,469,c),
(488,466,o),
(480,466,o),
(465,466,c),
(465,484,ls),
(465,531,o),
(465,569,o),
(468,601,c),
(362,560,l),
(359,529,o),
(359,501,o),
(359,472,cs),
(359,452,l),
(333,452,l),
(268,446,l),
(253,446,l),
(253,463,l),
(250,486,o),
(249,509,o),
(249,532,cs),
(249,554,o),
(250,573,o),
(253,589,c),
(139,546,l),
(136,514,o),
(136,484,o),
(139,455,c),
(139,440,l),
(116,440,ls),
(65,437,o),
(30,437,o),
(15,437,c),
(15,375,l),
(48,368,o),
(86,363,o),
(129,358,c),
(151,358,l),
(151,357,o),
(152,355,o),
(154,354,c),
(155,352,o),
(156,350,o),
(156,349,cs),
(159,336,o),
(163,322,o),
(166,308,cs),
(169,294,o),
(172,281,o),
(177,269,cs),
(183,249,l),
(165,249,ls),
(109,249,o),
(63,252,o),
(32,255,c),
(44,215,ls),
(47,205,o),
(52,196,o),
(59,187,c),
(72,184,o),
(91,181,o),
(115,180,cs),
(138,178,o),
(165,175,o),
(194,172,c),
(216,172,l),
(226,152,ls),
(249,99,o),
(274,59,o),
(294,28,c),
(350,55,l),
(333,84,o),
(320,116,o),
(307,149,c),
(305,152,o),
(304,156,o),
(303,160,cs),
(300,169,l),
(404,169,l),
(410,149,ls),
(427,98,o),
(446,62,o),
(465,31,c),
(530,58,l),
(525,74,o),
(521,90,o),
(516,105,cs),
(511,120,o),
(507,135,o),
(504,152,c)
);
},
{
closed = 1;
nodes = (
(365,349,ls),
(366,336,o),
(368,323,o),
(371,311,cs),
(374,298,o),
(376,286,o),
(377,275,c),
(382,268,o),
(382,259,o),
(382,252,c),
(362,252,ls),
(351,252,o),
(340,252,o),
(329,251,cs),
(318,250,o),
(307,249,o),
(297,249,cs),
(277,249,l),
(277,252,o),
(277,256,o),
(276,259,cs),
(275,262,o),
(274,265,o),
(274,269,c),
(267,293,o),
(265,323,o),
(262,346,cs),
(262,350,o),
(261,353,o),
(259,355,c),
(342,355,l),
(350,358,o),
(358,358,o),
(365,358,c)
);
},
{
closed = 1;
nodes = (
(314,272,o),
(336,272,o),
(359,272,c),
(356,285,o),
(353,298,o),
(352,311,cs),
(350,323,o),
(348,336,o),
(345,349,c),
(334,349,o),
(322,349,o),
(311,348,cs),
(300,347,o),
(288,346,o),
(277,346,c),
(278,335,o),
(281,322,o),
(284,308,cs),
(287,294,o),
(290,281,o),
(291,269,c)
);
}
);
width = 800;
}
);
note = numbersign;
unicode = 35;
},
{
glyphname = period;
layers = (
{
layerId = m01;
shapes = (
{
closed = 1;
nodes = (
(211,324,o),
(252,316,o),
(279,297,cs),
(310,274,o),
(328,242,o),
(333,202,cs),
(333,200,o),
(334,197,o),
(335,194,cs),
(336,190,o),
(337,187,o),
(337,184,cs),
(337,144,o),
(319,103,o),
(292,72,cs),
(261,31,o),
(211,4,o),
(166,0,cs),
(126,-5,o),
(85,4,o),
(58,27,cs),
(27,50,o),
(9,81,o),
(4,117,cs),
(-5,162,o),
(13,211,o),
(45,252,cs),
(76,288,o),
(126,315,o),
(171,319,cs)
);
},
{
closed = 1;
nodes = (
(196,23,o),
(234,51,o),
(256,84,cs),
(278,116,o),
(288,155,o),
(281,194,cs),
(277,213,o),
(270,230,o),
(261,243,c),
(246,270,o),
(225,283,o),
(198,292,c),
(171,297,o),
(144,293,o),
(121,274,c),
(90,255,o),
(67,225,o),
(58,184,cs),
(49,148,o),
(57,108,o),
(76,76,cs),
(91,53,o),
(112,36,o),
(139,31,cs)
);
}
);
width = 339;
}
);
note = period;
unicode = 46;
},
{
glyphname = question;
layers = (
{
layerId = m01;
shapes = (
{
closed = 1;
nodes = (
(173,361,l),
(11,628,l),
(199,724,l),
(239,671,l),
(268,690,o),
(313,707,o),
(361,716,cs),
(409,725,o),
(462,724,o),
(506,704,cs),
(546,687,o),
(575,656,o),
(595,618,cs),
(614,580,o),
(622,534,o),
(622,489,cs),
(622,412,o),
(592,366,o),
(556,338,cs),
(520,310,o),
(478,300,o),
(457,295,c),
(456,292,o),
(454,283,o),
(453,270,cs),
(451,257,o),
(449,242,o),
(446,227,cs),
(443,210,o),
(440,190,o),
(437,169,c),
(397,184,o),
(356,196,o),
(322,204,cs),
(305,208,o),
(290,211,o),
(279,214,cs),
(268,216,o),
(261,217,o),
(258,218,c),
(282,374,l),
(302,373,o),
(329,374,o),
(356,379,cs),
(383,383,o),
(407,394,o),
(420,410,c),
(427,421,o),
(431,437,o),
(424,453,cs),
(413,476,o),
(391,476,o),
(368,473,cs),
(343,468,o),
(317,455,o),
(297,439,cs),
(277,422,o),
(264,403,o),
(265,384,c)
);
},
{
closed = 1;
nodes = (
(448,694,o),
(393,697,o),
(329,681,cs),
(296,673,o),
(264,656,o),
(232,631,c),
(226,639,o),
(220,647,o),
(214,654,cs),
(209,660,o),
(204,666,o),
(200,672,c),
(195,677,o),
(192,681,o),
(189,684,c),
(159,670,l),
(115,649,ls),
(99,642,o),
(84,635,o),
(70,628,cs),
(55,621,o),
(44,616,o),
(37,612,c),
(52,591,ls),
(59,579,o),
(68,565,o),
(79,549,cs),
(99,517,o),
(124,479,o),
(144,448,cs),
(170,409,ls),
(177,398,o),
(182,392,o),
(183,390,c),
(188,390,o),
(199,392,o),
(211,396,c),
(217,397,o),
(223,399,o),
(229,401,cs),
(242,404,l),
(245,428,o),
(270,453,o),
(302,471,cs),
(334,489,o),
(374,499,o),
(406,496,cs),
(438,492,o),
(461,475,o),
(461,435,cs),
(461,400,o),
(431,380,o),
(396,369,cs),
(360,357,o),
(320,354,o),
(301,354,c),
(301,346,o),
(299,324,o),
(296,302,cs),
(293,280,o),
(291,256,o),
(288,248,c),
(300,245,o),
(319,241,o),
(343,234,cs),
(367,227,o),
(395,220,o),
(420,209,c),
(425,236,ls),
(426,247,o),
(428,259,o),
(430,271,cs),
(432,283,o),
(434,294,o),
(435,304,cs),
(437,321,l),
(466,328,o),
(508,336,o),
(542,359,cs),
(576,382,o),
(602,421,o),
(602,486,cs),
(602,523,o),
(595,564,o),
(580,599,cs),
(564,634,o),
(539,662,o),
(503,674,cs)
);
},
{
closed = 1;
nodes = (
(454,70,o),
(443,45,o),
(424,25,cs),
(404,5,o),
(376,-9,o),
(344,-12,cs),
(277,-19,o),
(223,14,o),
(216,67,cs),
(212,94,o),
(222,119,o),
(241,139,cs),
(260,159,o),
(288,172,o),
(321,176,cs),
(354,179,o),
(384,173,o),
(408,159,cs),
(431,145,o),
(446,124,o),
(450,97,cs)
);
},
{
closed = 1;
nodes = (
(282,138,o),
(245,103,o),
(245,64,c),
(249,27,o),
(288,5,o),
(335,14,cs),
(384,25,o),
(420,60,o),
(420,100,c),
(417,136,o),
(378,160,o),
(331,149,cs)
);
}
);
width = 633;
}
);
note = question;
unicode = 63;
},
{
glyphname = quotedbl;
layers = (
{
layerId = m01;
shapes = (
{
closed = 1;
nodes = (
(45,730,o),
(97,737,o),
(145,737,cs),
(193,737,o),
(237,730,o),
(264,718,c),
(265,701,o),
(266,685,o),
(266,670,cs),
(266,639,o),
(264,610,o),
(257,581,cs),
(254,566,o),
(249,551,o),
(244,534,c),
(220,522,o),
(201,498,o),
(188,475,cs),
(175,451,o),
(167,427,o),
(164,412,c),
(161,409,o),
(151,407,o),
(140,406,cs),
(128,405,o),
(118,405,o),
(114,408,c),
(107,431,o),
(94,460,o),
(78,488,cs),
(62,515,o),
(43,538,o),
(27,549,c),
(19,581,o),
(12,613,o),
(8,653,cs),
(6,673,o),
(5,694,o),
(5,715,c)
);
},
{
closed = 1;
nodes = (
(324,730,o),
(376,737,o),
(424,737,cs),
(472,737,o),
(516,730,o),
(543,718,c),
(544,701,o),
(544,685,o),
(544,670,cs),
(544,639,o),
(542,610,o),
(536,581,cs),
(533,566,o),
(528,551,o),
(522,534,c),
(498,522,o),
(479,498,o),
(467,475,cs),
(454,451,o),
(446,427,o),
(443,412,c),
(439,409,o),
(429,407,o),
(418,406,cs),
(406,405,o),
(396,405,o),
(392,408,c),
(385,431,o),
(372,460,o),
(356,488,cs),
(340,515,o),
(322,538,o),
(305,549,c),
(296,581,o),
(291,613,o),
(287,653,cs),
(285,673,o),
(284,694,o),
(284,715,c)
);
},
{
closed = 1;
nodes = (
(72,551,o),
(87,528,o),
(99,504,cs),
(110,480,o),
(117,455,o),
(121,435,c),
(132,428,o),
(145,434,o),
(156,442,c),
(167,487,o),
(185,533,o),
(221,552,c),
(226,576,o),
(228,598,o),
(228,618,cs),
(228,638,o),
(227,659,o),
(225,681,c),
(202,693,o),
(178,703,o),
(150,708,cs),
(135,710,o),
(119,711,o),
(102,711,cs),
(84,711,o),
(64,710,o),
(41,707,c),
(37,648,o),
(40,610,o),
(51,567,c)
);
},
{
closed = 1;
nodes = (
(350,551,o),
(365,528,o),
(377,504,cs),
(388,480,o),
(395,455,o),
(399,435,c),
(410,428,o),
(423,434,o),
(434,442,c),
(445,487,o),
(463,533,o),
(499,552,c),
(504,576,o),
(506,598,o),
(506,618,cs),
(506,638,o),
(505,659,o),
(504,681,c),
(480,693,o),
(456,703,o),
(428,708,cs),
(413,710,o),
(397,711,o),
(380,711,cs),
(362,711,o),
(342,710,o),
(319,707,c),
(315,648,o),
(318,610,o),
(329,567,c)
);
}
);
width = 548;
}
);
note = quotedbl;
unicode = 34;
},
{
glyphname = quotesingle;
layers = (
{
layerId = m01;
shapes = (
{
closed = 1;
nodes = (
(51,715,o),
(106,722,o),
(158,722,cs),
(210,722,o),
(259,716,o),
(287,705,c),
(291,644,o),
(289,598,o),
(265,538,c),
(240,526,o),
(219,506,o),
(205,484,cs),
(191,462,o),
(182,440,o),
(179,427,c),
(175,424,o),
(164,422,o),
(152,422,c),
(146,421,o),
(141,421,o),
(136,421,cs),
(131,421,o),
(127,422,o),
(125,423,c),
(117,444,o),
(103,471,o),
(86,495,cs),
(69,519,o),
(50,542,o),
(31,551,c),
(22,580,o),
(15,610,o),
(11,646,cs),
(9,664,o),
(8,683,o),
(8,702,c)
);
},
{
closed = 1;
nodes = (
(80,553,o),
(96,533,o),
(108,511,cs),
(120,489,o),
(128,465,o),
(132,448,c),
(144,441,o),
(159,447,o),
(170,454,c),
(181,495,o),
(201,538,o),
(240,554,c),
(245,576,o),
(248,596,o),
(248,614,cs),
(248,632,o),
(247,651,o),
(245,671,c),
(220,683,o),
(195,691,o),
(164,695,cs),
(148,697,o),
(130,698,o),
(111,698,cs),
(92,698,o),
(70,697,o),
(46,695,c),
(42,642,o),
(45,607,o),
(57,568,c)
);
}
);
width = 296;
}
);
note = quotesingle;
unicode = 39;
},
{
glyphname = semicolon;
layers = (
{
layerId = m01;
shapes = (
{
closed = 1;
nodes = (
(211,707,o),
(252,699,o),
(279,680,cs),
(310,657,o),
(328,625,o),
(333,585,cs),
(333,583,o),
(334,580,o),
(335,577,cs),
(336,573,o),
(337,570,o),
(337,567,cs),
(337,527,o),
(319,486,o),
(292,455,cs),
(261,414,o),
(211,387,o),
(166,383,cs),
(126,378,o),
(85,387,o),
(58,410,cs),
(27,433,o),
(9,464,o),
(4,500,cs),
(-5,545,o),
(13,594,o),
(45,635,cs),
(76,671,o),
(126,698,o),
(171,702,cs)
);
},
{
closed = 1;
nodes = (
(196,406,o),
(234,434,o),
(256,467,cs),
(278,499,o),
(288,538,o),
(281,577,cs),
(277,596,o),
(270,613,o),
(261,626,c),
(246,653,o),
(225,666,o),
(198,675,c),
(171,680,o),
(144,676,o),
(121,657,c),
(90,638,o),
(67,608,o),
(58,567,cs),
(49,531,o),
(57,491,o),
(76,459,cs),
(91,436,o),
(112,419,o),
(139,414,cs)
);
},
{
closed = 1;
nodes = (
(229,333,o),
(269,314,o),
(293,281,cs),
(321,246,o),
(329,195,o),
(310,123,cs),
(294,60,o),
(259,18,o),
(212,-3,cs),
(176,-19,o),
(137,-20,o),
(104,-15,cs),
(71,-10,o),
(43,1,o),
(27,9,c),
(52,20,o),
(73,29,o),
(91,41,cs),
(109,53,o),
(113,67,o),
(116,76,cs),
(117,80,o),
(118,84,o),
(118,87,cs),
(118,90,o),
(118,92,o),
(117,94,cs),
(116,95,o),
(115,97,o),
(115,99,c),
(102,100,o),
(77,104,o),
(56,117,cs),
(35,129,o),
(15,150,o),
(10,186,cs),
(7,201,o),
(5,220,o),
(9,241,cs),
(12,261,o),
(22,282,o),
(39,298,cs),
(70,330,o),
(115,343,o),
(172,336,c)
);
},
{
closed = 1;
nodes = (
(55,155,o),
(66,140,o),
(82,131,cs),
(97,122,o),
(116,119,o),
(133,116,cs),
(136,115,l),
(139,111,l),
(147,96,o),
(146,83,o),
(139,68,c),
(135,62,ls),
(133,59,o),
(131,55,o),
(130,52,c),
(121,37,o),
(104,24,o),
(81,15,c),
(113,4,o),
(156,3,o),
(199,23,cs),
(234,38,o),
(255,66,o),
(271,109,cs),
(274,116,o),
(276,124,o),
(279,133,cs),
(293,192,o),
(290,236,o),
(271,265,cs),
(254,293,o),
(224,308,o),
(180,310,cs),
(131,310,o),
(95,299,o),
(74,277,cs),
(47,246,o),
(48,205,o),
(52,180,cs)
);
}
);
width = 360;
}
);
note = semicolon;
unicode = 59;
},
{
glyphname = slash;
layers = (
{
layerId = m01;
shapes = (
{
closed = 1;
nodes = (
(392,606,o),
(426,575,o),
(456,545,cs),
(486,515,o),
(512,484,o),
(521,468,c),
(456,423,o),
(372,346,o),
(295,258,cs),
(218,170,o),
(146,70,o),
(105,-22,c),
(78,-3,o),
(49,24,o),
(26,45,cs),
(13,57,o),
(0,70,o),
(-12,83,c),
(25,158,o),
(65,229,o),
(106,297,cs),
(142,356,o),
(183,418,o),
(228,476,cs),
(273,534,o),
(320,586,o),
(368,623,c)
);
},
{
closed = 1;
nodes = (
(30,79,o),
(54,59,o),
(87,40,c),
(107,73,o),
(145,124,o),
(189,181,cs),
(233,237,o),
(285,299,o),
(332,352,cs),
(379,405,o),
(421,452,o),
(448,476,c),
(447,487,o),
(425,511,o),
(402,534,cs),
(389,547,o),
(375,560,o),
(358,575,c),
(314,547,o),
(264,493,o),
(217,430,cs),
(169,366,o),
(124,296,o),
(88,234,cs),
(51,172,o),
(23,119,o),
(11,94,c)
);
}
);
width = 500;
}
);
note = slash;
unicode = 47;
},
{
glyphname = underscore;
layers = (
{
layerId = m01;
shapes = (
{
closed = 1;
nodes = (
(547,-13,o),
(488,-20,o),
(416,-26,cs),
(344,-32,o),
(258,-38,o),
(184,-41,cs),
(110,-44,o),
(47,-46,o),
(23,-43,c),
(22,-34,o),
(19,-2,o),
(17,31,cs),
(15,64,o),
(14,101,o),
(15,118,c),
(40,114,o),
(100,111,o),
(173,110,cs),
(245,109,o),
(329,108,o),
(401,109,cs),
(472,109,o),
(531,111,o),
(552,115,c),
(555,105,o),
(558,93,o),
(559,80,cs),
(562,52,o),
(565,26,o),
(566,-5,c)
);
},
{
closed = 1;
nodes = (
(509,88,o),
(459,87,o),
(397,88,cs),
(366,88,o),
(332,88,o),
(297,89,cs),
(226,89,o),
(162,91,o),
(114,94,cs),
(89,95,o),
(73,97,o),
(64,98,c),
(63,91,o),
(63,82,o),
(63,70,cs),
(63,46,o),
(65,20,o),
(67,-1,cs),
(68,-12,o),
(68,-19,o),
(69,-22,c),
(86,-23,o),
(139,-22,o),
(203,-20,cs),
(266,-18,o),
(341,-15,o),
(404,-10,cs),
(435,-8,o),
(463,-6,o),
(486,-3,cs),
(509,0,o),
(525,2,o),
(532,5,c),
(533,26,o),
(531,46,o),
(530,66,cs),
(529,75,o),
(528,84,o),
(525,91,c)
);
}
);
width = 577;
}
);
note = underscore;
unicode = 95;
},
{
glyphname = bracketleft;
layers = (
{
layerId = m01;
shapes = (
{
closed = 1;
nodes = (
(325,81,o),
(315,84,o),
(301,88,cs),
(287,91,o),
(266,98,o),
(238,107,c),
(201,183,o),
(191,267,o),
(195,347,cs),
(199,427,o),
(217,504,o),
(236,564,c),
(247,569,o),
(261,576,o),
(276,584,cs),
(291,592,o),
(305,597,o),
(316,600,c),
(258,767,l),
(79,733,l),
(31,612,o),
(8,506,o),
(6,382,cs),
(4,258,o),
(26,117,o),
(67,-72,c),
(180,-79,o),
(268,-62,o),
(337,-42,c),
(341,80,l),
(340,79,o),
(337,79,o),
(331,80,cs)
);
},
{
closed = 1;
nodes = (
(50,139,o),
(33,267,o),
(34,380,cs),
(35,493,o),
(55,590,o),
(95,701,c),
(244,731,l),
(264,643,l),
(254,642,o),
(243,637,o),
(231,629,cs),
(218,621,o),
(207,615,o),
(198,612,c),
(181,556,o),
(172,459,o),
(175,359,cs),
(178,258,o),
(193,154,o),
(224,83,c),
(247,74,o),
(265,68,o),
(277,65,cs),
(288,62,o),
(297,59,o),
(302,58,cs),
(306,57,o),
(309,57,o),
(310,58,c),
(310,-8,l),
(251,-29,o),
(180,-44,o),
(83,-36,c)
);
}
);
width = 367;
}
);
note = bracketleft;
unicode = 91;
},
{
glyphname = bracketright;
layers = (
{
layerId = m01;
shapes = (
{
closed = 1;
nodes = (
(172,769,o),
(84,752,o),
(15,732,c),
(11,610,l),
(12,611,o),
(15,611,o),
(21,610,cs),
(27,609,o),
(37,606,o),
(51,603,cs),
(65,599,o),
(86,592,o),
(114,583,c),
(151,507,o),
(161,423,o),
(157,343,cs),
(153,263,o),
(135,186,o),
(116,126,c),
(105,121,o),
(91,114,o),
(76,106,cs),
(61,98,o),
(47,93,o),
(36,90,c),
(94,-77,l),
(273,-43,l),
(321,78,o),
(345,184,o),
(347,308,cs),
(349,432,o),
(328,573,o),
(285,762,c)
);
},
{
closed = 1;
nodes = (
(317,198,o),
(297,100,o),
(257,-11,c),
(108,-41,l),
(88,47,l),
(98,48,o),
(109,53,o),
(122,61,cs),
(134,69,o),
(145,75,o),
(154,78,c),
(171,134,o),
(180,231,o),
(177,332,cs),
(174,432,o),
(159,536,o),
(128,607,c),
(105,616,o),
(87,623,o),
(76,626,cs),
(65,629,o),
(56,632,o),
(51,633,cs),
(45,634,o),
(42,634,o),
(42,631,cs),
(42,698,l),
(101,719,o),
(172,734,o),
(269,726,c),
(302,553,o),
(319,423,o),
(318,311,cs)
);
}
);
width = 367;
}
);
note = bracketright;
unicode = 93;
},
{
glyphname = parenleft;
layers = (
{
layerId = m01;
shapes = (
{
closed = 1;
nodes = (
(192,-20,o),
(104,10,o),
(53,50,c),
(40,105,o),
(22,177,o),
(14,253,cs),
(6,329,o),
(8,410,o),
(33,480,cs),
(58,550,o),
(106,611,o),
(193,648,c),
(170,588,o),
(148,531,o),
(137,469,cs),
(126,407,o),
(127,339,o),
(149,259,cs),
(171,178,o),
(213,84,o),
(288,-32,c)
);
},
{
closed = 1;
nodes = (
(85,543,o),
(46,467,o),
(34,376,cs),
(21,284,o),
(35,178,o),
(64,74,c),
(107,37,o),
(167,26,o),
(238,22,c),
(162,145,o),
(122,252,o),
(111,345,cs),
(99,438,o),
(119,518,o),
(160,590,c)
);
}
);
width = 277;
}
);
note = parenleft;
unicode = 40;
},
{
glyphname = parenright;
layers = (
{
layerId = m01;
shapes = (
{
closed = 1;
nodes = (
(57,640,o),
(102,626,o),
(142,610,cs),
(182,593,o),
(215,574,o),
(239,551,c),
(248,496,o),
(260,422,o),
(263,346,cs),
(266,270,o),
(259,189,o),
(229,121,cs),
(199,53,o),
(146,-5,o),
(57,-36,c),
(85,23,o),
(110,78,o),
(126,139,cs),
(141,200,o),
(145,268,o),
(129,350,cs),
(112,432,o),
(75,529,o),
(10,649,c)
);
},
{
closed = 1;
nodes = (
(171,61,o),
(216,133,o),
(236,221,cs),
(256,309,o),
(251,414,o),
(228,519,c),
(189,559,o),
(133,575,o),
(82,582,c),
(150,454,o),
(177,348,o),
(174,257,cs),
(171,165,o),
(141,88,o),
(94,20,c)
);
}
);
width = 272;
}
);
note = parenright;
unicode = 41;
},
{
glyphname = hyphen;
layers = (
{
layerId = m01;
shapes = (
{
closed = 1;
nodes = (
(2,395,l),
(22,403,o),
(59,411,o),
(103,417,cs),
(147,423,o),
(198,428,o),
(244,431,cs),
(290,434,o),
(331,436,o),
(355,433,c),
(356,424,o),
(360,392,o),
(362,359,cs),
(364,326,o),
(364,289,o),
(363,272,c),
(326,277,o),
(255,281,o),
(186,282,cs),
(117,282,o),
(48,280,o),
(16,275,c),
(11,296,o),
(8,325,o),
(5,350,cs)
);
},
{
closed = 1;
nodes = (
(67,303,o),
(121,304,o),
(176,302,cs),
(231,300,o),
(287,296,o),
(314,292,c),
(315,299,o),
(315,308,o),
(315,320,cs),
(315,344,o),
(314,370,o),
(312,391,cs),
(311,402,o),
(310,409,o),
(309,412,c),
(292,413,o),
(260,413,o),
(225,411,cs),
(189,409,o),
(150,405,o),
(115,401,cs),
(80,396,o),
(51,392,o),
(36,385,c),
(35,364,o),
(37,344,o),
(38,325,cs),
(39,315,o),
(40,306,o),
(43,299,c)
);
}
);
width = 392;
}
);
note = hyphen;
unicode = 45;
},
{
glyphname = dollar;
layers = (
{
layerId = m01;
shapes = (
{
closed = 1;
nodes = (
(220,725,o),
(269,737,o),
(313,740,c),
(302,723,o),
(290,697,o),
(279,672,cs),
(268,647,o),
(260,622,o),
(257,605,c),
(260,606,o),
(263,606,o),
(266,607,cs),
(283,611,l),
(284,612,o),
(284,613,o),
(284,616,cs),
(284,618,o),
(284,621,o),
(285,624,cs),
(287,636,l),
(289,647,l),
(290,651,l),
(302,658,o),
(328,666,o),
(354,672,cs),
(380,678,o),
(405,680,o),
(414,679,c),
(410,651,o),
(412,607,o),
(417,560,cs),
(421,512,o),
(429,463,o),
(437,427,c),
(404,427,o),
(359,415,o),
(324,403,cs),
(303,396,o),
(283,388,o),
(262,380,c),
(258,404,o),
(254,426,o),
(253,448,cs),
(252,459,o),
(252,468,o),
(253,476,c),
(235,465,o),
(224,456,o),
(220,450,cs),
(215,443,o),
(213,437,o),
(213,431,cs),
(213,412,o),
(223,392,o),
(252,375,cs),
(281,358,o),
(328,342,o),
(404,330,cs),
(455,319,o),
(494,297,o),
(503,278,cs),
(506,273,o),
(510,254,o),
(508,231,cs),
(506,208,o),
(497,182,o),
(473,159,c),
(509,144,o),
(542,106,o),
(567,79,c),
(555,68,o),
(531,54,o),
(508,42,cs),
(484,29,o),
(460,18,o),
(447,13,c),
(444,22,o),
(437,40,o),
(429,57,cs),
(425,66,o),
(421,74,o),
(418,83,cs),
(414,92,o),
(410,99,o),
(407,105,c),
(406,103,o),
(404,102,o),
(403,101,cs),
(402,100,o),
(399,97,o),
(395,94,c),
(404,65,o),
(413,33,o),
(416,6,c),
(408,-1,o),
(392,-8,o),
(373,-15,cs),
(353,-22,o),
(331,-27,o),
(312,-28,c),
(320,7,o),
(320,42,o),
(320,58,c),
(265,31,o),
(206,34,o),
(158,58,cs),
(110,81,o),
(71,122,o),
(58,173,c),
(74,193,o),
(104,212,o),
(137,229,cs),
(153,238,o),
(169,246,o),
(185,253,cs),
(201,260,o),
(215,267,o),
(227,273,c),
(250,258,o),
(286,227,o),
(309,191,c),
(344,195,o),
(358,228,o),
(351,248,cs),
(347,259,o),
(332,266,o),
(313,271,cs),
(293,275,o),
(269,279,o),
(248,282,cs),
(200,289,o),
(150,293,o),
(122,312,c),
(85,332,o),
(55,359,o),
(35,385,cs),
(15,411,o),
(4,437,o),
(1,457,c),
(10,472,o),
(27,486,o),
(46,499,cs),
(65,512,o),
(85,524,o),
(101,533,c),
(92,542,o),
(83,561,o),
(75,582,cs),
(67,603,o),
(61,628,o),
(58,651,c),
(69,658,o),
(90,670,o),
(112,680,cs),
(134,690,o),
(155,699,o),
(167,700,c),
(166,684,o),
(164,658,o),
(164,632,cs),
(163,619,o),
(163,606,o),
(163,595,cs),
(163,583,o),
(164,574,o),
(165,568,c),
(170,572,o),
(189,580,o),
(200,581,c),
(191,608,o),
(185,636,o),
(184,660,cs),
(183,671,o),
(184,681,o),
(185,690,cs),
(186,698,o),
(187,703,o),
(189,706,c)
);
},
{
closed = 1;
nodes = (
(253,702,o),
(230,699,o),
(202,687,c),
(197,663,o),
(199,641,o),
(203,621,cs),
(205,611,o),
(207,602,o),
(210,594,cs),
(213,585,o),
(215,578,o),
(216,572,c),
(204,568,o),
(189,561,o),
(176,554,cs),
(169,551,o),
(161,547,o),
(154,542,c),
(153,559,o),
(151,576,o),
(149,592,cs),
(146,619,o),
(144,650,o),
(144,666,c),
(124,657,o),
(100,646,o),
(79,633,c),
(84,593,o),
(104,543,o),
(119,520,c),
(84,500,o),
(54,479,o),
(35,452,c),
(38,436,o),
(47,411,o),
(63,387,cs),
(78,363,o),
(99,339,o),
(124,323,cs),
(155,304,o),
(203,297,o),
(248,290,cs),
(280,286,o),
(311,283,o),
(336,276,cs),
(360,269,o),
(377,260,o),
(378,248,cs),
(382,228,o),
(366,209,o),
(346,196,cs),
(326,183,o),
(302,173,o),
(290,173,c),
(287,185,o),
(280,200,o),
(269,215,cs),
(257,230,o),
(243,243,o),
(230,250,c),
(209,243,o),
(182,230,o),
(158,215,cs),
(134,199,o),
(113,183,o),
(101,170,c),
(120,122,o),
(154,87,o),
(195,71,cs),
(216,62,o),
(238,58,o),
(261,58,cs),
(284,58,o),
(308,63,o),
(331,73,c),
(334,54,o),
(334,16,o),
(334,-3,c),
(354,-2,o),
(383,11,o),
(400,22,c),
(400,42,o),
(394,77,o),
(383,100,c),
(395,105,o),
(406,113,o),
(415,120,c),
(422,111,o),
(428,100,o),
(433,87,cs),
(437,74,o),
(442,60,o),
(448,47,c),
(469,55,o),
(503,72,o),
(524,91,c),
(519,97,o),
(512,103,o),
(505,109,cs),
(497,114,o),
(489,120,o),
(482,126,cs),
(466,137,o),
(452,147,o),
(441,152,c),
(446,160,o),
(456,177,o),
(463,198,cs),
(470,219,o),
(473,244,o),
(462,269,cs),
(451,289,o),
(424,309,o),
(385,317,c),
(324,325,o),
(273,339,o),
(238,359,cs),
(202,379,o),
(183,403,o),
(186,431,cs),
(187,447,o),
(205,465,o),
(223,479,cs),
(241,493,o),
(261,503,o),
(269,504,c),
(268,497,o),
(268,489,o),
(268,480,cs),
(268,452,ls),
(268,432,o),
(270,415,o),
(271,403,c),
(306,420,o),
(362,440,o),
(403,452,c),
(400,463,o),
(395,498,o),
(392,539,cs),
(390,559,o),
(389,580,o),
(389,603,cs),
(389,625,o),
(390,645,o),
(393,662,c),
(358,663,o),
(322,651,o),
(303,639,cs),
(296,635,o),
(294,626,o),
(291,615,cs),
(289,609,o),
(288,603,o),
(287,596,c),
(268,590,ls),
(263,589,o),
(257,587,o),
(252,585,cs),
(246,583,o),
(241,581,o),
(237,580,c),
(238,591,o),
(244,611,o),
(252,635,cs),
(260,658,o),
(272,685,o),
(285,706,c)
);
}
);
width = 567;
}
);
note = dollar;
unicode = 36;
},
{
glyphname = equal;
layers = (
{
layerId = m01;
shapes = (
{
closed = 1;
nodes = (
(2,404,l),
(22,412,o),
(72,420,o),
(134,426,cs),
(196,432,o),
(267,437,o),
(331,440,cs),
(394,443,o),
(448,445,o),
(473,442,c),
(474,433,o),
(478,401,o),
(480,368,cs),
(482,335,o),
(482,298,o),
(481,281,c),
(457,285,o),
(403,288,o),
(342,289,cs),
(281,290,o),
(209,291,o),
(149,291,cs),
(89,290,o),
(37,288,o),
(16,284,c),
(11,305,o),
(8,334,o),
(5,359,cs)
);
},
{
closed = 1;
nodes = (
(59,311,o),
(101,312,o),
(153,312,cs),
(178,311,o),
(206,311,o),
(235,311,cs),
(293,310,o),
(347,308,o),
(388,305,cs),
(409,304,o),
(423,302,o),
(432,301,c),
(433,308,o),
(433,317,o),
(433,329,cs),
(433,353,o),
(432,379,o),
(430,400,cs),
(429,411,o),
(428,418,o),
(427,421,c),
(410,422,o),
(365,422,o),
(312,420,cs),
(259,418,o),
(198,414,o),
(146,410,cs),
(94,405,o),
(51,399,o),
(36,394,c),
(35,373,o),
(37,353,o),
(38,334,cs),
(39,324,o),
(40,315,o),
(43,308,c)
);
},
{
closed = 1;
nodes = (
(2,204,l),
(22,212,o),
(72,220,o),
(134,226,cs),
(196,232,o),
(267,237,o),
(331,240,cs),
(394,243,o),
(448,245,o),
(473,242,c),
(474,233,o),
(478,201,o),
(480,168,cs),
(482,135,o),
(482,98,o),
(481,81,c),
(457,85,o),
(403,88,o),
(342,89,cs),
(281,90,o),
(209,91,o),
(149,91,cs),
(89,90,o),
(37,88,o),
(16,84,c),
(11,105,o),
(8,134,o),
(5,159,cs)
);
},
{
closed = 1;
nodes = (
(59,111,o),
(101,112,o),
(153,112,cs),
(178,111,o),
(206,111,o),
(235,111,cs),
(293,110,o),
(347,108,o),
(388,105,cs),
(409,104,o),
(423,102,o),
(432,101,c),
(433,108,o),
(433,117,o),
(433,129,cs),
(433,153,o),
(432,179,o),
(430,200,cs),
(429,211,o),
(428,218,o),
(427,221,c),
(410,222,o),
(365,222,o),
(312,220,cs),
(259,218,o),
(198,214,o),
(146,210,cs),
(94,205,o),
(51,201,o),
(36,194,c),
(35,173,o),
(37,153,o),
(38,134,cs),
(39,124,o),
(40,115,o),
(43,108,c)
);
}
);
width = 500;
}
);
note = equal;
unicode = 61;
},
{
glyphname = greater;
layers = (
{
layerId = m01;
shapes = (
{
closed = 1;
nodes = (
(77,101,l),
(262,276,l),
(26,407,l),
(115,622,l),
(467,459,l),
(475,226,l),
(137,19,l)
);
},
{
closed = 1;
nodes = (
(296,275,l),
(158,131,l),
(166,87,l),
(438,236,l),
(417,415,l),
(142,572,l),
(79,397,l)
);
}
);
width = 500;
}
);
note = greater;
unicode = 62;
},
{
glyphname = less;
layers = (
{
layerId = m01;
shapes = (
{
closed = 1;
nodes = (
(425,33,l),
(55,178,l),
(23,408,l),
(340,631,l),
(465,436,l),
(257,265,l),
(469,125,l)
);
},
{
closed = 1;
nodes = (
(223,257,l),
(415,416,l),
(321,578,l),
(79,374,l),
(91,195,l),
(384,96,l),
(385,140,l)
);
}
);
width = 500;
}
);
note = less;
unicode = 60;
},
{
glyphname = percent;
layers = (
{
layerId = m01;
shapes = (
{
closed = 1;
nodes = (
(520,675,o),
(549,641,o),
(576,608,cs),
(603,575,o),
(625,542,o),
(633,525,c),
(564,486,o),
(473,419,o),
(387,339,cs),
(301,259,o),
(219,168,o),
(168,81,c),
(143,104,o),
(116,132,o),
(96,156,cs),
(84,170,o),
(73,184,o),
(62,198,c),
(107,268,o),
(153,335,o),
(202,398,cs),
(243,453,o),
(291,510,o),
(342,563,cs),
(393,616,o),
(445,663,o),
(497,695,c)
);
},
{
closed = 1;
nodes = (
(124,683,o),
(82,666,o),
(55,639,cs),
(26,610,o),
(7,571,o),
(11,535,cs),
(12,504,o),
(24,479,o),
(47,459,c),
(66,438,o),
(98,428,o),
(130,429,cs),
(166,428,o),
(208,446,o),
(236,475,cs),
(261,498,o),
(278,529,o),
(282,561,cs),
(282,563,o),
(282,566,o),
(281,569,cs),
(280,572,o),
(280,574,o),
(280,575,cs),
(280,606,o),
(268,633,o),
(245,655,cs),
(225,672,o),
(193,683,o),
(161,682,cs)
);
},
{
closed = 1;
nodes = (
(89,463,o),
(74,478,o),
(65,497,cs),
(53,524,o),
(49,556,o),
(60,584,cs),
(71,616,o),
(90,639,o),
(117,650,c),
(136,662,o),
(157,665,o),
(180,658,c),
(200,649,o),
(217,637,o),
(226,614,c),
(239,591,o),
(243,558,o),
(232,527,cs),
(221,499,o),
(201,472,o),
(174,460,cs),
(154,451,o),
(133,449,o),
(112,456,cs)
);
},
{
closed = 1;
nodes = (
(95,198,o),
(105,189,o),
(116,178,cs),
(127,167,o),
(141,155,o),
(156,144,c),
(179,175,o),
(223,222,o),
(273,274,cs),
(323,325,o),
(380,381,o),
(433,429,cs),
(485,477,o),
(532,519,o),
(561,540,c),
(561,551,o),
(542,580,o),
(523,607,cs),
(512,623,o),
(499,640,o),
(485,658,c),
(438,635,o),
(383,585,o),
(329,526,cs),
(275,466,o),
(221,399,o),
(178,340,cs),
(134,280,o),
(101,230,o),
(86,206,c)
);
},
{
closed = 1;
nodes = (
(450,350,o),
(408,332,o),
(381,307,cs),
(352,276,o),
(333,239,o),
(336,203,cs),
(337,174,o),
(350,146,o),
(373,127,c),
(392,106,o),
(424,95,o),
(456,96,cs),
(492,95,o),
(534,112,o),
(562,143,cs),
(586,166,o),
(604,196,o),
(608,228,cs),
(608,230,o),
(608,233,o),
(607,236,cs),
(606,239,o),
(606,241,o),
(606,243,cs),
(606,274,o),
(594,301,o),
(570,323,cs),
(551,339,o),
(519,350,o),
(487,349,cs)
);
},
{
closed = 1;
nodes = (
(416,130,o),
(400,145,o),
(391,164,cs),
(379,191,o),
(375,223,o),
(386,251,cs),
(397,283,o),
(416,306,o),
(443,317,c),
(462,330,o),
(483,333,o),
(506,326,c),
(526,315,o),
(543,304,o),
(552,281,c),
(564,258,o),
(568,225,o),
(557,194,cs),
(546,166,o),
(527,139,o),
(500,127,cs),
(480,118,o),
(458,118,o),
(437,123,cs)
);
}
);
width = 665;
}
);
note = percent;
unicode = 37;
},
{
glyphname = plus;
layers = (
{
layerId = m01;
shapes = (
{
closed = 1;
nodes = (
(478,412,o),
(481,375,o),
(483,336,cs),
(485,297,o),
(486,256,o),
(485,236,c),
(450,241,o),
(397,244,o),
(337,245,c),
(341,185,o),
(342,133,o),
(341,102,c),
(330,101,o),
(294,97,o),
(255,95,cs),
(215,93,o),
(174,91,o),
(154,92,c),
(158,127,o),
(161,184,o),
(164,248,c),
(86,245,ls),
(62,244,o),
(43,242,o),
(30,241,c),
(23,265,o),
(17,299,o),
(14,327,cs),
(12,344,o),
(11,361,o),
(10,378,c),
(39,389,o),
(98,397,o),
(166,404,c),
(166,464,o),
(165,519,o),
(158,547,c),
(182,555,o),
(216,560,o),
(244,563,cs),
(261,565,o),
(278,567,o),
(295,568,c),
(307,537,o),
(316,483,o),
(323,419,c),
(387,423,o),
(442,424,o),
(475,421,c)
);
},
{
closed = 1;
nodes = (
(439,275,o),
(438,305,o),
(436,334,cs),
(434,362,o),
(432,389,o),
(429,397,c),
(325,397,l),
(322,396,o),
(318,395,o),
(315,395,cs),
(304,395,l),
(304,407,ls),
(304,410,o),
(304,414,o),
(303,417,c),
(296,464,o),
(292,503,o),
(285,520,c),
(272,521,o),
(260,521,o),
(248,521,cs),
(227,521,o),
(204,520,o),
(185,513,c),
(189,493,o),
(191,453,o),
(191,408,cs),
(191,388,l),
(186,387,o),
(182,387,o),
(178,387,cs),
(174,387,o),
(170,386,o),
(166,385,c),
(118,381,o),
(78,374,o),
(55,367,c),
(54,354,o),
(54,342,o),
(54,330,cs),
(54,309,o),
(57,284,o),
(62,267,c),
(73,270,o),
(92,270,o),
(116,270,cs),
(186,270,l),
(185,261,o),
(185,250,o),
(185,238,cs),
(184,226,o),
(184,214,o),
(183,202,cs),
(182,190,o),
(182,179,o),
(182,169,cs),
(181,159,o),
(181,151,o),
(180,145,c),
(187,144,o),
(198,144,o),
(211,144,cs),
(238,144,o),
(267,146,o),
(292,149,cs),
(304,150,o),
(312,152,o),
(316,153,c),
(317,158,o),
(317,166,o),
(317,175,cs),
(317,240,l),
(316,251,o),
(316,261,o),
(316,269,c),
(335,268,o),
(359,266,o),
(381,266,cs),
(403,265,o),
(424,263,o),
(436,260,c)
);
}
);
width = 500;
}
);
note = plus;
unicode = 43;
},
{
glyphname = at;
layers = (
{
layerId = m01;
shapes = (
{
closed = 1;
nodes = (
(340,516,o),
(407,503,o),
(459,479,cs),
(510,454,o),
(547,414,o),
(572,374,cs),
(602,327,o),
(621,270,o),
(630,205,c),
(571,170,o),
(526,136,o),
(485,93,cs),
(464,72,o),
(450,49,o),
(443,26,c),
(435,41,o),
(425,61,o),
(417,81,cs),
(408,100,o),
(400,118,o),
(399,126,c),
(376,95,o),
(336,81,o),
(293,74,cs),
(256,69,o),
(215,78,o),
(184,97,cs),
(153,116,o),
(132,145,o),
(132,180,cs),
(131,217,o),
(145,250,o),
(168,275,cs),
(191,300,o),
(223,318,o),
(258,325,cs),
(299,336,o),
(340,316,o),
(363,300,c),
(368,303,o),
(373,307,o),
(380,310,cs),
(393,317,o),
(406,323,o),
(421,330,c),
(436,294,o),
(449,264,o),
(461,237,cs),
(467,223,o),
(472,213,o),
(475,207,c),
(475,286,o),
(450,334,o),
(412,361,cs),
(374,388,o),
(321,392,o),
(265,381,cs),
(210,370,o),
(174,345,o),
(151,317,cs),
(127,288,o),
(116,255,o),
(112,231,cs),
(111,222,o),
(108,198,o),
(112,169,cs),
(116,140,o),
(128,115,o),
(144,95,c),
(163,76,o),
(194,62,o),
(230,54,cs),
(265,46,o),
(306,43,o),
(339,48,c),
(266,1,o),
(180,-9,o),
(113,23,cs),
(46,54,o),
(-2,125,o),
(2,241,cs),
(3,270,o),
(16,328,o),
(53,381,cs),
(90,434,o),
(152,485,o),
(252,501,cs)
);
},
{
closed = 1;
nodes = (
(30,161,o),
(44,116,o),
(67,85,cs),
(90,54,o),
(120,40,o),
(152,33,cs),
(167,29,o),
(183,27,o),
(198,26,cs),
(213,25,o),
(226,25,o),
(238,24,c),
(177,35,o),
(139,66,o),
(116,99,cs),
(92,132,o),
(85,166,o),
(82,181,cs),
(75,218,o),
(86,267,o),
(118,311,cs),
(150,355,o),
(203,392,o),
(276,407,cs),
(361,423,o),
(426,398,o),
(463,352,cs),
(500,306,o),
(509,236,o),
(484,164,c),
(447,219,o),
(424,257,o),
(412,284,c),
(384,271,l),
(365,261,l),
(350,284,o),
(332,297,o),
(309,307,cs),
(285,317,o),
(240,310,o),
(212,288,cs),
(184,266,o),
(171,237,o),
(168,210,cs),
(167,196,o),
(167,184,o),
(170,175,cs),
(186,115,o),
(218,92,o),
(289,96,cs),
(320,97,o),
(346,113,o),
(366,128,cs),
(378,137,o),
(388,147,o),
(397,158,c),
(402,147,o),
(408,137,o),
(413,128,cs),
(427,104,l),
(439,83,l),
(451,107,o),
(476,134,o),
(505,159,cs),
(533,183,o),
(565,204,o),
(590,219,c),
(570,302,o),
(537,375,o),
(485,424,cs),
(432,473,o),
(358,499,o),
(254,488,cs),
(221,484,o),
(167,463,o),
(121,421,cs),
(75,379,o),
(36,317,o),
(33,230,cs)
);
},
{
closed = 1;
nodes = (
(315,274,o),
(354,259,o),
(365,228,cs),
(377,187,o),
(348,157,o),
(312,147,cs),
(276,137,o),
(234,145,o),
(222,181,cs),
(217,198,o),
(221,217,o),
(232,231,cs),
(243,245,o),
(258,256,o),
(275,261,cs)
);
},
{
closed = 1;
nodes = (
(249,163,o),
(280,148,o),
(307,159,cs),
(335,170,o),
(353,192,o),
(346,221,cs),
(339,250,o),
(307,256,o),
(280,247,cs),
(252,238,o),
(230,214,o),
(242,186,c)
);
}
);
width = 629;
}
);
note = at;
unicode = 64;
},
{
glyphname = ampersand;
layers = (
{
layerId = m01;
shapes = (
{
closed = 1;
nodes = (
(462,70,o),
(465,57,o),
(468,46,cs),
(475,16,ls),
(478,7,o),
(480,-2,o),
(481,-9,c),
(389,-53,l),
(354,24,l),
(295,3,o),
(241,0,o),
(196,19,c),
(147,46,o),
(128,93,o),
(127,141,cs),
(126,189,o),
(142,240,o),
(161,272,c),
(141,276,o),
(105,287,o),
(73,304,cs),
(41,321,o),
(12,347,o),
(4,380,cs),
(-7,427,o),
(0,465,o),
(17,498,cs),
(33,531,o),
(63,559,o),
(96,580,c),
(48,681,l),
(94,694,o),
(136,707,o),
(173,719,cs),
(189,724,o),
(205,730,o),
(221,735,cs),
(252,745,o),
(279,754,o),
(296,760,cs),
(313,766,l),
(314,757,o),
(316,747,o),
(319,735,cs),
(321,725,o),
(323,713,o),
(326,700,cs),
(329,686,o),
(332,670,o),
(336,653,c),
(352,653,o),
(366,654,o),
(378,655,cs),
(390,656,o),
(399,655,o),
(404,653,c),
(404,696,l),
(501,693,l),
(489,436,l),
(471,426,ls),
(460,419,o),
(449,415,o),
(441,412,c),
(408,440,o),
(354,452,o),
(310,450,cs),
(266,448,o),
(230,431,o),
(233,400,cs),
(234,376,o),
(249,364,o),
(267,361,cs),
(285,357,o),
(307,362,o),
(324,373,c),
(363,335,l),
(339,322,ls),
(316,309,o),
(298,291,o),
(295,271,cs),
(292,250,o),
(333,223,o),
(360,233,cs),
(387,243,o),
(407,264,o),
(424,300,c),
(573,219,l),
(544,168,o),
(505,120,o),
(457,84,c)
);
},
{
closed = 1;
nodes = (
(431,270,l),
(422,249,o),
(398,226,o),
(371,213,cs),
(343,200,o),
(312,198,o),
(284,215,cs),
(257,234,o),
(262,259,o),
(276,282,cs),
(290,305,o),
(312,326,o),
(323,331,c),
(314,357,l),
(297,346,o),
(272,343,o),
(250,347,cs),
(228,351,o),
(209,363,o),
(206,384,cs),
(203,416,o),
(221,440,o),
(248,454,cs),
(275,468,o),
(311,473,o),
(345,471,cs),
(379,469,o),
(411,457,o),
(431,440,c),
(440,442,o),
(450,445,o),
(461,450,cs),
(466,453,o),
(471,455,o),
(476,457,c),
(481,660,l),
(421,657,l),
(416,628,l),
(413,628,o),
(408,628,o),
(400,629,c),
(374,629,ls),
(355,629,o),
(334,629,o),
(322,626,c),
(314,659,o),
(309,682,o),
(306,698,cs),
(301,721,l),
(183,685,ls),
(154,676,o),
(123,667,o),
(88,657,c),
(128,561,l),
(97,541,o),
(70,518,o),
(54,491,cs),
(37,463,o),
(29,431,o),
(40,388,cs),
(48,359,o),
(78,334,o),
(110,318,cs),
(142,301,o),
(177,291,o),
(193,287,c),
(177,259,o),
(157,212,o),
(153,166,cs),
(149,120,o),
(160,75,o),
(204,51,c),
(243,35,o),
(304,38,o),
(360,58,c),
(391,-11,l),
(450,23,l),
(436,105,l),
(476,140,o),
(513,172,o),
(536,219,c)
);
}
);
width = 572;
}
);
note = ampersand;
unicode = 38;
},
{
glyphname = asciicircum;
layers = (
{
layerId = m01;
shapes = (
{
closed = 1;
nodes = (
(29,297,l),
(174,667,l),
(404,699,l),
(627,382,l),
(432,257,l),
(261,465,l),
(121,253,l)
);
},
{
closed = 1;
nodes = (
(253,499,l),
(412,307,l),
(574,401,l),
(370,643,l),
(191,631,l),
(70,337,l),
(136,337,l)
);
}
);
width = 632;
}
);
note = asciicircum;
unicode = 94;
},
{
glyphname = at.81;
layers = (
{
layerId = m01;
shapes = (
{
closed = 1;
nodes = (
(536,654,o),
(619,636,o),
(684,592,cs),
(748,547,o),
(793,474,o),
(793,357,cs),
(793,240,o),
(756,154,o),
(719,95,cs),
(697,61,o),
(672,32,o),
(644,8,c),
(603,1,l),
(570,50,ls),
(561,63,o),
(553,75,o),
(546,87,cs),
(538,98,o),
(533,106,o),
(530,109,c),
(506,89,o),
(475,65,o),
(441,45,cs),
(407,25,o),
(369,7,o),
(333,-2,c),
(276,27,o),
(237,88,o),
(211,153,cs),
(185,218,o),
(173,287,o),
(172,332,c),
(239,399,o),
(330,429,o),
(418,435,cs),
(505,441,o),
(588,424,o),
(637,399,c),
(605,451,o),
(556,485,o),
(500,502,cs),
(472,511,o),
(443,515,o),
(412,515,cs),
(351,515,o),
(292,501,o),
(238,471,cs),
(184,441,o),
(123,386,o),
(105,308,cs),
(87,230,o),
(99,150,o),
(128,78,cs),
(143,41,o),
(158,9,o),
(174,-18,c),
(127,15,o),
(83,60,o),
(52,119,cs),
(21,178,o),
(2,251,o),
(6,342,cs),
(9,418,o),
(43,482,o),
(94,531,cs),
(145,580,o),
(212,616,o),
(278,638,cs),
(344,660,o),
(411,669,o),
(460,662,cs)
);
},
{
closed = 1;
nodes = (
(618,43,l),
(673,83,o),
(711,137,o),
(741,215,cs),
(756,254,o),
(763,300,o),
(763,354,cs),
(763,462,o),
(721,528,o),
(662,568,cs),
(602,608,o),
(525,624,o),
(456,632,cs),
(409,637,o),
(348,631,o),
(287,612,cs),
(226,592,o),
(165,559,o),
(118,514,cs),
(71,469,o),
(39,412,o),
(36,341,cs),
(33,257,o),
(39,202,o),
(56,157,cs),
(72,112,o),
(100,76,o),
(137,28,c),
(108,79,o),
(82,153,o),
(79,230,cs),
(75,306,o),
(93,385,o),
(152,445,cs),
(191,485,o),
(248,517,o),
(313,531,cs),
(377,545,o),
(449,543,o),
(514,520,cs),
(579,496,o),
(639,450,o),
(679,375,c),
(648,390,o),
(601,403,o),
(546,410,cs),
(491,417,o),
(431,417,o),
(373,405,cs),
(315,392,o),
(261,368,o),
(220,327,c),
(221,286,o),
(226,228,o),
(245,175,cs),
(264,122,o),
(295,72,o),
(348,44,c),
(380,53,o),
(417,69,o),
(452,88,cs),
(487,107,o),
(518,127,o),
(541,146,c),
(545,139,o),
(564,113,o),
(583,89,cs)
);
},
{
closed = 1;
nodes = (
(373,287,o),
(418,294,o),
(463,293,cs),
(508,292,o),
(554,281,o),
(579,276,c),
(559,241,o),
(532,215,o),
(504,196,cs),
(475,176,o),
(444,163,o),
(417,154,c),
(385,173,o),
(356,216,o),
(349,259,c)
);
},
{
closed = 1;
nodes = (
(439,192,o),
(464,201,o),
(488,214,cs),
(512,226,o),
(535,244,o),
(551,265,c),
(526,272,o),
(490,274,o),
(458,272,cs),
(425,270,o),
(395,264,o),
(383,256,c),
(388,237,o),
(394,210,o),
(419,185,c)
);
}
);
width = 821;
}
);
note = at.81;
},
{
glyphname = grave;
layers = (
{
layerId = m01;
shapes = (
{
closed = 1;
nodes = (
(461,445,o),
(430,412,o),
(400,382,cs),
(370,352,o),
(339,325,o),
(323,316,c),
(278,381,o),
(244,435,o),
(198,483,cs),
(152,531,o),
(95,574,o),
(3,615,c),
(23,642,o),
(49,671,o),
(70,694,cs),
(82,707,o),
(95,720,o),
(108,732,c),
(193,701,o),
(272,657,o),
(357,591,cs),
(400,558,o),
(440,517,o),
(478,469,c)
);
},
{
closed = 1;
nodes = (
(104,690,o),
(84,666,o),
(65,633,c),
(114,604,o),
(161,560,o),
(205,514,cs),
(227,491,o),
(248,467,o),
(269,444,cs),
(289,420,o),
(308,398,o),
(327,378,c),
(338,381,o),
(364,405,o),
(387,430,cs),
(400,445,o),
(415,461,o),
(430,479,c),
(389,546,o),
(330,594,o),
(272,631,cs),
(214,667,o),
(156,692,o),
(119,709,c)
);
}
